<svg width="166" height="161" viewBox="0 0 166 161" fill="none" xmlns="http://www.w3.org/2000/svg">
<path d="M152.926 74.9146C151.947 76.8679 150.154 79.6399 148.514 81.2653H17.4645C16.4712 79.9626 14.1898 77.0319 13.2112 74.9146H152.926Z" fill="#EC0089"/>
<path d="M143.133 87.9626H22.8447C24.8021 90.2533 26.9194 92.3693 29.0461 93.84H136.45C139.045 92.3693 141.503 90.2533 143.133 87.9626Z" fill="#EC0089"/>
<path d="M128.282 100.05H95.3058C94.3364 105.273 94.3364 110.162 94.3364 113.754C103.962 113.093 116.695 108.696 128.282 100.05Z" fill="#EC0089"/>
<path d="M165.173 32.1509C150.153 33.1203 128.61 43.2456 114.574 59.7269C111.97 62.6723 109.675 65.6043 107.867 68.7096H156.19C162.718 55.6523 166.129 42.7589 165.173 32.1509Z" fill="#EC0089"/>
<path d="M71.4914 113.754C71.6368 110.162 71.6368 105.273 70.9901 100.05H37.6968C49.4514 108.697 62.1808 113.094 71.4914 113.754Z" fill="#EC0089"/>
<path d="M83.0641 114.728C86.4881 111.145 90.0841 106.237 93.3535 100.051H72.6201C76.0535 106.237 79.3215 111.145 83.0641 114.728Z" fill="#EC0089"/>
<path d="M58.4294 68.7094C56.6267 65.604 54.1721 62.672 51.7374 59.7267C37.6961 43.2454 15.9841 33.12 1.1374 32.1507C0.15873 42.7587 3.42273 55.652 9.95206 68.7094H58.4294Z" fill="#EC0089"/>
<path d="M103.961 68.7094C104.284 64.948 104.612 61.3614 104.612 57.1173C104.612 34.2774 94.3371 10.5987 83.0638 1.32111e-05C71.6371 10.5987 61.5251 34.2774 61.5251 57.1173C61.5251 61.3614 61.5251 64.948 62.1811 68.7094H103.961Z" fill="#EC0089"/>
<path d="M152.626 160.77C159.478 160.77 165.201 157.988 165.201 151.122C165.201 147.208 162.423 144.598 158.011 143.461C153.431 142.313 147.567 142.472 147.567 139.545C147.891 137.578 149.69 137.092 152.458 137.092C156.71 137.092 156.874 139.377 157.042 140.842H164.049C163.562 135.461 159.15 131.705 152.139 131.705C144.791 131.705 140.547 135.63 140.547 140.693C140.547 143.62 142.014 146.233 144.473 147.536C146.257 148.364 148.702 149.01 151.651 149.502C154.743 149.825 157.53 150.14 157.694 152.27C157.694 153.745 156.214 155.544 152.958 155.544C148.223 155.544 147.235 152.93 147.235 151.122H139.891C140.065 156.845 144.791 160.77 152.626 160.77Z" fill="#EC0089"/>
<path d="M122.409 154.237C118.006 154.237 114.241 150.481 114.241 146.233C114.241 141.821 118.006 138.07 122.409 138.07C126.642 138.07 130.24 141.821 130.24 146.233C130.24 150.481 126.642 154.237 122.409 154.237ZM130.24 132.038V134.159C127.949 132.525 125.186 131.705 122.068 131.705C114.073 131.705 107.389 138.07 107.389 146.233C107.389 154.237 114.073 160.77 122.068 160.77C125.186 160.77 127.949 159.786 130.24 158.306V160.105H137.256V132.038H130.24Z" fill="#EC0089"/>
<path d="M90.0843 154.237C85.8416 154.237 82.095 150.481 82.095 146.233C82.095 141.821 85.8416 138.07 90.0843 138.07C94.487 138.07 98.247 141.821 98.247 146.233C98.247 150.481 94.487 154.237 90.0843 154.237ZM98.247 122.394V134.159C95.7976 132.525 93.0203 131.705 89.935 131.705C81.9163 131.705 75.407 138.07 75.407 146.233C75.407 154.237 81.9163 160.77 89.935 160.77C93.0203 160.77 95.967 159.786 98.247 158.306V160.105H105.108V122.394H98.247Z" fill="#EC0089"/>
<path d="M65.6001 122.395H72.4468V129.415H65.6001V122.395Z" fill="#EC0089"/>
<path d="M72.4561 160.106H65.6094V132.038H72.4561V160.106Z" fill="#EC0089"/>
<path d="M47.1611 154.237C42.5851 154.237 38.8344 150.481 38.8344 146.233C38.8344 141.821 42.5851 138.07 47.1611 138.07C51.4091 138.07 55.1598 141.821 55.1598 146.233C55.1598 150.481 51.4091 154.237 47.1611 154.237ZM55.1598 122.394V134.159C52.7064 132.525 49.9384 131.705 46.8331 131.705C38.8344 131.705 32.1411 138.07 32.1411 146.233C32.1411 154.237 38.8344 160.77 46.8331 160.77C49.9384 160.77 52.7064 159.786 55.1598 158.306V160.105H62.1811V122.394H55.1598Z" fill="#EC0089"/>
<path d="M14.6867 154.237C10.444 154.237 6.688 150.481 6.688 146.233C6.688 141.821 10.444 138.07 14.6867 138.07C19.2533 138.07 23.0133 141.821 23.0133 146.233C23.0133 150.481 19.2533 154.237 14.6867 154.237ZM23.0133 132.038V134.159C20.56 132.525 17.6187 131.705 14.5187 131.705C6.51867 131.705 0 138.07 0 146.233C0 154.237 6.51867 160.77 14.5187 160.77C17.792 160.77 20.56 159.786 23.0133 158.306V160.105H29.856V132.038H23.0133Z" fill="#EC0089"/>
</svg>
