<?xml version="1.0" encoding="utf-8"?>
<!-- Generator: Adobe Illustrator 27.0.1, SVG Export Plug-In . SVG Version: 6.00 Build 0)  -->
<svg version="1.1" id="Layer_1" xmlns="http://www.w3.org/2000/svg" xmlns:xlink="http://www.w3.org/1999/xlink" x="0px" y="0px"
	 viewBox="0 0 476.7 14.9" style="enable-background:new 0 0 476.7 14.9;" xml:space="preserve">
<style type="text/css">
	.st0{fill:#FF00ED;}
</style>
<path class="st0" d="M243.2,4.2l0-0.5l-0.4,0l0-0.5l0-0.5l-0.4,0l0-0.5L242,2l0-0.5l-0.4,0l0-0.5l-0.4,0l-0.4,0l-0.4,0l0-0.5l-0.4,0
	l-0.4,0l-0.4,0l-0.4,0l-0.4,0l-0.4,0l-0.4,0l-0.4,0l0,0.5l-0.4,0l-0.4,0l-0.4,0l0,0.5l-0.4,0l0,0.5l-0.4,0l0,0.5l0,0.5l-0.4,0
	l-0.4,0l0,0.5l0,0.5l0,0.5l-0.4,0l0,0.5l0,0.5l0,0.5l0,0.5l0,0.5l0,0.5l0,0.5l0,0.5l0,0.5l0.4,0l0,0.5l-0.4,0l0,0.5l0,0.5l0.4,0
	l0,0.5l0,0.5l0.4,0l0.4,0l0,0.5l0.4,0l0,1.6l0.4,0l0.4,0l0.4,0l0.4,0l0.4,0l0.4,0l0.4,0l0.4,0l0.4,0l0.4,0l0.4,0l0-0.5l0.4,0l0.4,0
	l0-0.5l0.4,0l0-0.5l0.4,0l0.4,0l0-0.5l0.4,0l0.4,0l0-0.5l0.4,0l0-0.5l0.4,0l0-0.5l0-0.5l0-0.5l-0.4,0l0-0.5l0-0.5l0-0.5l0-0.5l0.4,0
	l0-0.5l0-0.5l0-0.5l0-0.5l0-0.5l-0.4,0L243.2,4.2z M236.1,5.8l0,0.5l-0.4,0l0-0.5l0-0.5l0.4,0L236.1,5.8z M239.2,6.9l-0.4,0l-0.4,0
	l-0.4,0l0,0.5l0,0.5l-0.4,0l-0.4,0l-0.4,0l0-0.5l-0.4,0l0-0.5l0-0.5l0-0.5l0.4,0l0-0.5l0.4,0l0.4,0l0.4,0l0.4,0l0,0.5l0.4,0l0,0.5
	l0.4,0L239.2,6.9z M240,4.2l-0.4,0l-0.4,0l0,0.5l-0.4,0l-0.4,0l-0.4,0l-0.4,0l-0.4,0l-0.4,0l-0.4,0l-0.4,0l-0.4,0l0-0.5l0-0.5l0.4,0
	l0-0.5l0.4,0l0.4,0l0.4,0l0.4,0l0.4,0l0.4,0l0.4,0l0.4,0l0.4,0l0,0.5l0.4,0L240,4.2z"/>
<rect x="159.9" y="5.9" transform="matrix(1.835140e-03 -1 1 1.835140e-03 153.7712 166.207)" class="st0" width="0.5" height="0.4"/>
<rect x="159.1" y="5.9" transform="matrix(2.007132e-03 -1 1 2.007132e-03 152.9489 165.4061)" class="st0" width="0.5" height="0.4"/>
<path class="st0" d="M165.5,4.2l0-0.5l-0.4,0l0-0.5l0-0.5l-0.4,0l0-0.5l-0.4,0l0-0.5l-0.4,0l0-0.5l-0.4,0l-0.4,0l-0.4,0l0-0.5
	l-0.4,0l-0.4,0l-0.4,0l-0.4,0l-0.4,0l-0.4,0l-0.4,0l-0.4,0l0,0.5l-0.4,0l-0.4,0l-0.4,0l0,0.5l-0.4,0l0,0.5l-0.4,0l0,0.5l0,0.5
	l-0.4,0l-0.4,0l0,0.5l0,0.5l0,0.5l-0.4,0l0,0.5l0,0.5l0,0.5l0,0.5l0,0.5l0,0.5l0,0.5l0,0.5l0,0.5l0.4,0l0,0.5l-0.4,0l0,0.5l0,0.5
	l0.4,0l0,0.5l0,0.5l0.4,0l0.4,0l0,0.5l0.4,0l0,1.6l0.4,0l0.4,0l0.4,0l0.4,0l0.4,0l0.4,0l0.4,0l0.4,0l0.4,0l0.4,0l0.4,0l0-0.5l0.4,0
	l0.4,0l0-0.5l0.4,0l0-0.5l0.4,0l0.4,0l0-0.5l0.4,0l0.4,0l0-0.5l0.4,0l0-0.5l0.4,0l0-0.5l0-0.5l0-0.5l-0.4,0l0-0.5l0-0.5l0-0.5l0-0.5
	l0.4,0l0-0.5l0-0.5l0-0.5l0-0.5l0-0.5l-0.4,0L165.5,4.2z M158.3,5.8l0,0.5l-0.4,0l0-0.5l0-0.5l0.4,0L158.3,5.8z M161.5,6.9l-0.4,0
	l-0.4,0l-0.4,0l0,0.5l0,0.5l-0.4,0l-0.4,0l-0.4,0l0-0.5l-0.4,0l0-0.5l0-0.5l0-0.5l0.4,0l0-0.5l0.4,0l0.4,0l0.4,0l0.4,0l0,0.5l0.4,0
	l0,0.5l0.4,0L161.5,6.9z M162.3,4.2l-0.4,0l-0.4,0l0,0.5l-0.4,0l-0.4,0l-0.4,0l-0.4,0l-0.4,0l-0.4,0l-0.4,0l-0.4,0l-0.4,0l0-0.5
	l0-0.5l0.4,0l0-0.5l0.4,0l0.4,0l0.4,0l0.4,0l0.4,0l0.4,0l0.4,0l0.4,0l0.4,0l0,0.5l0.4,0L162.3,4.2z"/>
<polygon class="st0" points="199.6,14.6 199.9,14.6 200.2,14.6 200.2,14.3 200.2,14 200.5,14 200.5,13.8 200.5,13.5 200.2,13.5 
	199.9,13.5 199.6,13.5 199.3,13.5 199.3,13.8 199.3,14 199.6,14 199.6,14.3 "/>
<polygon class="st0" points="198.4,14.6 198.7,14.6 199,14.6 199,14.3 199,14 199,13.8 199,13.5 198.7,13.5 198.4,13.5 198.1,13.5 
	197.8,13.5 197.5,13.5 197.2,13.5 196.9,13.5 196.6,13.5 196.3,13.5 196.3,13.8 196.6,13.8 196.9,13.8 197.2,13.8 197.5,13.8 
	197.5,14 197.5,14.3 197.8,14.3 198.1,14.3 198.1,14.5 "/>
<polygon class="st0" points="202.3,14.3 202.3,14.1 202.3,13.8 202.6,13.8 202.9,13.8 203.2,13.8 203.5,13.8 203.5,13.5 203.2,13.5 
	202.9,13.5 202.6,13.5 202.3,13.5 202,13.5 201.7,13.5 201.4,13.5 201.1,13.5 200.8,13.5 200.8,13.8 200.8,14 200.8,14.3 
	200.8,14.6 201.1,14.6 201.4,14.6 201.7,14.6 201.7,14.3 202,14.3 "/>
<polygon class="st0" points="203.8,13 204.1,13 204.4,13 204.4,12.8 204.7,12.8 204.7,12.5 204.4,12.5 204.1,12.5 203.8,12.5 
	203.5,12.5 203.2,12.5 202.9,12.5 202.6,12.5 202.3,12.5 202,12.5 201.7,12.5 201.4,12.5 201.1,12.5 200.8,12.5 200.5,12.5 
	200.2,12.5 199.9,12.5 199.6,12.5 199.3,12.5 199,12.5 198.7,12.5 198.4,12.5 198.1,12.5 197.8,12.5 197.5,12.5 197.2,12.5 
	196.9,12.5 196.6,12.5 196.3,12.5 196,12.5 195.7,12.5 195.4,12.5 195.4,12.7 195.4,13 195.7,13 196,13 196.3,13 196.6,13 196.9,13 
	197.2,13 197.5,13 197.8,13 198.1,13 198.4,13 198.7,13 199,13 199.3,13 199.6,13 199.9,13 200.2,13 200.5,13 200.8,13 201.1,13 
	201.4,13 201.7,13 202,13 202.3,13 202.6,13 202.9,13 203.2,13 203.5,13 "/>
<polygon class="st0" points="197.8,11.4 197.5,11.4 197.2,11.4 196.9,11.4 196.6,11.4 196.3,11.4 196,11.4 195.7,11.4 195.4,11.4 
	195.1,11.4 194.8,11.4 194.5,11.4 194.5,11.7 194.8,11.7 194.8,11.9 195.1,11.9 195.4,11.9 195.7,11.9 196,11.9 196.3,12 196.6,12 
	196.9,12 197.2,12 197.5,12 197.8,12 198.1,12 198.4,12 198.7,12 199,12 199.3,12 199.6,12 199.9,12 200.2,12 200.5,12 200.8,12 
	201.1,12 201.4,12 201.7,12 202,12 202.3,12 202.6,12 202.9,12 203.2,12 203.5,12 203.8,12 204.1,12 204.4,12 204.7,12 205,12 
	205,11.7 205.3,11.7 205.3,11.5 205,11.5 204.7,11.5 204.4,11.5 204.1,11.5 203.8,11.5 203.5,11.5 203.2,11.5 202.9,11.5 
	202.6,11.5 202.3,11.5 202,11.5 201.7,11.5 201.4,11.5 201.1,11.5 200.8,11.5 200.5,11.5 200.2,11.5 199.9,11.5 199.6,11.4 
	199.3,11.4 199,11.4 198.7,11.4 198.4,11.4 198.1,11.4 "/>
<polygon class="st0" points="199,11 199.3,11 199.6,11 199.9,11 200.2,11 200.5,11 200.8,11 201.1,11 201.4,11 201.7,11 201.7,10.7 
	201.7,10.5 201.7,10.2 201.7,9.9 201.7,9.7 201.7,9.4 201.7,9.2 201.7,8.9 201.7,8.6 201.7,8.4 201.4,8.4 201.4,8.1 201.4,7.9 
	201.4,7.6 201.1,7.6 200.8,7.6 200.8,7.3 200.8,7.1 200.8,6.8 200.8,6.6 200.5,6.6 200.5,6.3 200.5,6.1 200.5,5.8 200.2,5.8 
	199.9,5.8 199.6,5.8 199.6,6 199.6,6.3 199.6,6.6 199.3,6.6 199.3,6.8 199.3,7.1 199.3,7.3 199.3,7.6 199,7.6 198.7,7.6 198.7,7.9 
	198.7,8.1 198.7,8.4 198.4,8.4 198.4,8.6 198.4,8.9 198.4,9.1 198.4,9.4 198.4,9.7 198.4,9.9 198.4,10.2 198.4,10.4 198.4,10.7 
	198.4,11 198.7,11 "/>
<polygon class="st0" points="193.9,9.6 193.9,9.9 193.9,10.2 193.9,10.4 194.2,10.4 194.2,10.7 194.2,10.9 194.5,10.9 194.8,10.9 
	195.1,10.9 195.4,10.9 195.7,10.9 196,10.9 196.3,11 196.6,11 196.9,11 197.2,11 197.5,11 197.8,11 198.1,11 198.1,10.7 197.8,10.7 
	197.5,10.7 197.5,10.4 197.5,10.2 197.5,9.9 197.2,9.9 196.9,9.9 196.9,9.7 196.9,9.4 196.6,9.4 196.3,9.4 196.3,9.1 196.3,8.9 
	196,8.9 195.7,8.9 195.4,8.9 195.4,8.6 195.1,8.6 194.8,8.6 194.8,8.4 194.8,8.1 194.5,8.1 194.2,8.1 193.9,8.1 193.9,7.8 
	193.6,7.8 193.6,8.1 193.6,8.3 193.6,8.6 193.6,8.9 193.6,9.1 193.6,9.4 193.9,9.4 "/>
<rect x="193.9" y="7.8" transform="matrix(4.874028e-03 -1 1 4.874028e-03 185.1262 201.9532)" class="st0" width="0.3" height="0.3"/>
<polygon class="st0" points="205.9,7.9 205.9,8.2 205.6,8.1 205.3,8.1 205,8.1 205,8.4 204.7,8.4 204.4,8.4 204.4,8.7 204.4,8.9 
	204.1,8.9 203.8,8.9 203.5,8.9 203.5,9.2 203.5,9.4 203.2,9.4 202.9,9.4 202.9,9.7 202.9,9.9 202.6,9.9 202.3,9.9 202.3,10.2 
	202.3,10.5 202.3,10.7 202,10.7 202,11 202.3,11 202.6,11 202.9,11 203.2,11 203.5,11 203.8,11 204.1,11 204.4,11 204.7,11 205,11 
	205.3,11 205.6,11 205.6,10.7 205.6,10.5 205.9,10.5 205.9,10.2 205.9,10 206.2,10 206.2,9.7 206.2,9.4 206.2,9.2 206.5,9.2 
	206.5,8.9 206.5,8.7 206.5,8.4 206.5,8.2 206.5,7.9 206.2,7.9 "/>
<polygon class="st0" points="219.8,14.6 220.1,14.6 220.4,14.6 220.4,14.3 220.4,14 220.7,14 220.8,13.8 220.8,13.5 220.5,13.5 
	220.2,13.5 219.9,13.5 219.5,13.5 219.5,13.8 219.5,14 219.8,14 219.8,14.3 "/>
<polygon class="st0" points="218.6,14.6 218.9,14.6 219.2,14.6 219.2,14.3 219.2,14 219.2,13.8 219.2,13.5 218.9,13.5 218.6,13.5 
	218.3,13.5 218,13.5 217.7,13.5 217.4,13.5 217.1,13.5 216.8,13.5 216.5,13.5 216.5,13.8 216.8,13.8 217.1,13.8 217.4,13.8 
	217.7,13.8 217.7,14 217.7,14.3 218,14.3 218.3,14.3 218.3,14.5 "/>
<polygon class="st0" points="222.6,14.3 222.6,14.1 222.6,13.8 222.9,13.8 223.2,13.8 223.5,13.8 223.8,13.8 223.8,13.5 223.5,13.5 
	223.2,13.5 222.9,13.5 222.6,13.5 222.3,13.5 222,13.5 221.7,13.5 221.4,13.5 221.1,13.5 221.1,13.8 221,14 221,14.3 221,14.6 
	221.3,14.6 221.6,14.6 221.9,14.6 221.9,14.3 222.3,14.3 "/>
<polygon class="st0" points="224.1,13 224.4,13 224.7,13 224.7,12.8 225,12.8 225,12.5 224.7,12.5 224.4,12.5 224.1,12.5 
	223.8,12.5 223.5,12.5 223.2,12.5 222.9,12.5 222.6,12.5 222.3,12.5 222,12.5 221.7,12.5 221.4,12.5 221.1,12.5 220.8,12.5 
	220.5,12.5 220.2,12.5 219.9,12.5 219.6,12.5 219.3,12.5 219,12.5 218.7,12.5 218.4,12.5 218.1,12.5 217.8,12.5 217.5,12.5 
	217.2,12.5 216.8,12.5 216.5,12.5 216.2,12.5 215.9,12.5 215.6,12.5 215.6,12.7 215.6,13 215.9,13 216.2,13 216.5,13 216.8,13 
	217.1,13 217.4,13 217.7,13 218,13 218.4,13 218.7,13 219,13 219.3,13 219.6,13 219.9,13 220.2,13 220.5,13 220.8,13 221.1,13 
	221.4,13 221.7,13 222,13 222.3,13 222.6,13 222.9,13 223.2,13 223.5,13 223.8,13 "/>
<polygon class="st0" points="218.1,11.4 217.8,11.4 217.5,11.4 217.2,11.4 216.9,11.4 216.6,11.4 216.3,11.4 216,11.4 215.7,11.4 
	215.4,11.4 215.1,11.4 214.8,11.4 214.8,11.7 215.1,11.7 215,11.9 215.3,11.9 215.7,11.9 216,11.9 216.3,11.9 216.6,12 216.9,12 
	217.2,12 217.5,12 217.8,12 218.1,12 218.4,12 218.7,12 219,12 219.3,12 219.6,12 219.9,12 220.2,12 220.5,12 220.8,12 221.1,12 
	221.4,12 221.7,12 222,12 222.3,12 222.6,12 222.9,12 223.2,12 223.5,12 223.8,12 224.1,12 224.4,12 224.7,12 225,12 225.3,12 
	225.3,11.7 225.6,11.7 225.6,11.5 225.3,11.5 225,11.5 224.7,11.5 224.4,11.5 224.1,11.5 223.8,11.5 223.5,11.5 223.2,11.5 
	222.9,11.5 222.6,11.5 222.3,11.5 222,11.5 221.7,11.5 221.4,11.5 221.1,11.5 220.8,11.5 220.5,11.5 220.2,11.5 219.9,11.4 
	219.6,11.4 219.3,11.4 219,11.4 218.7,11.4 218.4,11.4 "/>
<polygon class="st0" points="219.3,11 219.6,11 219.9,11 220.2,11 220.5,11 220.8,11 221.1,11 221.4,11 221.7,11 222,11 222,10.7 
	222,10.5 222,10.2 222,9.9 222,9.7 222,9.4 222,9.2 222,8.9 222,8.6 222,8.4 221.7,8.4 221.7,8.1 221.7,7.9 221.7,7.6 221.4,7.6 
	221.1,7.6 221.1,7.3 221.1,7.1 221.1,6.8 221.1,6.6 220.8,6.6 220.8,6.3 220.8,6.1 220.8,5.8 220.5,5.8 220.2,5.8 219.9,5.8 
	219.9,6 219.9,6.3 219.9,6.6 219.6,6.6 219.6,6.8 219.6,7.1 219.6,7.3 219.6,7.6 219.3,7.6 219,7.6 219,7.9 219,8.1 219,8.4 
	218.7,8.4 218.7,8.6 218.7,8.9 218.7,9.1 218.7,9.4 218.7,9.7 218.7,9.9 218.7,10.2 218.7,10.4 218.7,10.7 218.7,11 219,11 "/>
<polygon class="st0" points="214.2,9.6 214.2,9.9 214.2,10.2 214.2,10.4 214.5,10.4 214.5,10.7 214.5,10.9 214.8,10.9 215.1,10.9 
	215.4,10.9 215.7,10.9 216,10.9 216.3,10.9 216.6,11 216.9,11 217.2,11 217.5,11 217.8,11 218.1,11 218.4,11 218.4,10.7 218.1,10.7 
	217.8,10.7 217.8,10.4 217.8,10.2 217.8,9.9 217.5,9.9 217.2,9.9 217.2,9.7 217.2,9.4 216.9,9.4 216.6,9.4 216.6,9.1 216.6,8.9 
	216.3,8.9 216,8.9 215.7,8.9 215.7,8.6 215.4,8.6 215.1,8.6 215.1,8.4 215.1,8.1 214.8,8.1 214.5,8.1 214.2,8.1 214.2,7.8 
	213.9,7.8 213.9,8.1 213.9,8.3 213.9,8.6 213.9,8.9 213.9,9.1 213.9,9.4 214.2,9.4 "/>
<rect x="214.2" y="7.8" transform="matrix(4.874028e-03 -1 1 4.874028e-03 205.3139 222.2395)" class="st0" width="0.3" height="0.3"/>
<polygon class="st0" points="226.2,7.9 226.2,8.2 225.9,8.1 225.6,8.1 225.3,8.1 225.3,8.4 225,8.4 224.7,8.4 224.7,8.7 224.7,8.9 
	224.4,8.9 224.1,8.9 223.8,8.9 223.8,9.2 223.8,9.4 223.5,9.4 223.2,9.4 223.2,9.7 223.2,9.9 222.9,9.9 222.6,9.9 222.6,10.2 
	222.6,10.5 222.6,10.7 222.3,10.7 222.3,11 222.6,11 222.9,11 223.2,11 223.5,11 223.8,11 224.1,11 224.4,11 224.7,11 225,11 
	225.3,11 225.6,11 225.9,11 225.9,10.7 225.9,10.5 226.2,10.5 226.2,10.2 226.2,10 226.5,10 226.5,9.7 226.5,9.4 226.5,9.2 
	226.8,9.2 226.8,8.9 226.8,8.7 226.8,8.4 226.8,8.2 226.8,7.9 226.5,7.9 "/>
<polygon class="st0" points="179.3,14.6 179.6,14.6 179.9,14.6 179.9,14.3 179.9,14 180.2,14 180.2,13.8 180.2,13.5 179.9,13.5 
	179.6,13.5 179.3,13.5 179,13.5 179,13.8 179,14 179.3,14 179.3,14.3 "/>
<polygon class="st0" points="178.1,14.6 178.4,14.6 178.7,14.6 178.7,14.3 178.7,14 178.7,13.8 178.7,13.5 178.4,13.5 178.1,13.5 
	177.8,13.5 177.5,13.5 177.2,13.5 176.9,13.5 176.6,13.5 176.3,13.5 176,13.5 176,13.8 176.3,13.8 176.6,13.8 176.9,13.8 
	177.2,13.8 177.2,14 177.2,14.3 177.5,14.3 177.8,14.3 177.8,14.5 "/>
<polygon class="st0" points="182,14.3 182,14.1 182,13.8 182.3,13.8 182.6,13.8 182.9,13.8 183.2,13.8 183.2,13.5 182.9,13.5 
	182.6,13.5 182.3,13.5 182,13.5 181.7,13.5 181.4,13.5 181.1,13.5 180.8,13.5 180.5,13.5 180.5,13.8 180.5,14 180.5,14.3 
	180.5,14.6 180.8,14.6 181.1,14.6 181.4,14.6 181.4,14.3 181.7,14.3 "/>
<polygon class="st0" points="183.5,13 183.8,13 184.1,13 184.1,12.8 184.4,12.8 184.4,12.5 184.1,12.5 183.8,12.5 183.5,12.5 
	183.2,12.5 182.9,12.5 182.6,12.5 182.3,12.5 182,12.5 181.7,12.5 181.4,12.5 181.1,12.5 180.8,12.5 180.5,12.5 180.2,12.5 
	179.9,12.5 179.6,12.5 179.3,12.5 179,12.5 178.7,12.5 178.4,12.5 178.1,12.5 177.8,12.5 177.5,12.5 177.2,12.5 176.9,12.5 
	176.6,12.5 176.3,12.5 176,12.5 175.7,12.5 175.4,12.5 175.1,12.5 175.1,12.7 175.1,13 175.4,13 175.7,13 176,13 176.3,13 176.6,13 
	176.9,13 177.2,13 177.5,13 177.8,13 178.1,13 178.4,13 178.7,13 179,13 179.3,13 179.6,13 179.9,13 180.2,13 180.5,13 180.8,13 
	181.1,13 181.4,13 181.7,13 182,13 182.3,13 182.6,13 182.9,13 183.2,13 "/>
<polygon class="st0" points="177.5,11.4 177.2,11.4 176.9,11.4 176.6,11.4 176.3,11.4 176,11.4 175.7,11.4 175.4,11.4 175.1,11.4 
	174.8,11.4 174.5,11.4 174.2,11.4 174.2,11.7 174.5,11.7 174.5,11.9 174.8,11.9 175.1,11.9 175.4,11.9 175.7,11.9 176,12 176.3,12 
	176.6,12 176.9,12 177.2,12 177.5,12 177.8,12 178.1,12 178.4,12 178.7,12 179,12 179.3,12 179.6,12 179.9,12 180.2,12 180.5,12 
	180.8,12 181.1,12 181.4,12 181.7,12 182,12 182.3,12 182.6,12 182.9,12 183.2,12 183.5,12 183.8,12 184.1,12 184.4,12 184.7,12 
	184.7,11.7 185,11.7 185,11.5 184.7,11.5 184.4,11.5 184.1,11.5 183.8,11.5 183.5,11.5 183.2,11.5 182.9,11.5 182.6,11.5 
	182.3,11.5 182,11.5 181.7,11.5 181.4,11.5 181.1,11.5 180.8,11.5 180.5,11.5 180.2,11.5 179.9,11.5 179.6,11.5 179.3,11.4 
	179,11.4 178.7,11.4 178.4,11.4 178.1,11.4 177.8,11.4 "/>
<polygon class="st0" points="178.7,11 179,11 179.3,11 179.6,11 179.9,11 180.2,11 180.5,11 180.8,11 181.1,11 181.4,11 181.4,10.7 
	181.4,10.5 181.4,10.2 181.4,9.9 181.4,9.7 181.4,9.4 181.4,9.2 181.4,8.9 181.4,8.6 181.4,8.4 181.1,8.4 181.1,8.1 181.1,7.9 
	181.1,7.6 180.8,7.6 180.5,7.6 180.5,7.3 180.5,7.1 180.5,6.8 180.5,6.6 180.2,6.6 180.2,6.3 180.2,6.1 180.2,5.8 179.9,5.8 
	179.6,5.8 179.3,5.8 179.3,6 179.3,6.3 179.3,6.6 179,6.6 179,6.8 179,7.1 179,7.3 179,7.6 178.7,7.6 178.4,7.6 178.4,7.9 
	178.4,8.1 178.4,8.4 178.1,8.4 178.1,8.6 178.1,8.9 178.1,9.1 178.1,9.4 178.1,9.7 178.1,9.9 178.1,10.2 178.1,10.4 178.1,10.7 
	178.1,11 178.4,11 "/>
<polygon class="st0" points="173.6,9.6 173.6,9.9 173.6,10.2 173.6,10.4 173.9,10.4 173.9,10.7 173.9,10.9 174.2,10.9 174.5,10.9 
	174.8,10.9 175.1,10.9 175.4,10.9 175.7,10.9 176,11 176.3,11 176.6,11 176.9,11 177.2,11 177.5,11 177.8,11 177.8,10.7 177.5,10.7 
	177.2,10.7 177.2,10.4 177.2,10.2 177.2,9.9 176.9,9.9 176.6,9.9 176.6,9.7 176.6,9.4 176.3,9.4 176,9.4 176,9.1 176,8.9 175.7,8.9 
	175.4,8.9 175.1,8.9 175.1,8.6 174.8,8.6 174.5,8.6 174.5,8.4 174.5,8.1 174.2,8.1 173.9,8.1 173.6,8.1 173.6,7.8 173.3,7.8 
	173.3,8.1 173.3,8.3 173.3,8.6 173.3,8.9 173.3,9.1 173.3,9.4 173.6,9.4 "/>
<rect x="173.6" y="7.8" transform="matrix(4.874028e-03 -1 1 4.874028e-03 164.9385 181.6668)" class="st0" width="0.3" height="0.3"/>
<polygon class="st0" points="185.6,7.9 185.6,8.2 185.3,8.1 185,8.1 184.7,8.1 184.7,8.4 184.4,8.4 184.1,8.4 184.1,8.7 184.1,8.9 
	183.8,8.9 183.5,8.9 183.2,8.9 183.2,9.2 183.2,9.4 182.9,9.4 182.6,9.4 182.6,9.7 182.6,9.9 182.3,9.9 182,9.9 182,10.2 182,10.5 
	182,10.7 181.7,10.7 181.7,11 182,11 182.3,11 182.6,11 182.9,11 183.2,11 183.5,11 183.8,11 184.1,11 184.4,11 184.7,11 185,11 
	185.3,11 185.3,10.7 185.3,10.5 185.6,10.5 185.6,10.2 185.6,10 185.9,10 185.9,9.7 185.9,9.4 185.9,9.2 186.2,9.2 186.2,8.9 
	186.2,8.7 186.2,8.4 186.2,8.2 186.2,7.9 185.9,7.9 "/>
<rect x="82.2" y="5.9" transform="matrix(1.835140e-03 -1 1 1.835140e-03 76.2085 88.5019)" class="st0" width="0.5" height="0.4"/>
<rect x="81.4" y="5.9" transform="matrix(2.007132e-03 -1 1 2.007132e-03 75.3996 87.701)" class="st0" width="0.5" height="0.4"/>
<path class="st0" d="M87.8,4.2l0-0.5l-0.4,0l0-0.5l0-0.5l-0.4,0L87,2l-0.4,0l0-0.5l-0.4,0l0-0.5l-0.4,0l-0.4,0l-0.4,0l0-0.5l-0.4,0
	l-0.4,0l-0.4,0l-0.4,0l-0.4,0l-0.4,0l-0.4,0l-0.4,0l0,0.5l-0.4,0l-0.4,0l-0.4,0l0,0.5l-0.4,0l0,0.5l-0.4,0l0,0.5l0,0.5l-0.4,0
	l-0.4,0l0,0.5l0,0.5l0,0.5l-0.4,0l0,0.5l0,0.5l0,0.5l0,0.5l0,0.5l0,0.5l0,0.5l0,0.5l0,0.5l0.4,0l0,0.5l-0.4,0l0,0.5l0,0.5l0.4,0
	l0,0.5l0,0.5l0.4,0l0.4,0l0,0.5l0.4,0l0,1.6l0.4,0l0.4,0l0.4,0l0.4,0l0.4,0l0.4,0l0.4,0l0.4,0l0.4,0l0.4,0l0.4,0l0-0.5l0.4,0l0.4,0
	l0-0.5l0.4,0l0-0.5l0.4,0l0.4,0l0-0.5l0.4,0l0.4,0l0-0.5l0.4,0l0-0.5l0.4,0l0-0.5l0-0.5l0-0.5l-0.4,0l0-0.5l0-0.5l0-0.5l0-0.5l0.4,0
	l0-0.5l0-0.5l0-0.5l0-0.5l0-0.5l-0.4,0L87.8,4.2z M80.6,5.8l0,0.5l-0.4,0l0-0.5l0-0.5l0.4,0L80.6,5.8z M83.8,6.9l-0.4,0l-0.4,0
	l-0.4,0l0,0.5l0,0.5l-0.4,0l-0.4,0l-0.4,0l0-0.5l-0.4,0l0-0.5l0-0.5l0-0.5l0.4,0l0-0.5l0.4,0l0.4,0l0.4,0l0.4,0l0,0.5l0.4,0l0,0.5
	l0.4,0L83.8,6.9z M84.6,4.2l-0.4,0l-0.4,0l0,0.5l-0.4,0l-0.4,0l-0.4,0l-0.4,0l-0.4,0l-0.4,0l-0.4,0l-0.4,0l-0.4,0l0-0.5l0-0.5l0.4,0
	l0-0.5l0.4,0l0.4,0l0.4,0l0.4,0l0.4,0l0.4,0l0.4,0l0.4,0l0.4,0l0,0.5l0.4,0L84.6,4.2z"/>
<polygon class="st0" points="121.9,14.6 122.2,14.6 122.5,14.6 122.5,14.3 122.5,14 122.8,14 122.8,13.8 122.8,13.5 122.5,13.5 
	122.2,13.5 121.9,13.5 121.6,13.5 121.6,13.8 121.6,14 121.9,14 121.9,14.3 "/>
<polygon class="st0" points="120.7,14.6 121,14.6 121.3,14.6 121.3,14.3 121.3,14 121.3,13.8 121.3,13.5 121,13.5 120.7,13.5 
	120.4,13.5 120.1,13.5 119.8,13.5 119.5,13.5 119.2,13.5 118.9,13.5 118.6,13.5 118.6,13.8 118.9,13.8 119.2,13.8 119.5,13.8 
	119.8,13.8 119.8,14 119.8,14.3 120.1,14.3 120.4,14.3 120.4,14.5 "/>
<polygon class="st0" points="124.6,14.3 124.6,14.1 124.6,13.8 124.9,13.8 125.2,13.8 125.5,13.8 125.8,13.8 125.8,13.5 125.5,13.5 
	125.2,13.5 124.9,13.5 124.6,13.5 124.3,13.5 124,13.5 123.7,13.5 123.4,13.5 123.1,13.5 123.1,13.8 123.1,14 123.1,14.3 
	123.1,14.6 123.4,14.6 123.7,14.6 124,14.6 124,14.3 124.3,14.3 "/>
<polygon class="st0" points="126.1,13 126.4,13 126.7,13 126.7,12.8 127,12.8 127,12.5 126.7,12.5 126.4,12.5 126.1,12.5 
	125.8,12.5 125.5,12.5 125.2,12.5 124.9,12.5 124.6,12.5 124.3,12.5 124,12.5 123.7,12.5 123.4,12.5 123.1,12.5 122.8,12.5 
	122.5,12.5 122.2,12.5 121.9,12.5 121.6,12.5 121.3,12.5 121,12.5 120.7,12.5 120.4,12.5 120.1,12.5 119.8,12.5 119.5,12.5 
	119.2,12.5 118.9,12.5 118.6,12.5 118.3,12.5 118,12.5 117.7,12.5 117.7,12.7 117.7,13 118,13 118.3,13 118.6,13 118.9,13 119.2,13 
	119.5,13 119.8,13 120.1,13 120.4,13 120.7,13 121,13 121.3,13 121.6,13 121.9,13 122.2,13 122.5,13 122.8,13 123.1,13 123.4,13 
	123.7,13 124,13 124.3,13 124.6,13 124.9,13 125.2,13 125.5,13 125.8,13 "/>
<polygon class="st0" points="120.1,11.4 119.8,11.4 119.5,11.4 119.2,11.4 118.9,11.4 118.6,11.4 118.3,11.4 118,11.4 117.7,11.4 
	117.4,11.4 117.1,11.4 116.8,11.4 116.8,11.7 117.1,11.7 117.1,11.9 117.4,11.9 117.7,11.9 118,11.9 118.3,11.9 118.6,12 118.9,12 
	119.2,12 119.5,12 119.8,12 120.1,12 120.4,12 120.7,12 121,12 121.3,12 121.6,12 121.9,12 122.2,12 122.5,12 122.8,12 123.1,12 
	123.4,12 123.7,12 124,12 124.3,12 124.6,12 124.9,12 125.2,12 125.5,12 125.8,12 126.1,12 126.4,12 126.7,12 127,12 127.3,12 
	127.3,11.7 127.6,11.7 127.6,11.5 127.3,11.5 127,11.5 126.7,11.5 126.4,11.5 126.1,11.5 125.8,11.5 125.5,11.5 125.2,11.5 
	124.9,11.5 124.6,11.5 124.3,11.5 124,11.5 123.7,11.5 123.4,11.5 123.1,11.5 122.8,11.5 122.5,11.5 122.2,11.5 121.9,11.4 
	121.6,11.4 121.3,11.4 121,11.4 120.7,11.4 120.4,11.4 "/>
<polygon class="st0" points="121.3,11 121.6,11 121.9,11 122.2,11 122.5,11 122.8,11 123.1,11 123.4,11 123.7,11 124,11 124,10.7 
	124,10.5 124,10.2 124,9.9 124,9.7 124,9.4 124,9.2 124,8.9 124,8.6 124,8.4 123.7,8.4 123.7,8.1 123.7,7.9 123.7,7.6 123.4,7.6 
	123.1,7.6 123.1,7.3 123.1,7.1 123.1,6.8 123.1,6.6 122.8,6.6 122.8,6.3 122.8,6.1 122.8,5.8 122.5,5.8 122.2,5.8 121.9,5.8 
	121.9,6 121.9,6.3 121.9,6.6 121.6,6.6 121.6,6.8 121.6,7.1 121.6,7.3 121.6,7.6 121.3,7.6 121,7.6 121,7.9 121,8.1 121,8.4 
	120.7,8.4 120.7,8.6 120.7,8.9 120.7,9.1 120.7,9.4 120.7,9.7 120.7,9.9 120.7,10.2 120.7,10.4 120.7,10.7 120.7,11 121,11 "/>
<polygon class="st0" points="116.2,9.6 116.2,9.9 116.2,10.2 116.2,10.4 116.5,10.4 116.5,10.7 116.5,10.9 116.8,10.9 117.1,10.9 
	117.4,10.9 117.7,10.9 118,10.9 118.3,10.9 118.6,11 118.9,11 119.2,11 119.5,11 119.8,11 120.1,11 120.4,11 120.4,10.7 120.1,10.7 
	119.8,10.7 119.8,10.4 119.8,10.2 119.8,9.9 119.5,9.9 119.2,9.9 119.2,9.7 119.2,9.4 118.9,9.4 118.6,9.4 118.6,9.1 118.6,8.9 
	118.3,8.9 118,8.9 117.7,8.9 117.7,8.6 117.4,8.6 117.1,8.6 117.1,8.4 117.1,8.1 116.8,8.1 116.5,8.1 116.2,8.1 116.2,7.8 
	115.9,7.8 115.9,8.1 115.9,8.3 115.9,8.6 115.9,8.9 115.9,9.1 115.9,9.4 116.2,9.4 "/>
<rect x="116.2" y="7.8" transform="matrix(4.874028e-03 -1 1 4.874028e-03 107.7997 124.2488)" class="st0" width="0.3" height="0.3"/>
<polygon class="st0" points="128.2,7.9 128.2,8.2 127.9,8.1 127.6,8.1 127.3,8.1 127.3,8.4 127,8.4 126.7,8.4 126.7,8.7 126.7,8.9 
	126.4,8.9 126.1,8.9 125.8,8.9 125.8,9.2 125.8,9.4 125.5,9.4 125.2,9.4 125.2,9.7 125.2,9.9 124.9,9.9 124.6,9.9 124.6,10.2 
	124.6,10.5 124.6,10.7 124.3,10.7 124.3,11 124.6,11 124.9,11 125.2,11 125.5,11 125.8,11 126.1,11 126.4,11 126.7,11 127,11 
	127.3,11 127.6,11 127.9,11 127.9,10.7 127.9,10.5 128.2,10.5 128.2,10.2 128.2,10 128.5,10 128.5,9.7 128.5,9.4 128.5,9.2 
	128.8,9.2 128.8,8.9 128.8,8.7 128.8,8.4 128.8,8.2 128.8,7.9 128.5,7.9 "/>
<polygon class="st0" points="142.1,14.6 142.4,14.6 142.7,14.6 142.7,14.3 142.7,14 143,14 143,13.8 143,13.5 142.7,13.5 
	142.4,13.5 142.1,13.5 141.8,13.5 141.8,13.8 141.8,14 142.1,14 142.1,14.3 "/>
<polygon class="st0" points="140.9,14.6 141.2,14.6 141.5,14.6 141.5,14.3 141.5,14 141.5,13.8 141.5,13.5 141.2,13.5 140.9,13.5 
	140.6,13.5 140.3,13.5 140,13.5 139.7,13.5 139.4,13.5 139.1,13.5 138.8,13.5 138.8,13.8 139.1,13.8 139.4,13.8 139.7,13.8 
	140,13.8 140,14 140,14.3 140.3,14.3 140.6,14.3 140.6,14.5 "/>
<polygon class="st0" points="144.8,14.3 144.8,14.1 144.8,13.8 145.1,13.8 145.4,13.8 145.7,13.8 146.1,13.8 146.1,13.5 145.8,13.5 
	145.5,13.5 145.2,13.5 144.8,13.5 144.5,13.5 144.2,13.5 143.9,13.5 143.6,13.5 143.3,13.5 143.3,13.8 143.3,14 143.3,14.3 
	143.3,14.6 143.6,14.6 143.9,14.6 144.2,14.6 144.2,14.3 144.5,14.3 "/>
<polygon class="st0" points="146.4,13 146.7,13 147,13 147,12.8 147.3,12.8 147.3,12.5 147,12.5 146.7,12.5 146.4,12.5 146.1,12.5 
	145.8,12.5 145.5,12.5 145.2,12.5 144.9,12.5 144.6,12.5 144.3,12.5 144,12.5 143.7,12.5 143.4,12.5 143.1,12.5 142.8,12.5 
	142.5,12.5 142.2,12.5 141.8,12.5 141.5,12.5 141.2,12.5 140.9,12.5 140.6,12.5 140.3,12.5 140,12.5 139.7,12.5 139.4,12.5 
	139.1,12.5 138.8,12.5 138.5,12.5 138.2,12.5 137.9,12.5 137.9,12.7 137.9,13 138.2,13 138.5,13 138.8,13 139.1,13 139.4,13 
	139.7,13 140,13 140.3,13 140.6,13 140.9,13 141.2,13 141.5,13 141.8,13 142.1,13 142.4,13 142.7,13 143,13 143.3,13 143.7,13 
	144,13 144.3,13 144.6,13 144.9,13 145.2,13 145.5,13 145.8,13 146.1,13 "/>
<polygon class="st0" points="140.4,11.4 140.1,11.4 139.8,11.4 139.5,11.4 139.1,11.4 138.8,11.4 138.5,11.4 138.2,11.4 137.9,11.4 
	137.6,11.4 137.3,11.4 137,11.4 137,11.7 137.3,11.7 137.3,11.9 137.6,11.9 137.9,11.9 138.2,11.9 138.5,11.9 138.8,12 139.1,12 
	139.4,12 139.7,12 140,12 140.3,12 140.6,12 141,12 141.3,12 141.6,12 141.9,12 142.2,12 142.5,12 142.8,12 143.1,12 143.4,12 
	143.7,12 144,12 144.3,12 144.6,12 144.9,12 145.2,12 145.5,12 145.8,12 146.1,12 146.4,12 146.7,12 147,12 147.3,12 147.6,12 
	147.6,11.7 147.9,11.7 147.9,11.5 147.6,11.5 147.3,11.5 147,11.5 146.7,11.5 146.4,11.5 146.1,11.5 145.8,11.5 145.5,11.5 
	145.2,11.5 144.9,11.5 144.6,11.5 144.3,11.5 144,11.5 143.7,11.5 143.4,11.5 143.1,11.5 142.8,11.5 142.5,11.5 142.2,11.4 
	141.9,11.4 141.6,11.4 141.3,11.4 141,11.4 140.7,11.4 "/>
<polygon class="st0" points="141.6,11 141.9,11 142.2,11 142.5,11 142.8,11 143.1,11 143.4,11 143.7,11 144,11 144.3,11 144.3,10.7 
	144.3,10.5 144.3,10.2 144.3,9.9 144.3,9.7 144.3,9.4 144.3,9.2 144.3,8.9 144.3,8.6 144.3,8.4 144,8.4 144,8.1 144,7.9 144,7.6 
	143.7,7.6 143.4,7.6 143.4,7.3 143.4,7.1 143.4,6.8 143.4,6.6 143.1,6.6 143.1,6.3 143.1,6.1 143.1,5.8 142.8,5.8 142.5,5.8 
	142.2,5.8 142.2,6 142.2,6.3 142.2,6.6 141.9,6.6 141.9,6.8 141.9,7.1 141.9,7.3 141.9,7.6 141.6,7.6 141.3,7.6 141.3,7.9 
	141.3,8.1 141.3,8.4 141,8.4 141,8.6 141,8.9 141,9.1 141,9.4 141,9.7 141,9.9 141,10.2 141,10.4 141,10.7 141,11 141.3,11 "/>
<polygon class="st0" points="136.5,9.6 136.5,9.9 136.5,10.2 136.5,10.4 136.8,10.4 136.7,10.7 136.7,10.9 137,10.9 137.3,10.9 
	137.6,10.9 138,10.9 138.3,10.9 138.6,10.9 138.9,11 139.2,11 139.5,11 139.8,11 140.1,11 140.4,11 140.7,11 140.7,10.7 140.4,10.7 
	140.1,10.7 140.1,10.4 140.1,10.2 140.1,9.9 139.8,9.9 139.5,9.9 139.5,9.7 139.5,9.4 139.2,9.4 138.9,9.4 138.9,9.1 138.9,8.9 
	138.6,8.9 138.3,8.9 138,8.9 138,8.6 137.7,8.6 137.4,8.6 137.4,8.4 137.4,8.1 137.1,8.1 136.8,8.1 136.5,8.1 136.5,7.8 136.2,7.8 
	136.2,8.1 136.2,8.3 136.2,8.6 136.2,8.9 136.2,9.1 136.2,9.4 136.5,9.4 "/>
<rect x="136.5" y="7.8" transform="matrix(4.874028e-03 -1 1 4.874028e-03 127.9874 144.5352)" class="st0" width="0.3" height="0.3"/>
<polygon class="st0" points="148.5,7.9 148.5,8.2 148.2,8.1 147.9,8.1 147.6,8.1 147.6,8.4 147.3,8.4 147,8.4 147,8.7 147,8.9 
	146.7,8.9 146.4,8.9 146.1,8.9 146.1,9.2 146.1,9.4 145.8,9.4 145.5,9.4 145.5,9.7 145.5,9.9 145.2,9.9 144.9,9.9 144.9,10.2 
	144.9,10.5 144.9,10.7 144.6,10.7 144.6,11 144.9,11 145.2,11 145.5,11 145.8,11 146.1,11 146.4,11 146.7,11 147,11 147.3,11 
	147.6,11 147.9,11 148.2,11 148.2,10.7 148.2,10.5 148.5,10.5 148.5,10.2 148.5,10 148.8,10 148.8,9.7 148.8,9.4 148.8,9.2 
	149.1,9.2 149.1,8.9 149.1,8.7 149.1,8.4 149.1,8.2 149.1,7.9 148.8,7.9 "/>
<polygon class="st0" points="101.6,14.6 101.9,14.6 102.2,14.6 102.2,14.3 102.2,14 102.5,14 102.5,13.8 102.5,13.5 102.2,13.5 
	101.9,13.5 101.6,13.5 101.3,13.5 101.3,13.8 101.3,14 101.6,14 101.6,14.3 "/>
<polygon class="st0" points="100.4,14.6 100.7,14.6 101,14.6 101,14.3 101,14 101,13.8 101,13.5 100.7,13.5 100.4,13.5 100.1,13.5 
	99.8,13.5 99.5,13.5 99.2,13.5 98.9,13.5 98.6,13.5 98.3,13.5 98.3,13.8 98.6,13.8 98.9,13.8 99.2,13.8 99.5,13.8 99.5,14 
	99.5,14.3 99.8,14.3 100.1,14.3 100.1,14.5 "/>
<polygon class="st0" points="104.3,14.3 104.3,14.1 104.3,13.8 104.6,13.8 104.9,13.8 105.2,13.8 105.5,13.8 105.5,13.5 105.2,13.5 
	104.9,13.5 104.6,13.5 104.3,13.5 104,13.5 103.7,13.5 103.4,13.5 103.1,13.5 102.8,13.5 102.8,13.8 102.8,14 102.8,14.3 
	102.8,14.6 103.1,14.6 103.4,14.6 103.7,14.6 103.7,14.3 104,14.3 "/>
<polygon class="st0" points="105.8,13 106.1,13 106.4,13 106.4,12.8 106.7,12.8 106.7,12.5 106.4,12.5 106.1,12.5 105.8,12.5 
	105.5,12.5 105.2,12.5 104.9,12.5 104.6,12.5 104.3,12.5 104,12.5 103.7,12.5 103.4,12.5 103.1,12.5 102.8,12.5 102.5,12.5 
	102.2,12.5 101.9,12.5 101.6,12.5 101.3,12.5 101,12.5 100.7,12.5 100.4,12.5 100.1,12.5 99.8,12.5 99.5,12.5 99.2,12.5 98.9,12.5 
	98.6,12.5 98.3,12.5 98,12.5 97.7,12.5 97.4,12.5 97.4,12.7 97.4,13 97.7,13 98,13 98.3,13 98.6,13 98.9,13 99.2,13 99.5,13 
	99.8,13 100.1,13 100.4,13 100.7,13 101,13 101.3,13 101.6,13 101.9,13 102.2,13 102.5,13 102.8,13 103.1,13 103.4,13 103.7,13 
	104,13 104.3,13 104.6,13 104.9,13 105.2,13 105.5,13 "/>
<polygon class="st0" points="99.8,11.4 99.5,11.4 99.2,11.4 98.9,11.4 98.6,11.4 98.3,11.4 98,11.4 97.7,11.4 97.4,11.4 97.1,11.4 
	96.8,11.4 96.5,11.4 96.5,11.7 96.8,11.7 96.8,11.9 97.1,11.9 97.4,11.9 97.7,11.9 98,11.9 98.3,12 98.6,12 98.9,12 99.2,12 
	99.5,12 99.8,12 100.1,12 100.4,12 100.7,12 101,12 101.3,12 101.6,12 101.9,12 102.2,12 102.5,12 102.8,12 103.1,12 103.4,12 
	103.7,12 104,12 104.3,12 104.6,12 104.9,12 105.2,12 105.5,12 105.8,12 106.1,12 106.4,12 106.7,12 107,12 107,11.7 107.3,11.7 
	107.3,11.5 107,11.5 106.7,11.5 106.4,11.5 106.1,11.5 105.8,11.5 105.5,11.5 105.2,11.5 104.9,11.5 104.6,11.5 104.3,11.5 
	104,11.5 103.7,11.5 103.4,11.5 103.1,11.5 102.8,11.5 102.5,11.5 102.2,11.5 101.9,11.5 101.6,11.4 101.3,11.4 101,11.4 
	100.7,11.4 100.4,11.4 100.1,11.4 "/>
<polygon class="st0" points="101,11 101.3,11 101.6,11 101.9,11 102.2,11 102.5,11 102.8,11 103.1,11 103.4,11 103.7,11 103.7,10.7 
	103.7,10.5 103.7,10.2 103.7,9.9 103.7,9.7 103.7,9.4 103.7,9.2 103.7,8.9 103.7,8.6 103.7,8.4 103.4,8.4 103.4,8.1 103.4,7.9 
	103.4,7.6 103.1,7.6 102.8,7.6 102.8,7.3 102.8,7.1 102.8,6.8 102.8,6.6 102.5,6.6 102.5,6.3 102.5,6.1 102.5,5.8 102.2,5.8 
	101.9,5.8 101.6,5.8 101.6,6 101.6,6.3 101.6,6.6 101.3,6.6 101.3,6.8 101.3,7.1 101.3,7.3 101.3,7.6 101,7.6 100.7,7.6 100.7,7.9 
	100.7,8.1 100.7,8.4 100.4,8.4 100.4,8.6 100.4,8.9 100.4,9.1 100.4,9.4 100.4,9.7 100.4,9.9 100.4,10.2 100.4,10.4 100.4,10.7 
	100.4,11 100.7,11 "/>
<polygon class="st0" points="95.9,9.6 95.9,9.9 95.9,10.2 95.9,10.4 96.2,10.4 96.2,10.7 96.2,10.9 96.5,10.9 96.8,10.9 97.1,10.9 
	97.4,10.9 97.7,10.9 98,10.9 98.3,11 98.6,11 98.9,11 99.2,11 99.5,11 99.8,11 100.1,11 100.1,10.7 99.8,10.7 99.5,10.7 99.5,10.4 
	99.5,10.2 99.5,9.9 99.2,9.9 98.9,9.9 98.9,9.7 98.9,9.4 98.6,9.4 98.3,9.4 98.3,9.1 98.3,8.9 98,8.9 97.7,8.9 97.4,8.9 97.4,8.6 
	97.1,8.6 96.8,8.6 96.8,8.4 96.8,8.1 96.5,8.1 96.2,8.1 95.9,8.1 95.9,7.8 95.6,7.8 95.6,8.1 95.6,8.3 95.6,8.6 95.6,8.9 95.6,9.1 
	95.6,9.4 95.9,9.4 "/>
<rect x="95.9" y="7.8" transform="matrix(4.874028e-03 -1 1 4.874028e-03 87.612 103.9625)" class="st0" width="0.3" height="0.3"/>
<polygon class="st0" points="107.9,7.9 107.9,8.2 107.6,8.1 107.3,8.1 107,8.1 107,8.4 106.7,8.4 106.4,8.4 106.4,8.7 106.4,8.9 
	106.1,8.9 105.8,8.9 105.5,8.9 105.5,9.2 105.5,9.4 105.2,9.4 104.9,9.4 104.9,9.7 104.9,9.9 104.6,9.9 104.3,9.9 104.3,10.2 
	104.3,10.5 104.3,10.7 104,10.7 104,11 104.3,11 104.6,11 104.9,11 105.2,11 105.5,11 105.8,11 106.1,11 106.4,11 106.7,11 107,11 
	107.3,11 107.6,11 107.6,10.7 107.6,10.5 107.9,10.5 107.9,10.2 107.9,10 108.2,10 108.2,9.7 108.2,9.4 108.2,9.2 108.5,9.2 
	108.5,8.9 108.5,8.7 108.5,8.4 108.5,8.2 108.5,7.9 108.2,7.9 "/>
<rect x="4.5" y="5.9" transform="matrix(1.835140e-03 -1 1 1.835140e-03 -1.3541 10.7968)" class="st0" width="0.5" height="0.4"/>
<rect x="3.7" y="5.9" transform="matrix(2.007132e-03 -1 1 2.007132e-03 -2.1497 9.9959)" class="st0" width="0.5" height="0.4"/>
<path class="st0" d="M1.3,11.8l0,0.5l0.4,0l0.4,0l0,0.5l0.4,0l0,1.6l0.4,0l0.4,0l0.4,0l0.4,0l0.4,0l0.4,0l0.4,0l0.4,0l0.4,0l0.4,0
	l0.4,0l0-0.5l0.4,0l0.4,0l0-0.5l0.4,0l0-0.5l0.4,0l0.4,0l0-0.5l0.4,0l0.4,0l0-0.5l0.4,0l0-0.5l0.4,0l0-0.5l0-0.5l0-0.5l-0.4,0l0-0.5
	l0-0.5l0-0.5l0-0.5l0.4,0l0-0.5l0-0.5l0-0.5l0-0.5l0-0.5l-0.4,0l0-0.5l0-0.5l-0.4,0l0-0.5l0-0.5l-0.4,0l0-0.5L8.9,2l0-0.5l-0.4,0
	l0-0.5l-0.4,0l-0.4,0l-0.4,0l0-0.5l-0.4,0l-0.4,0l-0.4,0l-0.4,0l-0.4,0l-0.4,0l-0.4,0l-0.4,0l0,0.5l-0.4,0l-0.4,0l-0.4,0l0,0.5
	l-0.4,0l0,0.5L2.1,2l0,0.5l0,0.5l-0.4,0l-0.4,0l0,0.5l0,0.5l0,0.5l-0.4,0l0,0.5l0,0.5l0,0.5l0,0.5l0,0.5l0,0.5l0,0.5l0,0.5l0,0.5
	l0.4,0l0,0.5l-0.4,0l0,0.5l0,0.5l0.4,0L1.3,11.8z M6.1,6.9l-0.4,0l-0.4,0l-0.4,0l0,0.5l0,0.5L4.5,8L4.1,8L3.7,8l0-0.5l-0.4,0l0-0.5
	l0-0.5l0-0.5l0.4,0l0-0.5l0.4,0l0.4,0l0.4,0l0.4,0l0,0.5l0.4,0l0,0.5l0.4,0L6.1,6.9z M2.5,4.2l0-0.5l0.4,0l0-0.5l0.4,0l0.4,0l0.4,0
	l0.4,0l0.4,0l0.4,0l0.4,0l0.4,0l0.4,0l0,0.5l0.4,0l0,0.5l-0.4,0l-0.4,0l0,0.5l-0.4,0l-0.4,0l-0.4,0l-0.4,0l-0.4,0l-0.4,0l-0.4,0
	l-0.4,0l-0.4,0L2.5,4.2z M2.5,5.8l0-0.5l0.4,0l0,0.5l0,0.5l-0.4,0L2.5,5.8z"/>
<polygon class="st0" points="44.1,14.6 44.4,14.6 44.7,14.6 44.8,14.3 44.8,14 45.1,14 45.1,13.8 45.1,13.5 44.8,13.5 44.5,13.5 
	44.2,13.5 43.9,13.5 43.9,13.8 43.8,14 44.2,14 44.1,14.3 "/>
<polygon class="st0" points="42.9,14.6 43.2,14.6 43.5,14.6 43.5,14.3 43.5,14 43.6,13.8 43.6,13.5 43.3,13.5 43,13.5 42.7,13.5 
	42.3,13.5 42,13.5 41.7,13.5 41.4,13.5 41.1,13.5 40.8,13.5 40.8,13.8 41.1,13.8 41.4,13.8 41.7,13.8 42,13.8 42,14 42,14.3 
	42.3,14.3 42.6,14.3 42.6,14.5 "/>
<polygon class="st0" points="46.9,14.3 46.9,14.1 46.9,13.8 47.2,13.8 47.5,13.8 47.8,13.8 48.1,13.8 48.1,13.5 47.8,13.5 
	47.5,13.5 47.2,13.5 46.9,13.5 46.6,13.5 46.3,13.5 46,13.5 45.7,13.5 45.4,13.5 45.4,13.8 45.4,14 45.4,14.3 45.3,14.6 45.7,14.6 
	46,14.6 46.3,14.6 46.3,14.3 46.6,14.3 "/>
<polygon class="st0" points="48.4,13 48.7,13 49,13 49,12.8 49.3,12.8 49.3,12.5 49,12.5 48.7,12.5 48.4,12.5 48.1,12.5 47.8,12.5 
	47.5,12.5 47.2,12.5 46.9,12.5 46.6,12.5 46.3,12.5 46,12.5 45.7,12.5 45.4,12.5 45.1,12.5 44.8,12.5 44.5,12.5 44.2,12.5 
	43.9,12.5 43.6,12.5 43.3,12.5 43,12.5 42.7,12.5 42.4,12.5 42.1,12.5 41.8,12.5 41.5,12.5 41.2,12.5 40.9,12.5 40.6,12.5 
	40.3,12.5 40,12.5 39.9,12.7 39.9,13 40.2,13 40.5,13 40.8,13 41.2,13 41.5,13 41.8,13 42.1,13 42.4,13 42.7,13 43,13 43.3,13 
	43.6,13 43.9,13 44.2,13 44.5,13 44.8,13 45.1,13 45.4,13 45.7,13 46,13 46.3,13 46.6,13 46.9,13 47.2,13 47.5,13 47.8,13 48.1,13 
	"/>
<polygon class="st0" points="42.4,11.4 42.1,11.4 41.8,11.4 41.5,11.4 41.2,11.4 40.9,11.4 40.6,11.4 40.3,11.4 40,11.4 39.7,11.4 
	39.4,11.4 39.1,11.4 39.1,11.7 39.4,11.7 39.4,11.9 39.7,11.9 40,11.9 40.3,11.9 40.6,11.9 40.9,12 41.2,12 41.5,12 41.8,12 
	42.1,12 42.4,12 42.7,12 43,12 43.3,12 43.6,12 43.9,12 44.2,12 44.5,12 44.8,12 45.1,12 45.4,12 45.7,12 46,12 46.3,12 46.6,12 
	46.9,12 47.2,12 47.5,12 47.8,12 48.1,12 48.4,12 48.7,12 49,12 49.3,12 49.6,12 49.6,11.7 49.9,11.7 49.9,11.5 49.6,11.5 
	49.3,11.5 49,11.5 48.7,11.5 48.4,11.5 48.1,11.5 47.8,11.5 47.5,11.5 47.2,11.5 46.9,11.5 46.6,11.5 46.3,11.5 46,11.5 45.7,11.5 
	45.4,11.5 45.1,11.5 44.8,11.5 44.5,11.5 44.2,11.4 43.9,11.4 43.6,11.4 43.3,11.4 43,11.4 42.7,11.4 "/>
<polygon class="st0" points="43.6,11 43.9,11 44.2,11 44.5,11 44.8,11 45.1,11 45.4,11 45.7,11 46,11 46.3,11 46.3,10.7 46.3,10.5 
	46.3,10.2 46.3,9.9 46.3,9.7 46.3,9.4 46.3,9.2 46.3,8.9 46.3,8.6 46.3,8.4 46,8.4 46,8.1 46,7.9 46,7.6 45.7,7.6 45.4,7.6 
	45.4,7.3 45.4,7.1 45.4,6.8 45.4,6.6 45.1,6.6 45.1,6.3 45.1,6.1 45.1,5.8 44.8,5.8 44.5,5.8 44.2,5.8 44.2,6 44.2,6.3 44.2,6.6 
	43.9,6.6 43.9,6.8 43.9,7.1 43.9,7.3 43.9,7.6 43.6,7.6 43.3,7.6 43.3,7.9 43.3,8.1 43.3,8.4 43,8.4 43,8.6 43,8.9 43,9.1 43,9.4 
	43,9.7 43,9.9 43,10.2 43,10.4 43,10.7 43,11 43.3,11 "/>
<polygon class="st0" points="38.5,9.6 38.5,9.9 38.5,10.2 38.5,10.4 38.8,10.4 38.8,10.7 38.8,10.9 39.1,10.9 39.4,10.9 39.7,10.9 
	40,10.9 40.3,10.9 40.6,10.9 40.9,11 41.2,11 41.5,11 41.8,11 42.1,11 42.4,11 42.7,11 42.7,10.7 42.4,10.7 42.1,10.7 42.1,10.4 
	42.1,10.2 42.1,9.9 41.8,9.9 41.5,9.9 41.5,9.7 41.5,9.4 41.2,9.4 40.9,9.4 40.9,9.1 40.9,8.9 40.6,8.9 40.3,8.9 40,8.9 40,8.6 
	39.7,8.6 39.4,8.6 39.4,8.4 39.4,8.1 39.1,8.1 38.8,8.1 38.5,8.1 38.5,7.8 38.2,7.8 38.2,8.1 38.2,8.3 38.2,8.6 38.2,8.9 38.2,9.1 
	38.2,9.4 38.5,9.4 "/>
<rect x="38.5" y="7.8" transform="matrix(4.874028e-03 -1 1 4.874028e-03 30.4732 46.5445)" class="st0" width="0.3" height="0.3"/>
<polygon class="st0" points="50.5,7.9 50.5,8.2 50.2,8.1 49.9,8.1 49.6,8.1 49.6,8.4 49.3,8.4 49,8.4 49,8.7 49,8.9 48.7,8.9 
	48.4,8.9 48.1,8.9 48.1,9.2 48.1,9.4 47.8,9.4 47.5,9.4 47.5,9.7 47.5,9.9 47.2,9.9 46.9,9.9 46.9,10.2 46.9,10.5 46.9,10.7 
	46.6,10.7 46.6,11 46.9,11 47.2,11 47.5,11 47.8,11 48.1,11 48.4,11 48.7,11 49,11 49.3,11 49.6,11 49.9,11 50.2,11 50.2,10.7 
	50.2,10.5 50.5,10.5 50.5,10.2 50.5,10 50.8,10 50.8,9.7 50.8,9.4 50.8,9.2 51.1,9.2 51.1,8.9 51.1,8.7 51.1,8.4 51.1,8.2 51.1,7.9 
	50.8,7.9 "/>
<polygon class="st0" points="64.4,14.6 64.7,14.6 65,14.6 65,14.3 65,14 65.3,14 65.3,13.8 65.3,13.5 65,13.5 64.7,13.5 64.4,13.5 
	64.1,13.5 64.1,13.8 64.1,14 64.4,14 64.4,14.3 "/>
<polygon class="st0" points="63.2,14.6 63.5,14.6 63.8,14.6 63.8,14.3 63.8,14 63.8,13.8 63.8,13.5 63.5,13.5 63.2,13.5 62.9,13.5 
	62.6,13.5 62.3,13.5 62,13.5 61.7,13.5 61.4,13.5 61.1,13.5 61.1,13.8 61.4,13.8 61.7,13.8 62,13.8 62.3,13.8 62.3,14 62.3,14.3 
	62.6,14.3 62.9,14.3 62.9,14.5 "/>
<polygon class="st0" points="67.1,14.3 67.1,14.1 67.1,13.8 67.4,13.8 67.7,13.8 68,13.8 68.3,13.8 68.3,13.5 68,13.5 67.7,13.5 
	67.4,13.5 67.1,13.5 66.8,13.5 66.5,13.5 66.2,13.5 65.9,13.5 65.6,13.5 65.6,13.8 65.6,14 65.6,14.3 65.6,14.6 65.9,14.6 
	66.2,14.6 66.5,14.6 66.5,14.3 66.8,14.3 "/>
<polygon class="st0" points="68.6,13 69,13 69.3,13 69.3,12.8 69.6,12.8 69.6,12.5 69.3,12.5 69,12.5 68.7,12.5 68.4,12.5 
	68.1,12.5 67.8,12.5 67.5,12.5 67.1,12.5 66.8,12.5 66.5,12.5 66.2,12.5 65.9,12.5 65.6,12.5 65.3,12.5 65,12.5 64.7,12.5 
	64.4,12.5 64.1,12.5 63.8,12.5 63.5,12.5 63.2,12.5 62.9,12.5 62.6,12.5 62.3,12.5 62,12.5 61.7,12.5 61.4,12.5 61.1,12.5 
	60.8,12.5 60.5,12.5 60.2,12.5 60.2,12.7 60.2,13 60.5,13 60.8,13 61.1,13 61.4,13 61.7,13 62,13 62.3,13 62.6,13 62.9,13 63.2,13 
	63.5,13 63.8,13 64.1,13 64.4,13 64.7,13 65,13 65.3,13 65.6,13 65.9,13 66.2,13 66.5,13 66.8,13 67.1,13 67.4,13 67.7,13 68,13 
	68.3,13 "/>
<polygon class="st0" points="62.6,11.4 62.3,11.4 62,11.4 61.7,11.4 61.4,11.4 61.1,11.4 60.8,11.4 60.5,11.4 60.2,11.4 59.9,11.4 
	59.6,11.4 59.3,11.4 59.3,11.7 59.6,11.7 59.6,11.9 59.9,11.9 60.2,11.9 60.5,11.9 60.8,11.9 61.1,12 61.4,12 61.7,12 62,12 
	62.3,12 62.6,12 62.9,12 63.2,12 63.5,12 63.8,12 64.1,12 64.4,12 64.7,12 65,12 65.3,12 65.6,12 66,12 66.3,12 66.6,12 66.9,12 
	67.2,12 67.5,12 67.8,12 68.1,12 68.4,12 68.7,12 69,12 69.3,12 69.6,12 69.9,12 69.9,11.7 70.2,11.7 70.2,11.5 69.9,11.5 
	69.6,11.5 69.3,11.5 69,11.5 68.7,11.5 68.4,11.5 68.1,11.5 67.8,11.5 67.5,11.5 67.2,11.5 66.9,11.5 66.6,11.5 66.3,11.5 66,11.5 
	65.7,11.5 65.4,11.5 65.1,11.5 64.8,11.5 64.4,11.4 64.1,11.4 63.8,11.4 63.5,11.4 63.2,11.4 62.9,11.4 "/>
<polygon class="st0" points="63.9,11 64.2,11 64.5,11 64.8,11 65.1,11 65.4,11 65.7,11 66,11 66.3,11 66.6,11 66.6,10.7 66.6,10.5 
	66.6,10.2 66.6,9.9 66.6,9.7 66.6,9.4 66.6,9.2 66.6,8.9 66.6,8.6 66.6,8.4 66.3,8.4 66.3,8.1 66.3,7.9 66.3,7.6 66,7.6 65.7,7.6 
	65.7,7.3 65.7,7.1 65.7,6.8 65.7,6.6 65.4,6.6 65.4,6.3 65.4,6.1 65.4,5.8 65.1,5.8 64.8,5.8 64.5,5.8 64.5,6 64.5,6.3 64.5,6.6 
	64.2,6.6 64.2,6.8 64.2,7.1 64.2,7.3 64.2,7.6 63.9,7.6 63.6,7.6 63.6,7.9 63.6,8.1 63.6,8.4 63.3,8.4 63.3,8.6 63.3,8.9 63.3,9.1 
	63.3,9.4 63.3,9.7 63.3,9.9 63.3,10.2 63.3,10.4 63.3,10.7 63.3,11 63.6,11 "/>
<polygon class="st0" points="58.7,9.6 58.7,9.9 58.7,10.2 58.7,10.4 59,10.4 59,10.7 59,10.9 59.3,10.9 59.6,10.9 59.9,10.9 
	60.2,10.9 60.5,10.9 60.8,10.9 61.1,11 61.4,11 61.7,11 62,11 62.3,11 62.6,11 62.9,11 63,10.7 62.7,10.7 62.3,10.7 62.4,10.4 
	62.4,10.2 62.4,9.9 62.1,9.9 61.8,9.9 61.8,9.7 61.8,9.4 61.5,9.4 61.2,9.4 61.2,9.1 61.2,8.9 60.9,8.9 60.6,8.9 60.3,8.9 60.3,8.6 
	60,8.6 59.7,8.6 59.7,8.4 59.7,8.1 59.4,8.1 59.1,8.1 58.8,8.1 58.8,7.8 58.5,7.8 58.5,8.1 58.5,8.3 58.5,8.6 58.5,8.9 58.5,9.1 
	58.4,9.4 58.8,9.4 "/>
<rect x="58.8" y="7.8" transform="matrix(4.874028e-03 -1 1 4.874028e-03 50.6609 66.8308)" class="st0" width="0.3" height="0.3"/>
<polygon class="st0" points="70.8,7.9 70.8,8.2 70.5,8.1 70.2,8.1 69.9,8.1 69.9,8.4 69.6,8.4 69.3,8.4 69.3,8.7 69.3,8.9 69,8.9 
	68.7,8.9 68.4,8.9 68.4,9.2 68.4,9.4 68.1,9.4 67.8,9.4 67.8,9.7 67.8,9.9 67.5,9.9 67.2,9.9 67.2,10.2 67.2,10.5 67.2,10.7 
	66.9,10.7 66.9,11 67.2,11 67.5,11 67.8,11 68.1,11 68.4,11 68.7,11 69,11 69.3,11 69.6,11 69.9,11 70.2,11 70.5,11 70.5,10.7 
	70.5,10.5 70.8,10.5 70.8,10.2 70.8,10 71.1,10 71.1,9.7 71.1,9.4 71.1,9.2 71.4,9.2 71.4,8.9 71.4,8.7 71.4,8.4 71.4,8.2 71.4,7.9 
	71.1,7.9 "/>
<polygon class="st0" points="23.9,14.6 24.2,14.6 24.5,14.6 24.5,14.3 24.5,14 24.8,14 24.8,13.8 24.8,13.5 24.5,13.5 24.2,13.5 
	23.9,13.5 23.6,13.5 23.6,13.8 23.6,14 23.9,14 23.9,14.3 "/>
<polygon class="st0" points="22.7,14.6 23,14.6 23.3,14.6 23.3,14.3 23.3,14 23.3,13.8 23.3,13.5 23,13.5 22.7,13.5 22.4,13.5 
	22.1,13.5 21.8,13.5 21.5,13.5 21.2,13.5 20.9,13.5 20.6,13.5 20.6,13.8 20.9,13.8 21.2,13.8 21.5,13.8 21.8,13.8 21.8,14 
	21.8,14.3 22.1,14.3 22.4,14.3 22.4,14.5 "/>
<polygon class="st0" points="26.6,14.3 26.6,14.1 26.6,13.8 26.9,13.8 27.2,13.8 27.5,13.8 27.8,13.8 27.8,13.5 27.5,13.5 
	27.2,13.5 26.9,13.5 26.6,13.5 26.3,13.5 26,13.5 25.7,13.5 25.4,13.5 25.1,13.5 25.1,13.8 25.1,14 25.1,14.3 25.1,14.6 25.4,14.6 
	25.7,14.6 26,14.6 26,14.3 26.3,14.3 "/>
<polygon class="st0" points="28.1,13 28.4,13 28.7,13 28.7,12.8 29,12.8 29,12.5 28.7,12.5 28.4,12.5 28.1,12.5 27.8,12.5 
	27.5,12.5 27.2,12.5 26.9,12.5 26.6,12.5 26.3,12.5 26,12.5 25.7,12.5 25.4,12.5 25.1,12.5 24.8,12.5 24.5,12.5 24.2,12.5 
	23.9,12.5 23.6,12.5 23.3,12.5 23,12.5 22.7,12.5 22.4,12.5 22.1,12.5 21.8,12.5 21.5,12.5 21.2,12.5 20.9,12.5 20.6,12.5 
	20.3,12.5 20,12.5 19.7,12.5 19.7,12.7 19.7,13 20,13 20.3,13 20.6,13 20.9,13 21.2,13 21.5,13 21.8,13 22.1,13 22.4,13 22.7,13 
	23,13 23.3,13 23.6,13 23.9,13 24.2,13 24.5,13 24.8,13 25.1,13 25.4,13 25.7,13 26,13 26.3,13 26.6,13 26.9,13 27.2,13 27.5,13 
	27.8,13 "/>
<polygon class="st0" points="22.1,11.4 21.8,11.4 21.5,11.4 21.2,11.4 20.9,11.4 20.6,11.4 20.3,11.4 20,11.4 19.7,11.4 19.4,11.4 
	19.1,11.4 18.8,11.4 18.8,11.7 19.1,11.7 19.1,11.9 19.4,11.9 19.7,11.9 20,11.9 20.3,11.9 20.6,12 20.9,12 21.2,12 21.5,12 
	21.8,12 22.1,12 22.4,12 22.7,12 23,12 23.3,12 23.6,12 23.9,12 24.2,12 24.5,12 24.8,12 25.1,12 25.4,12 25.7,12 26,12 26.3,12 
	26.6,12 26.9,12 27.2,12 27.5,12 27.8,12 28.1,12 28.4,12 28.7,12 29,12 29.3,12 29.3,11.7 29.6,11.7 29.6,11.5 29.3,11.5 29,11.5 
	28.7,11.5 28.4,11.5 28.1,11.5 27.8,11.5 27.5,11.5 27.2,11.5 26.9,11.5 26.6,11.5 26.3,11.5 26,11.5 25.7,11.5 25.4,11.5 
	25.1,11.5 24.8,11.5 24.5,11.5 24.2,11.5 23.9,11.4 23.6,11.4 23.3,11.4 23,11.4 22.7,11.4 22.4,11.4 "/>
<polygon class="st0" points="23.3,11 23.6,11 23.9,11 24.2,11 24.5,11 24.8,11 25.1,11 25.4,11 25.7,11 26,11 26,10.7 26,10.5 
	26,10.2 26,9.9 26,9.7 26,9.4 26,9.2 26,8.9 26,8.6 26,8.4 25.7,8.4 25.7,8.1 25.7,7.9 25.7,7.6 25.4,7.6 25.1,7.6 25.1,7.3 
	25.1,7.1 25.1,6.8 25.1,6.6 24.8,6.6 24.8,6.3 24.8,6.1 24.8,5.8 24.5,5.8 24.2,5.8 23.9,5.8 23.9,6 23.9,6.3 23.9,6.6 23.6,6.6 
	23.6,6.8 23.6,7.1 23.6,7.3 23.6,7.6 23.3,7.6 23,7.6 23,7.9 23,8.1 23,8.4 22.7,8.4 22.7,8.6 22.7,8.9 22.7,9.1 22.7,9.4 22.7,9.7 
	22.7,9.9 22.7,10.2 22.7,10.4 22.7,10.7 22.7,11 23,11 "/>
<polygon class="st0" points="18.2,9.6 18.2,9.9 18.2,10.2 18.2,10.4 18.5,10.4 18.5,10.7 18.5,10.9 18.8,10.9 19.1,10.9 19.4,10.9 
	19.7,10.9 20,10.9 20.3,10.9 20.6,11 20.9,11 21.2,11 21.5,11 21.8,11 22.1,11 22.4,11 22.4,10.7 22.1,10.7 21.8,10.7 21.8,10.4 
	21.8,10.2 21.8,9.9 21.5,9.9 21.2,9.9 21.2,9.7 21.2,9.4 20.9,9.4 20.6,9.4 20.6,9.1 20.6,8.9 20.3,8.9 20,8.9 19.7,8.9 19.7,8.6 
	19.4,8.6 19.1,8.6 19.1,8.4 19.1,8.1 18.8,8.1 18.5,8.1 18.2,8.1 18.2,7.8 17.9,7.8 17.9,8.1 17.9,8.3 17.9,8.6 17.9,8.9 17.9,9.1 
	17.9,9.4 18.2,9.4 "/>
<rect x="18.2" y="7.8" transform="matrix(4.874028e-03 -1 1 4.874028e-03 10.2855 26.2582)" class="st0" width="0.3" height="0.3"/>
<polygon class="st0" points="30.2,7.9 30.2,8.2 29.9,8.1 29.6,8.1 29.3,8.1 29.3,8.4 29,8.4 28.7,8.4 28.7,8.7 28.7,8.9 28.4,8.9 
	28.1,8.9 27.8,8.9 27.8,9.2 27.8,9.4 27.5,9.4 27.2,9.4 27.2,9.7 27.2,9.9 26.9,9.9 26.6,9.9 26.6,10.2 26.6,10.5 26.6,10.7 
	26.3,10.7 26.3,11 26.6,11 26.9,11 27.2,11 27.5,11 27.8,11 28.1,11 28.4,11 28.7,11 29,11 29.3,11 29.6,11 29.9,11 29.9,10.7 
	29.9,10.5 30.2,10.5 30.2,10.2 30.2,10 30.5,10 30.5,9.7 30.5,9.4 30.5,9.2 30.8,9.2 30.8,8.9 30.8,8.7 30.8,8.4 30.8,8.2 30.8,7.9 
	30.5,7.9 "/>
<rect x="470.7" y="5.9" transform="matrix(1.835140e-03 -1 1 1.835140e-03 464.0219 477.0276)" class="st0" width="0.5" height="0.4"/>
<rect x="469.9" y="5.9" transform="matrix(2.007132e-03 -1 1 2.007132e-03 463.146 476.2265)" class="st0" width="0.5" height="0.4"/>
<path class="st0" d="M467.6,11.8l0,0.5l0.4,0l0.4,0l0,0.5l0.4,0l0,1.6l0.4,0l0.4,0l0.4,0l0.4,0l0.4,0l0.4,0l0.4,0l0.4,0l0.4,0l0.4,0
	l0.4,0l0-0.5l0.4,0l0.4,0l0-0.5l0.4,0l0-0.5l0.4,0l0.4,0l0-0.5l0.4,0l0.4,0l0-0.5l0.4,0l0-0.5l0.4,0l0-0.5l0-0.5l0-0.5l-0.4,0l0-0.5
	l0-0.5l0-0.5l0-0.5l0.4,0l0-0.5l0-0.5l0-0.5l0-0.5l0-0.5l-0.4,0l0-0.5l0-0.5l-0.4,0l0-0.5l0-0.5l-0.4,0l0-0.5l-0.4,0l0-0.5l-0.4,0
	l0-0.5l-0.4,0l-0.4,0l-0.4,0l0-0.5l-0.4,0l-0.4,0l-0.4,0l-0.4,0l-0.4,0l-0.4,0l-0.4,0l-0.4,0l0,0.5l-0.4,0l-0.4,0l-0.4,0l0,0.5
	l-0.4,0l0,0.5l-0.4,0l0,0.5l0,0.5l-0.4,0l-0.4,0l0,0.5l0,0.5l0,0.5l-0.4,0l0,0.5l0,0.5l0,0.5l0,0.5l0,0.5l0,0.5l0,0.5l0,0.5l0,0.5
	l0.4,0l0,0.5l-0.4,0l0,0.5l0,0.5l0.4,0L467.6,11.8z M472.4,6.9l-0.4,0l-0.4,0l-0.4,0l0,0.5l0,0.5l-0.4,0l-0.4,0L470,8l0-0.5l-0.4,0
	l0-0.5l0-0.5l0-0.5l0.4,0l0-0.5l0.4,0l0.4,0l0.4,0l0.4,0l0,0.5l0.4,0l0,0.5l0.4,0L472.4,6.9z M468.8,4.2l0-0.5l0.4,0l0-0.5l0.4,0
	l0.4,0l0.4,0l0.4,0l0.4,0l0.4,0l0.4,0l0.4,0l0.4,0l0,0.5l0.4,0l0,0.5l-0.4,0l-0.4,0l0,0.5l-0.4,0l-0.4,0l-0.4,0l-0.4,0l-0.4,0
	l-0.4,0l-0.4,0l-0.4,0l-0.4,0L468.8,4.2z M468.8,5.8l0-0.5l0.4,0l0,0.5l0,0.5l-0.4,0L468.8,5.8z"/>
<rect x="393" y="5.9" transform="matrix(1.835140e-03 -1 1 1.835140e-03 386.4592 399.3224)" class="st0" width="0.5" height="0.4"/>
<rect x="392.2" y="5.9" transform="matrix(2.007132e-03 -1 1 2.007132e-03 385.5967 398.5214)" class="st0" width="0.5" height="0.4"/>
<path class="st0" d="M398.6,4.2l0-0.5l-0.4,0l0-0.5l0-0.5l-0.4,0l0-0.5l-0.4,0l0-0.5l-0.4,0l0-0.5l-0.4,0l-0.4,0l-0.4,0l0-0.5
	l-0.4,0l-0.4,0l-0.4,0l-0.4,0l-0.4,0l-0.4,0l-0.4,0l-0.4,0l0,0.5l-0.4,0l-0.4,0l-0.4,0l0,0.5l-0.4,0l0,0.5l-0.4,0l0,0.5l0,0.5
	l-0.4,0l-0.4,0l0,0.5l0,0.5l0,0.5l-0.4,0l0,0.5l0,0.5l0,0.5l0,0.5l0,0.5l0,0.5l0,0.5l0,0.5l0,0.5l0.4,0l0,0.5l-0.4,0l0,0.5l0,0.5
	l0.4,0l0,0.5l0,0.5l0.4,0l0.4,0l0,0.5l0.4,0l0,1.6l0.4,0l0.4,0l0.4,0l0.4,0l0.4,0l0.4,0l0.4,0l0.4,0l0.4,0l0.4,0l0.4,0l0-0.5l0.4,0
	l0.4,0l0-0.5l0.4,0l0-0.5l0.4,0l0.4,0l0-0.5l0.4,0l0.4,0l0-0.5l0.4,0l0-0.5l0.4,0l0-0.5l0-0.5l0-0.5l-0.4,0l0-0.5l0-0.5l0-0.5l0-0.5
	l0.4,0l0-0.5l0-0.5l0-0.5l0-0.5l0-0.5l-0.4,0L398.6,4.2z M391.5,5.8l0,0.5l-0.4,0l0-0.5l0-0.5l0.4,0L391.5,5.8z M394.7,6.9l-0.4,0
	l-0.4,0l-0.4,0l0,0.5l0,0.5l-0.4,0l-0.4,0l-0.4,0l0-0.5l-0.4,0l0-0.5l0-0.5l0-0.5l0.4,0l0-0.5l0.4,0l0.4,0l0.4,0l0.4,0l0,0.5l0.4,0
	l0,0.5l0.4,0L394.7,6.9z M395.5,4.2l-0.4,0l-0.4,0l0,0.5l-0.4,0l-0.4,0l-0.4,0l-0.4,0l-0.4,0l-0.4,0l-0.4,0l-0.4,0l-0.4,0l0-0.5
	l0-0.5l0.4,0l0-0.5l0.4,0l0.4,0l0.4,0l0.4,0l0.4,0l0.4,0l0.4,0l0.4,0l0.4,0l0,0.5l0.4,0L395.5,4.2z"/>
<polygon class="st0" points="432.7,14.6 433,14.6 433.3,14.6 433.3,14.3 433.3,14 433.6,14 433.6,13.8 433.6,13.5 433.3,13.5 
	433,13.5 432.7,13.5 432.4,13.5 432.4,13.8 432.4,14 432.7,14 432.7,14.3 "/>
<polygon class="st0" points="431.5,14.6 431.8,14.6 432.1,14.6 432.1,14.3 432.1,14 432.1,13.8 432.1,13.5 431.8,13.5 431.5,13.5 
	431.2,13.5 430.9,13.5 430.6,13.5 430.3,13.5 430,13.5 429.7,13.5 429.4,13.5 429.4,13.8 429.7,13.8 430,13.8 430.3,13.8 
	430.6,13.8 430.6,14 430.6,14.3 430.9,14.3 431.2,14.3 431.2,14.5 "/>
<polygon class="st0" points="435.4,14.3 435.4,14.1 435.4,13.8 435.7,13.8 436,13.8 436.3,13.8 436.6,13.8 436.6,13.5 436.3,13.5 
	436,13.5 435.7,13.5 435.4,13.5 435.1,13.5 434.8,13.5 434.5,13.5 434.2,13.5 433.9,13.5 433.9,13.8 433.9,14 433.9,14.3 
	433.9,14.6 434.2,14.6 434.5,14.6 434.8,14.6 434.8,14.3 435.1,14.3 "/>
<polygon class="st0" points="436.9,13 437.2,13 437.5,13 437.5,12.8 437.8,12.8 437.8,12.5 437.5,12.5 437.2,12.5 436.9,12.5 
	436.6,12.5 436.3,12.5 436,12.5 435.7,12.5 435.4,12.5 435.1,12.5 434.8,12.5 434.5,12.5 434.2,12.5 433.9,12.5 433.6,12.5 
	433.3,12.5 433,12.5 432.7,12.5 432.4,12.5 432.1,12.5 431.8,12.5 431.5,12.5 431.2,12.5 430.9,12.5 430.6,12.5 430.3,12.5 
	430,12.5 429.7,12.5 429.4,12.5 429.1,12.5 428.8,12.5 428.5,12.5 428.5,12.7 428.5,13 428.8,13 429.1,13 429.4,13 429.7,13 430,13 
	430.3,13 430.6,13 430.9,13 431.2,13 431.5,13 431.8,13 432.1,13 432.4,13 432.7,13 433,13 433.3,13 433.6,13 433.9,13 434.2,13 
	434.5,13 434.8,13 435.1,13 435.4,13 435.7,13 436,13 436.3,13 436.6,13 "/>
<polygon class="st0" points="430.9,11.4 430.6,11.4 430.3,11.4 430,11.4 429.7,11.4 429.4,11.4 429.1,11.4 428.8,11.4 428.5,11.4 
	428.2,11.4 427.9,11.4 427.6,11.4 427.6,11.7 427.9,11.7 427.9,11.9 428.2,11.9 428.5,11.9 428.8,11.9 429.1,11.9 429.4,12 
	429.7,12 430,12 430.3,12 430.6,12 430.9,12 431.2,12 431.5,12 431.8,12 432.1,12 432.4,12 432.7,12 433,12 433.3,12 433.6,12 
	433.9,12 434.2,12 434.5,12 434.8,12 435.1,12 435.4,12 435.7,12 436,12 436.3,12 436.6,12 436.9,12 437.2,12 437.5,12 437.8,12 
	438.1,12 438.1,11.7 438.4,11.7 438.4,11.5 438.1,11.5 437.8,11.5 437.5,11.5 437.2,11.5 436.9,11.5 436.6,11.5 436.3,11.5 
	436,11.5 435.7,11.5 435.4,11.5 435.1,11.5 434.8,11.5 434.5,11.5 434.2,11.5 433.9,11.5 433.6,11.5 433.3,11.5 433,11.5 
	432.7,11.4 432.4,11.4 432.1,11.4 431.8,11.4 431.5,11.4 431.2,11.4 "/>
<polygon class="st0" points="432.1,11 432.4,11 432.7,11 433,11 433.3,11 433.6,11 433.9,11 434.2,11 434.5,11 434.8,11 434.8,10.7 
	434.8,10.5 434.8,10.2 434.8,9.9 434.8,9.7 434.8,9.4 434.8,9.2 434.8,8.9 434.8,8.6 434.8,8.4 434.5,8.4 434.5,8.1 434.5,7.9 
	434.5,7.6 434.2,7.6 433.9,7.6 433.9,7.3 433.9,7.1 433.9,6.8 433.9,6.6 433.6,6.6 433.6,6.3 433.6,6.1 433.6,5.8 433.3,5.8 
	433,5.8 432.7,5.8 432.7,6 432.7,6.3 432.7,6.6 432.4,6.6 432.4,6.8 432.4,7.1 432.4,7.3 432.4,7.6 432.1,7.6 431.8,7.6 431.8,7.9 
	431.8,8.1 431.8,8.4 431.5,8.4 431.5,8.6 431.5,8.9 431.5,9.1 431.5,9.4 431.5,9.7 431.5,9.9 431.5,10.2 431.5,10.4 431.5,10.7 
	431.5,11 431.8,11 "/>
<polygon class="st0" points="427,9.6 427,9.9 427,10.2 427,10.4 427.3,10.4 427.3,10.7 427.3,10.9 427.6,10.9 427.9,10.9 
	428.2,10.9 428.5,10.9 428.8,10.9 429.1,10.9 429.4,11 429.7,11 430,11 430.3,11 430.6,11 430.9,11 431.2,11 431.2,10.7 430.9,10.7 
	430.6,10.7 430.6,10.4 430.6,10.2 430.6,9.9 430.3,9.9 430,9.9 430,9.7 430,9.4 429.7,9.4 429.4,9.4 429.4,9.1 429.4,8.9 429.1,8.9 
	428.8,8.9 428.5,8.9 428.5,8.6 428.2,8.6 427.9,8.6 427.9,8.4 427.9,8.1 427.6,8.1 427.3,8.1 427,8.1 427,7.8 426.7,7.8 426.7,8.1 
	426.7,8.3 426.7,8.6 426.7,8.9 426.7,9.1 426.7,9.4 427,9.4 "/>
<rect x="427" y="7.8" transform="matrix(4.874028e-03 -1 1 4.874028e-03 417.1058 435.0662)" class="st0" width="0.3" height="0.3"/>
<polygon class="st0" points="439,7.9 439,8.2 438.7,8.1 438.4,8.1 438.1,8.1 438.1,8.4 437.8,8.4 437.5,8.4 437.5,8.7 437.5,8.9 
	437.2,8.9 436.9,8.9 436.6,8.9 436.6,9.2 436.6,9.4 436.3,9.4 436,9.4 436,9.7 436,9.9 435.7,9.9 435.4,9.9 435.4,10.2 435.4,10.5 
	435.4,10.7 435.1,10.7 435.1,11 435.4,11 435.7,11 436,11 436.3,11 436.6,11 436.9,11 437.2,11 437.5,11 437.8,11 438.1,11 
	438.4,11 438.7,11 438.7,10.7 438.7,10.5 439,10.5 439,10.2 439,10 439.3,10 439.3,9.7 439.3,9.4 439.3,9.2 439.6,9.2 439.6,8.9 
	439.6,8.7 439.6,8.4 439.6,8.2 439.6,7.9 439.3,7.9 "/>
<polygon class="st0" points="453,14.6 453.3,14.6 453.6,14.6 453.6,14.3 453.6,14 453.9,14 453.9,13.8 453.9,13.5 453.6,13.5 
	453.3,13.5 453,13.5 452.7,13.5 452.7,13.8 452.7,14 453,14 453,14.3 "/>
<polygon class="st0" points="451.8,14.6 452.1,14.6 452.4,14.6 452.4,14.3 452.4,14 452.4,13.8 452.4,13.5 452.1,13.5 451.8,13.5 
	451.5,13.5 451.2,13.5 450.9,13.5 450.6,13.5 450.3,13.5 450,13.5 449.7,13.5 449.7,13.8 450,13.8 450.3,13.8 450.6,13.8 
	450.9,13.8 450.9,14 450.9,14.3 451.2,14.3 451.5,14.3 451.5,14.5 "/>
<polygon class="st0" points="455.7,14.3 455.7,14.1 455.7,13.8 456,13.8 456.3,13.8 456.6,13.8 456.9,13.8 456.9,13.5 456.6,13.5 
	456.3,13.5 456,13.5 455.7,13.5 455.4,13.5 455.1,13.5 454.8,13.5 454.5,13.5 454.2,13.5 454.2,13.8 454.2,14 454.2,14.3 
	454.2,14.6 454.5,14.6 454.8,14.6 455.1,14.6 455.1,14.3 455.4,14.3 "/>
<polygon class="st0" points="457.2,13 457.5,13 457.8,13 457.8,12.8 458.1,12.8 458.1,12.5 457.8,12.5 457.5,12.5 457.2,12.5 
	456.9,12.5 456.6,12.5 456.3,12.5 456,12.5 455.7,12.5 455.4,12.5 455.1,12.5 454.8,12.5 454.5,12.5 454.2,12.5 453.9,12.5 
	453.6,12.5 453.3,12.5 453,12.5 452.7,12.5 452.4,12.5 452.1,12.5 451.8,12.5 451.5,12.5 451.2,12.5 450.9,12.5 450.6,12.5 
	450.3,12.5 450,12.5 449.7,12.5 449.4,12.5 449.1,12.5 448.8,12.5 448.8,12.7 448.8,13 449.1,13 449.4,13 449.7,13 450,13 450.3,13 
	450.6,13 450.9,13 451.2,13 451.5,13 451.8,13 452.1,13 452.4,13 452.7,13 453,13 453.3,13 453.6,13 453.9,13 454.2,13 454.5,13 
	454.8,13 455.1,13 455.4,13 455.7,13 456,13 456.3,13 456.6,13 456.9,13 "/>
<polygon class="st0" points="451.2,11.4 450.9,11.4 450.6,11.4 450.3,11.4 450,11.4 449.7,11.4 449.4,11.4 449.1,11.4 448.8,11.4 
	448.5,11.4 448.2,11.4 447.9,11.4 447.9,11.7 448.2,11.7 448.2,11.9 448.5,11.9 448.8,11.9 449.1,11.9 449.4,11.9 449.7,12 450,12 
	450.3,12 450.6,12 450.9,12 451.2,12 451.5,12 451.8,12 452.1,12 452.4,12 452.7,12 453,12 453.3,12 453.6,12 453.9,12 454.2,12 
	454.5,12 454.8,12 455.1,12 455.4,12 455.7,12 456,12 456.3,12 456.6,12 456.9,12 457.2,12 457.5,12 457.8,12 458.1,12 458.4,12 
	458.4,11.7 458.7,11.7 458.7,11.5 458.4,11.5 458.1,11.5 457.8,11.5 457.5,11.5 457.2,11.5 456.9,11.5 456.6,11.5 456.3,11.5 
	456,11.5 455.7,11.5 455.4,11.5 455.1,11.5 454.8,11.5 454.5,11.5 454.2,11.5 453.9,11.5 453.6,11.5 453.3,11.5 453,11.4 
	452.7,11.4 452.4,11.4 452.1,11.4 451.8,11.4 451.5,11.4 "/>
<polygon class="st0" points="452.4,11 452.7,11 453,11 453.3,11 453.6,11 453.9,11 454.2,11 454.5,11 454.8,11 455.1,11 455.1,10.7 
	455.1,10.5 455.1,10.2 455.1,9.9 455.1,9.7 455.1,9.4 455.1,9.2 455.1,8.9 455.1,8.6 455.1,8.4 454.8,8.4 454.8,8.1 454.8,7.9 
	454.8,7.6 454.5,7.6 454.2,7.6 454.2,7.3 454.2,7.1 454.2,6.8 454.2,6.6 453.9,6.6 453.9,6.3 453.9,6.1 453.9,5.8 453.6,5.8 
	453.3,5.8 453,5.8 453,6 453,6.3 453,6.6 452.7,6.6 452.7,6.8 452.7,7.1 452.7,7.3 452.7,7.6 452.4,7.6 452.1,7.6 452.1,7.9 
	452.1,8.1 452.1,8.4 451.8,8.4 451.8,8.6 451.8,8.9 451.8,9.1 451.8,9.4 451.8,9.7 451.8,9.9 451.8,10.2 451.8,10.4 451.8,10.7 
	451.8,11 452.1,11 "/>
<polygon class="st0" points="447.3,9.6 447.3,9.9 447.3,10.2 447.3,10.4 447.6,10.4 447.6,10.7 447.6,10.9 447.9,10.9 448.2,10.9 
	448.5,10.9 448.8,10.9 449.1,10.9 449.4,10.9 449.7,11 450,11 450.3,11 450.6,11 450.9,11 451.2,11 451.5,11 451.5,10.7 451.2,10.7 
	450.9,10.7 450.9,10.4 450.9,10.2 450.9,9.9 450.6,9.9 450.3,9.9 450.3,9.7 450.3,9.4 450,9.4 449.7,9.4 449.7,9.1 449.7,8.9 
	449.4,8.9 449.1,8.9 448.8,8.9 448.8,8.6 448.5,8.6 448.2,8.6 448.2,8.4 448.2,8.1 447.9,8.1 447.6,8.1 447.3,8.1 447.3,7.8 
	447,7.8 447,8.1 447,8.3 447,8.6 447,8.9 447,9.1 447,9.4 447.3,9.4 "/>
<rect x="447.3" y="7.8" transform="matrix(4.874028e-03 -1 1 4.874028e-03 437.2935 455.3525)" class="st0" width="0.3" height="0.3"/>
<polygon class="st0" points="459.3,7.9 459.3,8.2 459,8.1 458.7,8.1 458.4,8.1 458.4,8.4 458.1,8.4 457.8,8.4 457.8,8.7 457.8,8.9 
	457.5,8.9 457.2,8.9 456.9,8.9 456.9,9.2 456.9,9.4 456.6,9.4 456.3,9.4 456.3,9.7 456.3,9.9 456,9.9 455.7,9.9 455.7,10.2 
	455.7,10.5 455.7,10.7 455.4,10.7 455.4,11 455.7,11 456,11 456.3,11 456.6,11 456.9,11 457.2,11 457.5,11 457.8,11 458.1,11 
	458.4,11 458.7,11 459,11 459,10.7 459,10.5 459.3,10.5 459.3,10.2 459.3,10 459.6,10 459.6,9.7 459.6,9.4 459.6,9.2 459.9,9.2 
	459.9,8.9 459.9,8.7 459.9,8.4 459.9,8.2 459.9,7.9 459.6,7.9 "/>
<polygon class="st0" points="412.4,14.6 412.7,14.6 413,14.6 413,14.3 413,14 413.3,14 413.3,13.8 413.3,13.5 413,13.5 412.7,13.5 
	412.4,13.5 412.1,13.5 412.1,13.8 412.1,14 412.4,14 412.4,14.3 "/>
<polygon class="st0" points="411.2,14.6 411.5,14.6 411.8,14.6 411.8,14.3 411.8,14 411.8,13.8 411.8,13.5 411.5,13.5 411.2,13.5 
	410.9,13.5 410.6,13.5 410.3,13.5 410,13.5 409.7,13.5 409.4,13.5 409.1,13.5 409.1,13.8 409.4,13.8 409.7,13.8 410,13.8 
	410.3,13.8 410.3,14 410.3,14.3 410.6,14.3 410.9,14.3 410.9,14.5 "/>
<polygon class="st0" points="415.1,14.3 415.1,14.1 415.1,13.8 415.4,13.8 415.7,13.8 416,13.8 416.3,13.8 416.3,13.5 416,13.5 
	415.7,13.5 415.4,13.5 415.1,13.5 414.8,13.5 414.5,13.5 414.2,13.5 413.9,13.5 413.6,13.5 413.6,13.8 413.6,14 413.6,14.3 
	413.6,14.6 413.9,14.6 414.2,14.6 414.5,14.6 414.5,14.3 414.8,14.3 "/>
<polygon class="st0" points="416.6,13 416.9,13 417.2,13 417.2,12.8 417.5,12.8 417.5,12.5 417.2,12.5 416.9,12.5 416.6,12.5 
	416.3,12.5 416,12.5 415.7,12.5 415.4,12.5 415.1,12.5 414.8,12.5 414.5,12.5 414.2,12.5 413.9,12.5 413.6,12.5 413.3,12.5 
	413,12.5 412.7,12.5 412.4,12.5 412.1,12.5 411.8,12.5 411.5,12.5 411.2,12.5 410.9,12.5 410.6,12.5 410.3,12.5 410,12.5 
	409.7,12.5 409.4,12.5 409.1,12.5 408.8,12.5 408.5,12.5 408.2,12.5 408.2,12.7 408.2,13 408.5,13 408.8,13 409.1,13 409.4,13 
	409.7,13 410,13 410.3,13 410.6,13 410.9,13 411.2,13 411.5,13 411.8,13 412.1,13 412.4,13 412.7,13 413,13 413.3,13 413.6,13 
	413.9,13 414.2,13 414.5,13 414.8,13 415.1,13 415.4,13 415.7,13 416,13 416.3,13 "/>
<polygon class="st0" points="410.6,11.4 410.3,11.4 410,11.4 409.7,11.4 409.4,11.4 409.1,11.4 408.8,11.4 408.5,11.4 408.2,11.4 
	407.9,11.4 407.6,11.4 407.3,11.4 407.3,11.7 407.6,11.7 407.6,11.9 407.9,11.9 408.2,11.9 408.5,11.9 408.8,11.9 409.1,12 
	409.4,12 409.7,12 410,12 410.3,12 410.6,12 410.9,12 411.2,12 411.5,12 411.8,12 412.1,12 412.4,12 412.7,12 413,12 413.3,12 
	413.6,12 413.9,12 414.2,12 414.5,12 414.8,12 415.1,12 415.4,12 415.7,12 416,12 416.3,12 416.6,12 416.9,12 417.2,12 417.5,12 
	417.8,12 417.8,11.7 418.1,11.7 418.1,11.5 417.8,11.5 417.5,11.5 417.2,11.5 416.9,11.5 416.6,11.5 416.3,11.5 416,11.5 
	415.7,11.5 415.4,11.5 415.1,11.5 414.8,11.5 414.5,11.5 414.2,11.5 413.9,11.5 413.6,11.5 413.3,11.5 413,11.5 412.7,11.5 
	412.4,11.4 412.1,11.4 411.8,11.4 411.5,11.4 411.2,11.4 410.9,11.4 "/>
<polygon class="st0" points="411.8,11 412.1,11 412.4,11 412.7,11 413,11 413.3,11 413.6,11 413.9,11 414.2,11 414.5,11 414.5,10.7 
	414.5,10.5 414.5,10.2 414.5,9.9 414.5,9.7 414.5,9.4 414.5,9.2 414.5,8.9 414.5,8.6 414.5,8.4 414.2,8.4 414.2,8.1 414.2,7.9 
	414.2,7.6 413.9,7.6 413.6,7.6 413.6,7.3 413.6,7.1 413.6,6.8 413.6,6.6 413.3,6.6 413.3,6.3 413.3,6.1 413.3,5.8 413,5.8 
	412.7,5.8 412.4,5.8 412.4,6 412.4,6.3 412.4,6.6 412.1,6.6 412.1,6.8 412.1,7.1 412.1,7.3 412.1,7.6 411.8,7.6 411.5,7.6 
	411.5,7.9 411.5,8.1 411.5,8.4 411.2,8.4 411.2,8.6 411.2,8.9 411.2,9.1 411.2,9.4 411.2,9.7 411.2,9.9 411.2,10.2 411.2,10.4 
	411.2,10.7 411.2,11 411.5,11 "/>
<polygon class="st0" points="406.7,9.6 406.7,9.9 406.7,10.2 406.7,10.4 407,10.4 407,10.7 407,10.9 407.3,10.9 407.6,10.9 
	407.9,10.9 408.2,10.9 408.5,10.9 408.8,10.9 409.1,11 409.4,11 409.7,11 410,11 410.3,11 410.6,11 410.9,11 410.9,10.7 410.6,10.7 
	410.3,10.7 410.3,10.4 410.3,10.2 410.3,9.9 410,9.9 409.7,9.9 409.7,9.7 409.7,9.4 409.4,9.4 409.1,9.4 409.1,9.1 409.1,8.9 
	408.8,8.9 408.5,8.9 408.2,8.9 408.2,8.6 407.9,8.6 407.6,8.6 407.6,8.4 407.6,8.1 407.3,8.1 407,8.1 406.7,8.1 406.7,7.8 
	406.4,7.8 406.4,8.1 406.4,8.3 406.4,8.6 406.4,8.9 406.4,9.1 406.4,9.4 406.7,9.4 "/>
<rect x="406.7" y="7.8" transform="matrix(4.874028e-03 -1 1 4.874028e-03 396.9181 414.7798)" class="st0" width="0.3" height="0.3"/>
<polygon class="st0" points="418.7,7.9 418.7,8.2 418.4,8.1 418.1,8.1 417.8,8.1 417.8,8.4 417.5,8.4 417.2,8.4 417.2,8.7 
	417.2,8.9 416.9,8.9 416.6,8.9 416.3,8.9 416.3,9.2 416.3,9.4 416,9.4 415.7,9.4 415.7,9.7 415.7,9.9 415.4,9.9 415.1,9.9 
	415.1,10.2 415.1,10.5 415.1,10.7 414.8,10.7 414.8,11 415.1,11 415.4,11 415.7,11 416,11 416.3,11 416.6,11 416.9,11 417.2,11 
	417.5,11 417.8,11 418.1,11 418.4,11 418.4,10.7 418.4,10.5 418.7,10.5 418.7,10.2 418.7,10 419,10 419,9.7 419,9.4 419,9.2 
	419.3,9.2 419.3,8.9 419.3,8.7 419.3,8.4 419.3,8.2 419.3,7.9 419,7.9 "/>
<rect x="315.3" y="5.9" transform="matrix(1.835140e-03 -1 1 1.835140e-03 308.8965 321.6173)" class="st0" width="0.5" height="0.4"/>
<rect x="314.5" y="5.9" transform="matrix(2.007132e-03 -1 1 2.007132e-03 308.0475 320.8163)" class="st0" width="0.5" height="0.4"/>
<path class="st0" d="M320.9,4.2l0-0.5l-0.4,0l0-0.5l0-0.5l-0.4,0l0-0.5l-0.4,0l0-0.5l-0.4,0l0-0.5l-0.4,0l-0.4,0l-0.4,0l0-0.5
	l-0.4,0l-0.4,0l-0.4,0l-0.4,0l-0.4,0l-0.4,0l-0.4,0l-0.4,0l0,0.5l-0.4,0l-0.4,0l-0.4,0l0,0.5l-0.4,0l0,0.5L313,2l0,0.5l0,0.5l-0.4,0
	l-0.4,0l0,0.5l0,0.5l0,0.5l-0.4,0l0,0.5l0,0.5l0,0.5l0,0.5l0,0.5l0,0.5l0,0.5l0,0.5l0,0.5l0.4,0l0,0.5l-0.4,0l0,0.5l0,0.5l0.4,0
	l0,0.5l0,0.5l0.4,0l0.4,0l0,0.5l0.4,0l0,1.6l0.4,0l0.4,0l0.4,0l0.4,0l0.4,0l0.4,0l0.4,0l0.4,0l0.4,0l0.4,0l0.4,0l0-0.5l0.4,0l0.4,0
	l0-0.5l0.4,0l0-0.5l0.4,0l0.4,0l0-0.5l0.4,0l0.4,0l0-0.5l0.4,0l0-0.5l0.4,0l0-0.5l0-0.5l0-0.5l-0.4,0l0-0.5l0-0.5l0-0.5l0-0.5l0.4,0
	l0-0.5l0-0.5l0-0.5l0-0.5l0-0.5l-0.4,0L320.9,4.2z M313.8,5.8l0,0.5l-0.4,0l0-0.5l0-0.5l0.4,0L313.8,5.8z M316.9,6.9l-0.4,0l-0.4,0
	l-0.4,0l0,0.5l0,0.5l-0.4,0l-0.4,0l-0.4,0l0-0.5l-0.4,0l0-0.5l0-0.5l0-0.5l0.4,0l0-0.5l0.4,0l0.4,0l0.4,0l0.4,0l0,0.5l0.4,0l0,0.5
	l0.4,0L316.9,6.9z M317.8,4.2l-0.4,0l-0.4,0l0,0.5l-0.4,0l-0.4,0l-0.4,0l-0.4,0l-0.4,0l-0.4,0l-0.4,0l-0.4,0l-0.4,0l0-0.5l0-0.5
	l0.4,0l0-0.5l0.4,0l0.4,0l0.4,0l0.4,0l0.4,0l0.4,0l0.4,0l0.4,0l0.4,0l0,0.5l0.4,0L317.8,4.2z"/>
<polygon class="st0" points="355,14.6 355.3,14.6 355.6,14.6 355.6,14.3 355.6,14 355.9,14 355.9,13.8 355.9,13.5 355.6,13.5 
	355.3,13.5 355,13.5 354.7,13.5 354.7,13.8 354.7,14 355,14 355,14.3 "/>
<polygon class="st0" points="353.8,14.6 354.1,14.6 354.4,14.6 354.4,14.3 354.4,14 354.4,13.8 354.4,13.5 354.1,13.5 353.8,13.5 
	353.5,13.5 353.2,13.5 352.9,13.5 352.6,13.5 352.3,13.5 352,13.5 351.7,13.5 351.7,13.8 352,13.8 352.3,13.8 352.6,13.8 
	352.9,13.8 352.9,14 352.9,14.3 353.2,14.3 353.5,14.3 353.5,14.5 "/>
<polygon class="st0" points="357.7,14.3 357.7,14.1 357.7,13.8 358,13.8 358.3,13.8 358.6,13.8 358.9,13.8 358.9,13.5 358.6,13.5 
	358.3,13.5 358,13.5 357.7,13.5 357.4,13.5 357.1,13.5 356.8,13.5 356.5,13.5 356.2,13.5 356.2,13.8 356.2,14 356.2,14.3 
	356.2,14.6 356.5,14.6 356.8,14.6 357.1,14.6 357.1,14.3 357.4,14.3 "/>
<polygon class="st0" points="359.2,13 359.5,13 359.8,13 359.8,12.8 360.1,12.8 360.1,12.5 359.8,12.5 359.5,12.5 359.2,12.5 
	358.9,12.5 358.6,12.5 358.3,12.5 358,12.5 357.7,12.5 357.4,12.5 357.1,12.5 356.8,12.5 356.5,12.5 356.2,12.5 355.9,12.5 
	355.6,12.5 355.3,12.5 355,12.5 354.7,12.5 354.4,12.5 354.1,12.5 353.8,12.5 353.5,12.5 353.2,12.5 352.9,12.5 352.6,12.5 
	352.3,12.5 352,12.5 351.7,12.5 351.4,12.5 351.1,12.5 350.8,12.5 350.8,12.7 350.8,13 351.1,13 351.4,13 351.7,13 352,13 352.3,13 
	352.6,13 352.9,13 353.2,13 353.5,13 353.8,13 354.1,13 354.4,13 354.7,13 355,13 355.3,13 355.6,13 355.9,13 356.2,13 356.5,13 
	356.8,13 357.1,13 357.4,13 357.7,13 358,13 358.3,13 358.6,13 358.9,13 "/>
<polygon class="st0" points="353.2,11.4 352.9,11.4 352.6,11.4 352.3,11.4 352,11.4 351.7,11.4 351.4,11.4 351.1,11.4 350.8,11.4 
	350.5,11.4 350.2,11.4 349.9,11.4 349.9,11.7 350.2,11.7 350.2,11.9 350.5,11.9 350.8,11.9 351.1,11.9 351.4,11.9 351.7,12 352,12 
	352.3,12 352.6,12 352.9,12 353.2,12 353.5,12 353.8,12 354.1,12 354.4,12 354.7,12 355,12 355.3,12 355.6,12 355.9,12 356.2,12 
	356.5,12 356.8,12 357.1,12 357.4,12 357.7,12 358,12 358.3,12 358.6,12 358.9,12 359.2,12 359.5,12 359.8,12 360.1,12 360.4,12 
	360.4,11.7 360.7,11.7 360.7,11.5 360.4,11.5 360.1,11.5 359.8,11.5 359.5,11.5 359.2,11.5 358.9,11.5 358.6,11.5 358.3,11.5 
	358,11.5 357.7,11.5 357.4,11.5 357.1,11.5 356.8,11.5 356.5,11.5 356.2,11.5 355.9,11.5 355.6,11.5 355.3,11.5 355,11.4 
	354.7,11.4 354.4,11.4 354.1,11.4 353.8,11.4 353.5,11.4 "/>
<polygon class="st0" points="354.4,11 354.7,11 355,11 355.3,11 355.6,11 355.9,11 356.2,11 356.5,11 356.8,11 357.1,11 357.1,10.7 
	357.1,10.5 357.1,10.2 357.1,9.9 357.1,9.7 357.1,9.4 357.1,9.2 357.1,8.9 357.1,8.6 357.1,8.4 356.8,8.4 356.8,8.1 356.8,7.9 
	356.8,7.6 356.5,7.6 356.2,7.6 356.2,7.3 356.2,7.1 356.2,6.8 356.2,6.6 355.9,6.6 355.9,6.3 355.9,6.1 355.9,5.8 355.6,5.8 
	355.3,5.8 355,5.8 355,6 355,6.3 355,6.6 354.7,6.6 354.7,6.8 354.7,7.1 354.7,7.3 354.7,7.6 354.4,7.6 354.1,7.6 354.1,7.9 
	354.1,8.1 354.1,8.4 353.8,8.4 353.8,8.6 353.8,8.9 353.8,9.1 353.8,9.4 353.8,9.7 353.8,9.9 353.8,10.2 353.8,10.4 353.8,10.7 
	353.8,11 354.1,11 "/>
<polygon class="st0" points="349.3,9.6 349.3,9.9 349.3,10.2 349.3,10.4 349.6,10.4 349.6,10.7 349.6,10.9 349.9,10.9 350.2,10.9 
	350.5,10.9 350.8,10.9 351.1,10.9 351.4,10.9 351.7,11 352,11 352.3,11 352.6,11 352.9,11 353.2,11 353.5,11 353.5,10.7 353.2,10.7 
	352.9,10.7 352.9,10.4 352.9,10.2 352.9,9.9 352.6,9.9 352.3,9.9 352.3,9.7 352.3,9.4 352,9.4 351.7,9.4 351.7,9.1 351.7,8.9 
	351.4,8.9 351.1,8.9 350.8,8.9 350.8,8.6 350.5,8.6 350.2,8.6 350.2,8.4 350.2,8.1 349.9,8.1 349.6,8.1 349.3,8.1 349.3,7.8 
	349,7.8 349,8.1 349,8.3 349,8.6 349,8.9 349,9.1 349,9.4 349.3,9.4 "/>
<rect x="349.3" y="7.8" transform="matrix(4.874028e-03 -1 1 4.874028e-03 339.7793 357.3618)" class="st0" width="0.3" height="0.3"/>
<polygon class="st0" points="361.3,7.9 361.3,8.2 361,8.1 360.7,8.1 360.4,8.1 360.4,8.4 360.1,8.4 359.8,8.4 359.8,8.7 359.8,8.9 
	359.5,8.9 359.2,8.9 358.9,8.9 358.9,9.2 358.9,9.4 358.6,9.4 358.3,9.4 358.3,9.7 358.3,9.9 358,9.9 357.7,9.9 357.7,10.2 
	357.7,10.5 357.7,10.7 357.4,10.7 357.4,11 357.7,11 358,11 358.3,11 358.6,11 358.9,11 359.2,11 359.5,11 359.8,11 360.1,11 
	360.4,11 360.7,11 361,11 361,10.7 361,10.5 361.3,10.5 361.3,10.2 361.3,10 361.6,10 361.6,9.7 361.6,9.4 361.6,9.2 361.9,9.2 
	361.9,8.9 361.9,8.7 361.9,8.4 361.9,8.2 361.9,7.9 361.6,7.9 "/>
<polygon class="st0" points="375.3,14.6 375.6,14.6 375.9,14.6 375.9,14.3 375.9,14 376.2,14 376.2,13.8 376.2,13.5 375.9,13.5 
	375.6,13.5 375.3,13.5 375,13.5 375,13.8 375,14 375.3,14 375.3,14.3 "/>
<polygon class="st0" points="374.1,14.6 374.4,14.6 374.7,14.6 374.7,14.3 374.7,14 374.7,13.8 374.7,13.5 374.4,13.5 374.1,13.5 
	373.8,13.5 373.5,13.5 373.2,13.5 372.9,13.5 372.6,13.5 372.3,13.5 372,13.5 372,13.8 372.3,13.8 372.6,13.8 372.9,13.8 
	373.2,13.8 373.2,14 373.2,14.3 373.5,14.3 373.8,14.3 373.8,14.5 "/>
<polygon class="st0" points="378,14.3 378,14.1 378,13.8 378.3,13.8 378.6,13.8 378.9,13.8 379.2,13.8 379.2,13.5 378.9,13.5 
	378.6,13.5 378.3,13.5 378,13.5 377.7,13.5 377.4,13.5 377.1,13.5 376.8,13.5 376.5,13.5 376.5,13.8 376.5,14 376.5,14.3 
	376.5,14.6 376.8,14.6 377.1,14.6 377.4,14.6 377.4,14.3 377.7,14.3 "/>
<polygon class="st0" points="379.5,13 379.8,13 380.1,13 380.1,12.8 380.4,12.8 380.4,12.5 380.1,12.5 379.8,12.5 379.5,12.5 
	379.2,12.5 378.9,12.5 378.6,12.5 378.3,12.5 378,12.5 377.7,12.5 377.4,12.5 377.1,12.5 376.8,12.5 376.5,12.5 376.2,12.5 
	375.9,12.5 375.6,12.5 375.3,12.5 375,12.5 374.7,12.5 374.4,12.5 374.1,12.5 373.8,12.5 373.5,12.5 373.2,12.5 372.9,12.5 
	372.6,12.5 372.3,12.5 372,12.5 371.7,12.5 371.4,12.5 371.1,12.5 371.1,12.7 371.1,13 371.4,13 371.7,13 372,13 372.3,13 372.6,13 
	372.9,13 373.2,13 373.5,13 373.8,13 374.1,13 374.4,13 374.7,13 375,13 375.3,13 375.6,13 375.9,13 376.2,13 376.5,13 376.8,13 
	377.1,13 377.4,13 377.7,13 378,13 378.3,13 378.6,13 378.9,13 379.2,13 "/>
<polygon class="st0" points="373.5,11.4 373.2,11.4 372.9,11.4 372.6,11.4 372.3,11.4 372,11.4 371.7,11.4 371.4,11.4 371.1,11.4 
	370.8,11.4 370.5,11.4 370.2,11.4 370.2,11.7 370.5,11.7 370.5,11.9 370.8,11.9 371.1,11.9 371.4,11.9 371.7,11.9 372,12 372.3,12 
	372.6,12 372.9,12 373.2,12 373.5,12 373.8,12 374.1,12 374.4,12 374.7,12 375,12 375.3,12 375.6,12 375.9,12 376.2,12 376.5,12 
	376.8,12 377.1,12 377.4,12 377.7,12 378,12 378.3,12 378.6,12 378.9,12 379.2,12 379.5,12 379.8,12 380.1,12 380.4,12 380.7,12 
	380.7,11.7 381,11.7 381,11.5 380.7,11.5 380.4,11.5 380.1,11.5 379.8,11.5 379.5,11.5 379.2,11.5 378.9,11.5 378.6,11.5 
	378.3,11.5 378,11.5 377.7,11.5 377.4,11.5 377.1,11.5 376.8,11.5 376.5,11.5 376.2,11.5 375.9,11.5 375.6,11.5 375.3,11.4 
	375,11.4 374.7,11.4 374.4,11.4 374.1,11.4 373.8,11.4 "/>
<polygon class="st0" points="374.7,11 375,11 375.3,11 375.6,11 375.9,11 376.2,11 376.5,11 376.8,11 377.1,11 377.4,11 377.4,10.7 
	377.4,10.5 377.4,10.2 377.4,9.9 377.4,9.7 377.4,9.4 377.4,9.2 377.4,8.9 377.4,8.6 377.4,8.4 377.1,8.4 377.1,8.1 377.1,7.9 
	377.1,7.6 376.8,7.6 376.5,7.6 376.5,7.3 376.5,7.1 376.5,6.8 376.5,6.6 376.2,6.6 376.2,6.3 376.2,6.1 376.2,5.8 375.9,5.8 
	375.6,5.8 375.3,5.8 375.3,6 375.3,6.3 375.3,6.6 375,6.6 375,6.8 375,7.1 375,7.3 375,7.6 374.7,7.6 374.4,7.6 374.4,7.9 
	374.4,8.1 374.4,8.4 374.1,8.4 374.1,8.6 374.1,8.9 374.1,9.1 374.1,9.4 374.1,9.7 374.1,9.9 374.1,10.2 374.1,10.4 374.1,10.7 
	374.1,11 374.4,11 "/>
<polygon class="st0" points="369.6,9.6 369.6,9.9 369.6,10.2 369.6,10.4 369.9,10.4 369.9,10.7 369.9,10.9 370.2,10.9 370.5,10.9 
	370.8,10.9 371.1,10.9 371.4,10.9 371.7,10.9 372,11 372.3,11 372.6,11 372.9,11 373.2,11 373.5,11 373.8,11 373.8,10.7 373.5,10.7 
	373.2,10.7 373.2,10.4 373.2,10.2 373.2,9.9 372.9,9.9 372.6,9.9 372.6,9.7 372.6,9.4 372.3,9.4 372,9.4 372,9.1 372,8.9 371.7,8.9 
	371.4,8.9 371.1,8.9 371.1,8.6 370.8,8.6 370.5,8.6 370.5,8.4 370.5,8.1 370.2,8.1 369.9,8.1 369.6,8.1 369.6,7.8 369.3,7.8 
	369.3,8.1 369.3,8.3 369.3,8.6 369.3,8.9 369.3,9.1 369.3,9.4 369.6,9.4 "/>
<rect x="369.6" y="7.8" transform="matrix(4.874028e-03 -1 1 4.874028e-03 359.967 377.6482)" class="st0" width="0.3" height="0.3"/>
<polygon class="st0" points="381.6,7.9 381.6,8.2 381.3,8.1 381,8.1 380.7,8.1 380.7,8.4 380.4,8.4 380.1,8.4 380.1,8.7 380.1,8.9 
	379.8,8.9 379.5,8.9 379.2,8.9 379.2,9.2 379.2,9.4 378.9,9.4 378.6,9.4 378.6,9.7 378.6,9.9 378.3,9.9 378,9.9 378,10.2 378,10.5 
	378,10.7 377.7,10.7 377.7,11 378,11 378.3,11 378.6,11 378.9,11 379.2,11 379.5,11 379.8,11 380.1,11 380.4,11 380.7,11 381,11 
	381.3,11 381.3,10.7 381.3,10.5 381.6,10.5 381.6,10.2 381.6,10 381.9,10 381.9,9.7 381.9,9.4 381.9,9.2 382.2,9.2 382.2,8.9 
	382.2,8.7 382.2,8.4 382.2,8.2 382.2,7.9 381.9,7.9 "/>
<polygon class="st0" points="334.7,14.6 335,14.6 335.3,14.6 335.3,14.3 335.3,14 335.6,14 335.6,13.8 335.6,13.5 335.3,13.5 
	335,13.5 334.7,13.5 334.4,13.5 334.4,13.8 334.4,14 334.7,14 334.7,14.3 "/>
<polygon class="st0" points="333.5,14.6 333.8,14.6 334.1,14.6 334.1,14.3 334.1,14 334.1,13.8 334.1,13.5 333.8,13.5 333.5,13.5 
	333.2,13.5 332.9,13.5 332.6,13.5 332.3,13.5 332,13.5 331.7,13.5 331.4,13.5 331.4,13.8 331.7,13.8 332,13.8 332.3,13.8 
	332.6,13.8 332.6,14 332.6,14.3 332.9,14.3 333.2,14.3 333.2,14.5 "/>
<polygon class="st0" points="337.4,14.3 337.4,14.1 337.4,13.8 337.7,13.8 338,13.8 338.3,13.8 338.6,13.8 338.6,13.5 338.3,13.5 
	338,13.5 337.7,13.5 337.4,13.5 337.1,13.5 336.8,13.5 336.5,13.5 336.2,13.5 335.9,13.5 335.9,13.8 335.9,14 335.9,14.3 
	335.9,14.6 336.2,14.6 336.5,14.6 336.8,14.6 336.8,14.3 337.1,14.3 "/>
<polygon class="st0" points="338.9,13 339.2,13 339.5,13 339.5,12.8 339.8,12.8 339.8,12.5 339.5,12.5 339.2,12.5 338.9,12.5 
	338.6,12.5 338.3,12.5 338,12.5 337.7,12.5 337.4,12.5 337.1,12.5 336.8,12.5 336.5,12.5 336.2,12.5 335.9,12.5 335.6,12.5 
	335.3,12.5 335,12.5 334.7,12.5 334.4,12.5 334.1,12.5 333.8,12.5 333.5,12.5 333.2,12.5 332.9,12.5 332.6,12.5 332.3,12.5 
	332,12.5 331.7,12.5 331.4,12.5 331.1,12.5 330.8,12.5 330.5,12.5 330.5,12.7 330.5,13 330.8,13 331.1,13 331.4,13 331.7,13 332,13 
	332.3,13 332.6,13 332.9,13 333.2,13 333.5,13 333.8,13 334.1,13 334.4,13 334.7,13 335,13 335.3,13 335.6,13 335.9,13 336.2,13 
	336.5,13 336.8,13 337.1,13 337.4,13 337.7,13 338,13 338.3,13 338.6,13 "/>
<polygon class="st0" points="332.9,11.4 332.6,11.4 332.3,11.4 332,11.4 331.7,11.4 331.4,11.4 331.1,11.4 330.8,11.4 330.5,11.4 
	330.2,11.4 329.9,11.4 329.6,11.4 329.6,11.7 329.9,11.7 329.9,11.9 330.2,11.9 330.5,11.9 330.8,11.9 331.1,11.9 331.4,12 
	331.7,12 332,12 332.3,12 332.6,12 332.9,12 333.2,12 333.5,12 333.8,12 334.1,12 334.4,12 334.7,12 335,12 335.3,12 335.6,12 
	335.9,12 336.2,12 336.5,12 336.8,12 337.1,12 337.4,12 337.7,12 338,12 338.3,12 338.6,12 338.9,12 339.2,12 339.5,12 339.8,12 
	340.1,12 340.1,11.7 340.4,11.7 340.4,11.5 340.1,11.5 339.8,11.5 339.5,11.5 339.2,11.5 338.9,11.5 338.6,11.5 338.3,11.5 
	338,11.5 337.7,11.5 337.4,11.5 337.1,11.5 336.8,11.5 336.5,11.5 336.2,11.5 335.9,11.5 335.6,11.5 335.3,11.5 335,11.5 
	334.7,11.4 334.4,11.4 334.1,11.4 333.8,11.4 333.5,11.4 333.2,11.4 "/>
<polygon class="st0" points="334.1,11 334.4,11 334.7,11 335,11 335.3,11 335.6,11 335.9,11 336.2,11 336.5,11 336.8,11 336.8,10.7 
	336.8,10.5 336.8,10.2 336.8,9.9 336.8,9.7 336.8,9.4 336.8,9.2 336.8,8.9 336.8,8.6 336.8,8.4 336.5,8.4 336.5,8.1 336.5,7.9 
	336.5,7.6 336.2,7.6 335.9,7.6 335.9,7.3 335.9,7.1 335.9,6.8 335.9,6.6 335.6,6.6 335.6,6.3 335.6,6.1 335.6,5.8 335.3,5.8 
	335,5.8 334.7,5.8 334.7,6 334.7,6.3 334.7,6.6 334.4,6.6 334.4,6.8 334.4,7.1 334.4,7.3 334.4,7.6 334.1,7.6 333.8,7.6 333.8,7.9 
	333.8,8.1 333.8,8.4 333.5,8.4 333.5,8.6 333.5,8.9 333.5,9.1 333.5,9.4 333.5,9.7 333.5,9.9 333.5,10.2 333.5,10.4 333.5,10.7 
	333.5,11 333.8,11 "/>
<polygon class="st0" points="329,9.6 329,9.9 329,10.2 329,10.4 329.3,10.4 329.3,10.7 329.3,10.9 329.6,10.9 329.9,10.9 
	330.2,10.9 330.5,10.9 330.8,10.9 331.1,10.9 331.4,11 331.7,11 332,11 332.3,11 332.6,11 332.9,11 333.2,11 333.2,10.7 332.9,10.7 
	332.6,10.7 332.6,10.4 332.6,10.2 332.6,9.9 332.3,9.9 332,9.9 332,9.7 332,9.4 331.7,9.4 331.4,9.4 331.4,9.1 331.4,8.9 331.1,8.9 
	330.8,8.9 330.5,8.9 330.5,8.6 330.2,8.6 329.9,8.6 329.9,8.4 329.9,8.1 329.6,8.1 329.3,8.1 329,8.1 329,7.8 328.7,7.8 328.7,8.1 
	328.7,8.3 328.7,8.6 328.7,8.9 328.7,9.1 328.7,9.4 329,9.4 "/>
<rect x="329" y="7.8" transform="matrix(4.874028e-03 -1 1 4.874028e-03 319.5916 337.0755)" class="st0" width="0.3" height="0.3"/>
<polygon class="st0" points="341,7.9 341,8.2 340.7,8.1 340.4,8.1 340.1,8.1 340.1,8.4 339.8,8.4 339.5,8.4 339.5,8.7 339.5,8.9 
	339.2,8.9 338.9,8.9 338.6,8.9 338.6,9.2 338.6,9.4 338.3,9.4 338,9.4 338,9.7 338,9.9 337.7,9.9 337.4,9.9 337.4,10.2 337.4,10.5 
	337.4,10.7 337.1,10.7 337.1,11 337.4,11 337.7,11 338,11 338.3,11 338.6,11 338.9,11 339.2,11 339.5,11 339.8,11 340.1,11 
	340.4,11 340.7,11 340.7,10.7 340.7,10.5 341,10.5 341,10.2 341,10 341.3,10 341.3,9.7 341.3,9.4 341.3,9.2 341.6,9.2 341.6,8.9 
	341.6,8.7 341.6,8.4 341.6,8.2 341.6,7.9 341.3,7.9 "/>
<rect x="237.6" y="5.9" transform="matrix(1.835140e-03 -1 1 1.835140e-03 231.3339 243.9122)" class="st0" width="0.5" height="0.4"/>
<rect x="236.8" y="5.9" transform="matrix(2.007132e-03 -1 1 2.007132e-03 230.4982 243.1112)" class="st0" width="0.5" height="0.4"/>
<polygon class="st0" points="277.3,14.6 277.6,14.6 277.9,14.6 277.9,14.3 277.9,14 278.2,14 278.2,13.8 278.2,13.5 277.9,13.5 
	277.6,13.5 277.3,13.5 277,13.5 277,13.8 277,14 277.3,14 277.3,14.3 "/>
<polygon class="st0" points="276.1,14.6 276.4,14.6 276.7,14.6 276.7,14.3 276.7,14 276.7,13.8 276.7,13.5 276.4,13.5 276.1,13.5 
	275.8,13.5 275.5,13.5 275.2,13.5 274.9,13.5 274.6,13.5 274.3,13.5 274,13.5 274,13.8 274.3,13.8 274.6,13.8 274.9,13.8 
	275.2,13.8 275.2,14 275.2,14.3 275.5,14.3 275.8,14.3 275.8,14.5 "/>
<polygon class="st0" points="280,14.3 280,14.1 280,13.8 280.3,13.8 280.6,13.8 280.9,13.8 281.2,13.8 281.2,13.5 280.9,13.5 
	280.6,13.5 280.3,13.5 280,13.5 279.7,13.5 279.4,13.5 279.1,13.5 278.8,13.5 278.5,13.5 278.5,13.8 278.5,14 278.5,14.3 
	278.5,14.6 278.8,14.6 279.1,14.6 279.4,14.6 279.4,14.3 279.7,14.3 "/>
<polygon class="st0" points="281.5,13 281.8,13 282.1,13 282.1,12.8 282.4,12.8 282.4,12.5 282.1,12.5 281.8,12.5 281.5,12.5 
	281.2,12.5 280.9,12.5 280.6,12.5 280.3,12.5 280,12.5 279.7,12.5 279.4,12.5 279.1,12.5 278.8,12.5 278.5,12.5 278.2,12.5 
	277.9,12.5 277.6,12.5 277.3,12.5 277,12.5 276.7,12.5 276.4,12.5 276.1,12.5 275.8,12.5 275.5,12.5 275.2,12.5 274.9,12.5 
	274.6,12.5 274.3,12.5 274,12.5 273.7,12.5 273.4,12.5 273.1,12.5 273.1,12.7 273.1,13 273.4,13 273.7,13 274,13 274.3,13 274.6,13 
	274.9,13 275.2,13 275.5,13 275.8,13 276.1,13 276.4,13 276.7,13 277,13 277.3,13 277.6,13 277.9,13 278.2,13 278.5,13 278.8,13 
	279.1,13 279.4,13 279.7,13 280,13 280.3,13 280.6,13 280.9,13 281.2,13 "/>
<polygon class="st0" points="275.5,11.4 275.2,11.4 274.9,11.4 274.6,11.4 274.3,11.4 274,11.4 273.7,11.4 273.4,11.4 273.1,11.4 
	272.8,11.4 272.5,11.4 272.2,11.4 272.2,11.7 272.5,11.7 272.5,11.9 272.8,11.9 273.1,11.9 273.4,11.9 273.7,11.9 274,12 274.3,12 
	274.6,12 274.9,12 275.2,12 275.5,12 275.8,12 276.1,12 276.4,12 276.7,12 277,12 277.3,12 277.6,12 277.9,12 278.2,12 278.5,12 
	278.8,12 279.1,12 279.4,12 279.7,12 280,12 280.3,12 280.6,12 280.9,12 281.2,12 281.5,12 281.8,12 282.1,12 282.4,12 282.7,12 
	282.7,11.7 283,11.7 283,11.5 282.7,11.5 282.4,11.5 282.1,11.5 281.8,11.5 281.5,11.5 281.2,11.5 280.9,11.5 280.6,11.5 
	280.3,11.5 280,11.5 279.7,11.5 279.4,11.5 279.1,11.5 278.8,11.5 278.5,11.5 278.2,11.5 277.9,11.5 277.6,11.5 277.3,11.4 
	277,11.4 276.7,11.4 276.4,11.4 276.1,11.4 275.8,11.4 "/>
<polygon class="st0" points="276.7,11 277,11 277.3,11 277.6,11 277.9,11 278.2,11 278.5,11 278.8,11 279.1,11 279.4,11 279.4,10.7 
	279.4,10.5 279.4,10.2 279.4,9.9 279.4,9.7 279.4,9.4 279.4,9.2 279.4,8.9 279.4,8.6 279.4,8.4 279.1,8.4 279.1,8.1 279.1,7.9 
	279.1,7.6 278.8,7.6 278.5,7.6 278.5,7.3 278.5,7.1 278.5,6.8 278.5,6.6 278.2,6.6 278.2,6.3 278.2,6.1 278.2,5.8 277.9,5.8 
	277.6,5.8 277.3,5.8 277.3,6 277.3,6.3 277.3,6.6 277,6.6 277,6.8 277,7.1 277,7.3 277,7.6 276.7,7.6 276.4,7.6 276.4,7.9 
	276.4,8.1 276.4,8.4 276.1,8.4 276.1,8.6 276.1,8.9 276.1,9.1 276.1,9.4 276.1,9.7 276.1,9.9 276.1,10.2 276.1,10.4 276.1,10.7 
	276.1,11 276.4,11 "/>
<polygon class="st0" points="271.6,9.6 271.6,9.9 271.6,10.2 271.6,10.4 271.9,10.4 271.9,10.7 271.9,10.9 272.2,10.9 272.5,10.9 
	272.8,10.9 273.1,10.9 273.4,10.9 273.7,10.9 274,11 274.3,11 274.6,11 274.9,11 275.2,11 275.5,11 275.8,11 275.8,10.7 275.5,10.7 
	275.2,10.7 275.2,10.4 275.2,10.2 275.2,9.9 274.9,9.9 274.6,9.9 274.6,9.7 274.6,9.4 274.3,9.4 274,9.4 274,9.1 274,8.9 273.7,8.9 
	273.4,8.9 273.1,8.9 273.1,8.6 272.8,8.6 272.5,8.6 272.5,8.4 272.5,8.1 272.2,8.1 271.9,8.1 271.6,8.1 271.6,7.8 271.3,7.8 
	271.3,8.1 271.3,8.3 271.3,8.6 271.3,8.9 271.3,9.1 271.3,9.4 271.6,9.4 "/>
<rect x="271.6" y="7.8" transform="matrix(4.874028e-03 -1 1 4.874028e-03 262.4528 279.6575)" class="st0" width="0.3" height="0.3"/>
<polygon class="st0" points="283.6,7.9 283.6,8.2 283.3,8.1 283,8.1 282.7,8.1 282.7,8.4 282.4,8.4 282.1,8.4 282.1,8.7 282.1,8.9 
	281.8,8.9 281.5,8.9 281.2,8.9 281.2,9.2 281.2,9.4 280.9,9.4 280.6,9.4 280.6,9.7 280.6,9.9 280.3,9.9 280,9.9 280,10.2 280,10.5 
	280,10.7 279.7,10.7 279.7,11 280,11 280.3,11 280.6,11 280.9,11 281.2,11 281.5,11 281.8,11 282.1,11 282.4,11 282.7,11 283,11 
	283.3,11 283.3,10.7 283.3,10.5 283.6,10.5 283.6,10.2 283.6,10 283.9,10 283.9,9.7 283.9,9.4 283.9,9.2 284.2,9.2 284.2,8.9 
	284.2,8.7 284.2,8.4 284.2,8.2 284.2,7.9 283.9,7.9 "/>
<polygon class="st0" points="297.6,14.6 297.9,14.6 298.2,14.6 298.2,14.3 298.2,14 298.5,14 298.5,13.8 298.5,13.5 298.2,13.5 
	297.9,13.5 297.6,13.5 297.3,13.5 297.3,13.8 297.3,14 297.6,14 297.6,14.3 "/>
<polygon class="st0" points="296.3,14.6 296.6,14.6 296.9,14.6 297,14.3 297,14 297,13.8 297,13.5 296.7,13.5 296.4,13.5 
	296.1,13.5 295.8,13.5 295.5,13.5 295.2,13.5 294.9,13.5 294.6,13.5 294.2,13.5 294.2,13.8 294.5,13.8 294.8,13.8 295.1,13.8 
	295.5,13.8 295.4,14 295.4,14.3 295.7,14.3 296,14.3 296,14.5 "/>
<polygon class="st0" points="300.3,14.3 300.3,14.1 300.3,13.8 300.6,13.8 300.9,13.8 301.2,13.8 301.5,13.8 301.5,13.5 301.2,13.5 
	300.9,13.5 300.6,13.5 300.3,13.5 300,13.5 299.7,13.5 299.4,13.5 299.1,13.5 298.8,13.5 298.8,13.8 298.8,14 298.8,14.3 
	298.8,14.6 299.1,14.6 299.4,14.6 299.7,14.6 299.7,14.3 300,14.3 "/>
<polygon class="st0" points="301.8,13 302.1,13 302.4,13 302.4,12.8 302.7,12.8 302.7,12.5 302.4,12.5 302.1,12.5 301.8,12.5 
	301.5,12.5 301.2,12.5 300.9,12.5 300.6,12.5 300.3,12.5 300,12.5 299.7,12.5 299.4,12.5 299.1,12.5 298.8,12.5 298.5,12.5 
	298.2,12.5 297.9,12.5 297.6,12.5 297.3,12.5 297,12.5 296.7,12.5 296.4,12.5 296.1,12.5 295.8,12.5 295.5,12.5 295.2,12.5 
	294.9,12.5 294.6,12.5 294.3,12.5 294,12.5 293.7,12.5 293.4,12.5 293.4,12.7 293.4,13 293.7,13 294,13 294.3,13 294.6,13 294.9,13 
	295.2,13 295.5,13 295.8,13 296.1,13 296.4,13 296.7,13 297,13 297.3,13 297.6,13 297.9,13 298.2,13 298.5,13 298.8,13 299.1,13 
	299.4,13 299.7,13 300,13 300.3,13 300.6,13 300.9,13 301.2,13 301.5,13 "/>
<polygon class="st0" points="295.8,11.4 295.5,11.4 295.2,11.4 294.9,11.4 294.6,11.4 294.3,11.4 294,11.4 293.7,11.4 293.4,11.4 
	293.1,11.4 292.8,11.4 292.5,11.4 292.5,11.7 292.8,11.7 292.8,11.9 293.1,11.9 293.4,11.9 293.7,11.9 294,11.9 294.3,12 294.6,12 
	294.9,12 295.2,12 295.5,12 295.8,12 296.1,12 296.4,12 296.7,12 297,12 297.3,12 297.6,12 297.9,12 298.2,12 298.5,12 298.8,12 
	299.1,12 299.4,12 299.7,12 300,12 300.3,12 300.6,12 300.9,12 301.2,12 301.5,12 301.8,12 302.1,12 302.4,12 302.7,12 303,12 
	303,11.7 303.3,11.7 303.3,11.5 303,11.5 302.7,11.5 302.4,11.5 302.1,11.5 301.8,11.5 301.5,11.5 301.2,11.5 300.9,11.5 
	300.6,11.5 300.3,11.5 300,11.5 299.7,11.5 299.4,11.5 299.1,11.5 298.8,11.5 298.5,11.5 298.2,11.5 297.9,11.5 297.6,11.4 
	297.3,11.4 297,11.4 296.7,11.4 296.4,11.4 296.1,11.4 "/>
<polygon class="st0" points="297,11 297.3,11 297.6,11 297.9,11 298.2,11 298.5,11 298.8,11 299.1,11 299.4,11 299.7,11 299.7,10.7 
	299.7,10.5 299.7,10.2 299.7,9.9 299.7,9.7 299.7,9.4 299.7,9.2 299.7,8.9 299.7,8.6 299.7,8.4 299.4,8.4 299.4,8.1 299.4,7.9 
	299.4,7.6 299.1,7.6 298.8,7.6 298.8,7.3 298.8,7.1 298.8,6.8 298.8,6.6 298.5,6.6 298.5,6.3 298.5,6.1 298.5,5.8 298.2,5.8 
	297.9,5.8 297.6,5.8 297.6,6 297.6,6.3 297.6,6.6 297.3,6.6 297.3,6.8 297.3,7.1 297.3,7.3 297.3,7.6 297,7.6 296.7,7.6 296.7,7.9 
	296.7,8.1 296.7,8.4 296.4,8.4 296.4,8.6 296.4,8.9 296.4,9.1 296.4,9.4 296.4,9.7 296.4,9.9 296.4,10.2 296.4,10.4 296.4,10.7 
	296.4,11 296.7,11 "/>
<polygon class="st0" points="291.9,9.6 291.9,9.9 291.9,10.2 291.9,10.4 292.2,10.4 292.2,10.7 292.2,10.9 292.5,10.9 292.8,10.9 
	293.1,10.9 293.4,10.9 293.7,10.9 294,10.9 294.3,11 294.6,11 294.9,11 295.2,11 295.5,11 295.8,11 296.1,11 296.1,10.7 295.8,10.7 
	295.5,10.7 295.5,10.4 295.5,10.2 295.5,9.9 295.2,9.9 294.9,9.9 294.9,9.7 294.9,9.4 294.6,9.4 294.3,9.4 294.3,9.1 294.3,8.9 
	294,8.9 293.7,8.9 293.4,8.9 293.4,8.6 293.1,8.6 292.8,8.6 292.8,8.4 292.8,8.1 292.5,8.1 292.2,8.1 291.9,8.1 291.9,7.8 
	291.6,7.8 291.6,8.1 291.6,8.3 291.6,8.6 291.6,8.9 291.6,9.1 291.6,9.4 291.9,9.4 "/>
<rect x="291.9" y="7.8" transform="matrix(4.874028e-03 -1 1 4.874028e-03 282.6405 299.9438)" class="st0" width="0.3" height="0.3"/>
<polygon class="st0" points="303.9,7.9 303.9,8.2 303.6,8.1 303.3,8.1 303,8.1 303,8.4 302.7,8.4 302.4,8.4 302.4,8.7 302.4,8.9 
	302.1,8.9 301.8,8.9 301.5,8.9 301.5,9.2 301.5,9.4 301.2,9.4 300.9,9.4 300.9,9.7 300.9,9.9 300.6,9.9 300.3,9.9 300.3,10.2 
	300.3,10.5 300.3,10.7 300,10.7 300,11 300.3,11 300.6,11 300.9,11 301.2,11 301.5,11 301.8,11 302.1,11 302.4,11 302.7,11 303,11 
	303.3,11 303.6,11 303.6,10.7 303.6,10.5 303.9,10.5 303.9,10.2 303.9,10 304.2,10 304.2,9.7 304.2,9.4 304.2,9.2 304.5,9.2 
	304.5,8.9 304.5,8.7 304.5,8.4 304.5,8.2 304.5,7.9 304.2,7.9 "/>
<polygon class="st0" points="257,14.6 257.3,14.6 257.6,14.6 257.6,14.3 257.6,14 257.9,14 257.9,13.8 257.9,13.5 257.6,13.5 
	257.3,13.5 257,13.5 256.7,13.5 256.7,13.8 256.7,14 257,14 257,14.3 "/>
<polygon class="st0" points="255.8,14.6 256.1,14.6 256.4,14.6 256.4,14.3 256.4,14 256.4,13.8 256.4,13.5 256.1,13.5 255.8,13.5 
	255.5,13.5 255.2,13.5 254.9,13.5 254.6,13.5 254.3,13.5 254,13.5 253.7,13.5 253.7,13.8 254,13.8 254.3,13.8 254.6,13.8 
	254.9,13.8 254.9,14 254.9,14.3 255.2,14.3 255.5,14.3 255.5,14.5 "/>
<polygon class="st0" points="259.7,14.3 259.7,14.1 259.7,13.8 260,13.8 260.3,13.8 260.6,13.8 260.9,13.8 260.9,13.5 260.6,13.5 
	260.3,13.5 260,13.5 259.7,13.5 259.4,13.5 259.1,13.5 258.8,13.5 258.5,13.5 258.2,13.5 258.2,13.8 258.2,14 258.2,14.3 
	258.2,14.6 258.5,14.6 258.8,14.6 259.1,14.6 259.1,14.3 259.4,14.3 "/>
<polygon class="st0" points="261.2,13 261.5,13 261.8,13 261.8,12.8 262.1,12.8 262.1,12.5 261.8,12.5 261.5,12.5 261.2,12.5 
	260.9,12.5 260.6,12.5 260.3,12.5 260,12.5 259.7,12.5 259.4,12.5 259.1,12.5 258.8,12.5 258.5,12.5 258.2,12.5 257.9,12.5 
	257.6,12.5 257.3,12.5 257,12.5 256.7,12.5 256.4,12.5 256.1,12.5 255.8,12.5 255.5,12.5 255.2,12.5 254.9,12.5 254.6,12.5 
	254.3,12.5 254,12.5 253.7,12.5 253.4,12.5 253.1,12.5 252.8,12.5 252.8,12.7 252.8,13 253.1,13 253.4,13 253.7,13 254,13 254.3,13 
	254.6,13 254.9,13 255.2,13 255.5,13 255.8,13 256.1,13 256.4,13 256.7,13 257,13 257.3,13 257.6,13 257.9,13 258.2,13 258.5,13 
	258.8,13 259.1,13 259.4,13 259.7,13 260,13 260.3,13 260.6,13 260.9,13 "/>
<polygon class="st0" points="255.2,11.4 254.9,11.4 254.6,11.4 254.3,11.4 254,11.4 253.7,11.4 253.4,11.4 253.1,11.4 252.8,11.4 
	252.5,11.4 252.2,11.4 251.9,11.4 251.9,11.7 252.2,11.7 252.2,11.9 252.5,11.9 252.8,11.9 253.1,11.9 253.4,11.9 253.7,12 254,12 
	254.3,12 254.6,12 254.9,12 255.2,12 255.5,12 255.8,12 256.1,12 256.4,12 256.7,12 257,12 257.3,12 257.6,12 257.9,12 258.2,12 
	258.5,12 258.8,12 259.1,12 259.4,12 259.7,12 260,12 260.3,12 260.6,12 260.9,12 261.2,12 261.5,12 261.8,12 262.1,12 262.4,12 
	262.4,11.7 262.7,11.7 262.7,11.5 262.4,11.5 262.1,11.5 261.8,11.5 261.5,11.5 261.2,11.5 260.9,11.5 260.6,11.5 260.3,11.5 
	260,11.5 259.7,11.5 259.4,11.5 259.1,11.5 258.8,11.5 258.5,11.5 258.2,11.5 257.9,11.5 257.6,11.5 257.3,11.5 257,11.4 
	256.7,11.4 256.4,11.4 256.1,11.4 255.8,11.4 255.5,11.4 "/>
<polygon class="st0" points="256.4,11 256.7,11 257,11 257.3,11 257.6,11 257.9,11 258.2,11 258.5,11 258.8,11 259.1,11 259.1,10.7 
	259.1,10.5 259.1,10.2 259.1,9.9 259.1,9.7 259.1,9.4 259.1,9.2 259.1,8.9 259.1,8.6 259.1,8.4 258.8,8.4 258.8,8.1 258.8,7.9 
	258.8,7.6 258.5,7.6 258.2,7.6 258.2,7.3 258.2,7.1 258.2,6.8 258.2,6.6 257.9,6.6 257.9,6.3 257.9,6.1 257.9,5.8 257.6,5.8 
	257.3,5.8 257,5.8 257,6 257,6.3 257,6.6 256.7,6.6 256.7,6.8 256.7,7.1 256.7,7.3 256.7,7.6 256.4,7.6 256.1,7.6 256.1,7.9 
	256.1,8.1 256.1,8.4 255.8,8.4 255.8,8.6 255.8,8.9 255.8,9.1 255.8,9.4 255.8,9.7 255.8,9.9 255.8,10.2 255.8,10.4 255.8,10.7 
	255.8,11 256.1,11 "/>
<polygon class="st0" points="251.3,9.6 251.3,9.9 251.3,10.2 251.3,10.4 251.6,10.4 251.6,10.7 251.6,10.9 251.9,10.9 252.2,10.9 
	252.5,10.9 252.8,10.9 253.1,10.9 253.4,10.9 253.7,11 254,11 254.3,11 254.6,11 254.9,11 255.2,11 255.5,11 255.5,10.7 255.2,10.7 
	254.9,10.7 254.9,10.4 254.9,10.2 254.9,9.9 254.6,9.9 254.3,9.9 254.3,9.7 254.3,9.4 254,9.4 253.7,9.4 253.7,9.1 253.7,8.9 
	253.4,8.9 253.1,8.9 252.8,8.9 252.8,8.6 252.5,8.6 252.2,8.6 252.2,8.4 252.2,8.1 251.9,8.1 251.6,8.1 251.3,8.1 251.3,7.8 
	251,7.8 251,8.1 251,8.3 251,8.6 251,8.9 251,9.1 251,9.4 251.3,9.4 "/>
<rect x="251.3" y="7.8" transform="matrix(4.874028e-03 -1 1 4.874028e-03 242.2651 259.3712)" class="st0" width="0.3" height="0.3"/>
<polygon class="st0" points="263.3,7.9 263.3,8.2 263,8.1 262.7,8.1 262.4,8.1 262.4,8.4 262.1,8.4 261.8,8.4 261.8,8.7 261.8,8.9 
	261.5,8.9 261.2,8.9 260.9,8.9 260.9,9.2 260.9,9.4 260.6,9.4 260.3,9.4 260.3,9.7 260.3,9.9 260,9.9 259.7,9.9 259.7,10.2 
	259.7,10.5 259.7,10.7 259.4,10.7 259.4,11 259.7,11 260,11 260.3,11 260.6,11 260.9,11 261.2,11 261.5,11 261.8,11 262.1,11 
	262.4,11 262.7,11 263,11 263,10.7 263,10.5 263.3,10.5 263.3,10.2 263.3,10 263.6,10 263.6,9.7 263.6,9.4 263.6,9.2 263.9,9.2 
	263.9,8.9 263.9,8.7 263.9,8.4 263.9,8.2 263.9,7.9 263.6,7.9 "/>
</svg>
