<svg width="189" height="136" viewBox="0 0 189 136" fill="none" xmlns="http://www.w3.org/2000/svg">
<path d="M97.9853 28.4936C91.3333 30.5563 84.3066 29.0149 76.9253 30.3563C75.1933 30.6696 71.7013 32.0416 70.4306 29.0029C70.0853 28.1789 69.9893 26.8176 70.48 26.3376C72.048 24.8029 72.8373 22.9403 74.156 21.3696C74.4773 21.6909 74.8 22.2283 75.1133 22.2189C76.6306 22.1683 75.7826 19.2429 76.904 19.7456C82.8746 22.4176 88.532 17.3963 94.1253 19.8856C97.6106 21.4376 104.651 26.4283 97.9853 28.4936ZM93.3413 46.1376C91.9186 46.2603 92.16 43.4309 90.4893 43.5776C89.028 43.7056 89.9866 46.8003 87.5973 46.3323C88.2306 48.8163 87.0453 50.4749 84.6866 50.9883C80.368 51.9269 74.7346 51.0123 75.1053 47.3896C75.36 44.8963 74.8333 41.2203 77.0226 38.6389C78.7146 36.6456 81.0666 34.7949 82.9053 34.4803C88.8893 33.4563 90.9226 41.1003 95.2773 44.4123C94.6386 45.0523 94.036 46.0776 93.3413 46.1376ZM81.8386 54.9776C80.6653 55.1763 79.6266 55.2083 78.956 54.0123C81.248 52.8216 84.9933 51.2736 85.2986 54.0549C85.464 55.5536 83.1826 54.7523 81.8386 54.9776ZM72.1426 43.3283C72.0906 43.3669 71.6226 42.8069 71.268 42.5003C68.1573 39.8043 69.0173 38.2483 70.316 36.7309C71.796 38.7083 75.364 40.8629 72.1426 43.3283ZM122.692 59.7496C122.657 58.9829 124.796 56.8216 124.577 56.0683C123.092 50.9429 125.395 46.9163 124.328 41.8843C124.208 41.3136 124.94 40.6629 126.001 40.5723C124.877 40.6016 124.237 40.2843 124.236 39.6109C124.236 38.9389 125.069 38.3883 126.001 38.6509C125.216 31.1456 121.852 24.2523 118.456 17.9763C115.284 12.1163 111.564 5.02826 104.724 2.60826C101.337 1.4096 97.4026 -0.486407 94.4893 0.114926C88.1986 1.41759 81.8573 0.106926 76.096 4.11493C71.9946 6.96826 69.6573 10.3443 67.236 14.5323C66.8786 15.1496 65.9826 14.3616 65.516 13.6883C65.5986 16.7803 64.772 18.2776 62.636 20.4083C61.9813 21.0616 61.1146 21.5936 60.8386 22.3736C59.2933 26.7443 61.7106 30.7389 56.8733 32.8909C59.4653 34.7176 58.0826 37.5136 57.1346 39.7229C57 40.0336 58.4706 40.7976 58.624 41.5669C59.4333 45.6189 57.1773 49.3963 57.4293 53.0136C57.9613 60.7003 58.428 68.3323 60.456 76.1616C60.5746 76.6189 59.4346 77.3763 58.7946 78.0163C59.4346 78.6563 60.12 79.2149 60.6786 79.9629C61.864 81.5483 58.0826 83.0789 60.716 84.7336C66.0293 88.0709 67.9586 94.0989 73.2893 97.0496C74.0773 97.4843 75.42 96.7323 76.0973 96.7003C79.704 96.5283 82.08 100.759 85.6773 102.018C85.416 101.086 85.9653 100.564 86.6373 100.098C89.3026 104.198 93.704 101.624 97.3213 102.416C100.792 103.175 100.008 98.1629 103.957 97.4149C104.541 97.3043 105.079 98.2896 104.879 99.1363C105.507 97.9229 104.957 96.6563 105.873 95.9069C115.064 88.3763 126.357 81.7003 126.595 70.3069C126.645 67.9629 122.856 63.4443 122.692 59.7496Z" fill="#EC0089"/>
<path d="M81.8436 42.3467C81.1503 42.3161 80.6156 41.5041 80.877 40.5734C79.9156 40.5734 78.7636 40.2521 78.1143 40.7321C77.5077 41.1787 78.393 41.4081 78.757 41.7467C81.645 44.4374 83.4663 43.5241 85.6356 43.1827C86.7476 43.0067 87.597 41.5321 88.5583 40.5734C85.9476 39.9201 84.1583 42.4521 81.8436 42.3467Z" fill="#EC0089"/>
<path d="M121.824 95.5332H120.259V93.1518H121.922C122.274 93.1518 122.558 93.1572 122.848 93.3625C123.167 93.5785 123.312 93.8985 123.312 94.2878C123.312 94.6065 123.207 94.9305 122.975 95.1638C122.644 95.5025 122.274 95.5332 121.824 95.5332ZM124.151 94.2972C124.151 93.7318 123.89 93.1785 123.439 92.8385C122.992 92.4972 122.467 92.4292 121.922 92.4292H119.42V99.1052H120.259V96.2145H122.111L123.346 99.1052H124.22L122.906 96.0078C123.686 95.7958 124.151 95.0865 124.151 94.2972Z" fill="#EC0089"/>
<path d="M121.573 100.278C120.394 100.278 119.282 99.8197 118.451 98.9851C117.617 98.1504 117.155 97.0411 117.155 95.8624C117.155 94.6811 117.617 93.5717 118.451 92.7371C119.282 91.9064 120.394 91.4424 121.573 91.4424C122.753 91.4424 123.863 91.9064 124.695 92.7371C125.531 93.5717 125.987 94.6811 125.987 95.8624C125.987 98.2957 124.01 100.278 121.573 100.278ZM125.127 92.3064C124.177 91.3571 122.914 90.8344 121.573 90.8344C118.802 90.8344 116.55 93.0877 116.55 95.8624C116.55 97.2024 117.067 98.4637 118.019 99.4131C118.966 100.362 120.23 100.884 121.573 100.884C122.914 100.884 124.177 100.362 125.127 99.4131C126.075 98.4637 126.598 97.2024 126.598 95.8624C126.598 94.5184 126.075 93.2531 125.127 92.3064Z" fill="#EC0089"/>
<path d="M17.1917 128.415L15.0184 123.11L12.8437 128.415H17.1917ZM13.4051 118.785H16.7237L23.7371 135.265H19.9731L18.4771 131.595H11.5584L10.0624 135.265H6.39307L13.4051 118.785Z" fill="#EC0089"/>
<path d="M38.2508 132.109C39.8401 132.109 40.7988 131.549 40.7988 130.333V130.286C40.7988 129.187 39.9801 128.509 38.1335 128.509H33.9735V132.109H38.2508ZM37.2921 125.517C38.8815 125.517 39.8868 125.003 39.8868 123.787V123.741C39.8868 122.666 39.0455 122.058 37.5255 122.058H33.9735V125.517H37.2921ZM30.4668 118.902H38.0641C39.9335 118.902 41.4068 119.417 42.3415 120.351C43.0895 121.099 43.4628 122.011 43.4628 123.133V123.179C43.4628 125.026 42.4815 126.054 41.3121 126.709C43.2055 127.434 44.3748 128.533 44.3748 130.73V130.777C44.3748 133.769 41.9441 135.265 38.2508 135.265H30.4668V118.902Z" fill="#EC0089"/>
<path d="M55.4066 128.415L53.2332 123.11L51.0586 128.415H55.4066ZM51.6199 118.785H54.9386L61.9519 135.265H58.1879L56.6919 131.595H49.7732L48.2772 135.265H44.6079L51.6199 118.785Z" fill="#EC0089"/>
<path d="M64.3346 122.221H59.356V118.903H72.9133V122.221H67.9346V135.264H64.3346V122.221Z" fill="#EC0089"/>
<path d="M74.6187 118.902H78.2187V125.377H84.8573V118.902H88.456V135.265H84.8573V128.695H78.2187V135.265H74.6187V118.902Z" fill="#EC0089"/>
<path d="M90.5359 118.901H94.136V135.264H90.5359V118.901Z" fill="#EC0089"/>
<path d="M96.1917 118.902H99.5103L107.178 128.977V118.902H110.73V135.265H107.668L99.745 124.863V135.265H96.1917V118.902Z" fill="#EC0089"/>
<path d="M112.599 127.13V127.083C112.599 122.431 116.222 118.622 121.178 118.622C124.123 118.622 125.899 119.417 127.606 120.866L125.339 123.601C124.077 122.549 122.954 121.941 121.061 121.941C118.443 121.941 116.363 124.255 116.363 127.037V127.083C116.363 130.075 118.419 132.273 121.318 132.273C122.627 132.273 123.797 131.945 124.707 131.29V128.953H121.085V125.845H128.19V132.95C126.507 134.377 124.193 135.546 121.201 135.546C116.106 135.546 112.599 131.969 112.599 127.13Z" fill="#EC0089"/>
<path d="M145.018 128.415L142.845 123.11L140.67 128.415H145.018ZM141.231 118.785H144.55L151.563 135.265H147.799L146.303 131.595H139.385L137.89 135.265H134.219L141.231 118.785Z" fill="#EC0089"/>
<path d="M159.276 127.154C161.076 127.154 162.128 126.078 162.128 124.675V124.628C162.128 123.016 161.005 122.151 159.207 122.151H156.424V127.154H159.276ZM152.825 118.902H159.509C163.413 118.902 165.773 121.216 165.773 124.558V124.606C165.773 128.392 162.829 130.355 159.159 130.355H156.424V135.264H152.825V118.902Z" fill="#EC0089"/>
<path d="M167.176 118.902H179.519V122.105H170.752V125.423H178.465V128.626H170.752V132.062H179.635V135.265H167.176V118.902Z" fill="#EC0089"/>
<path d="M3.076 118.913H4.61467L4.492 121.785L7.2 120.78L7.692 122.257L4.90133 123.036L6.68667 125.292L5.436 126.216L3.83467 123.794L2.23467 126.216L0.984 125.292L2.78933 123.036L0 122.257L0.492 120.78L3.19867 121.785L3.076 118.913Z" fill="#EC0089"/>
<path d="M185.368 122.12C185.77 122.12 186.116 122.12 186.116 121.709C186.116 121.372 185.77 121.372 185.368 121.372H184.498V122.12H185.368ZM186.91 124.467H185.966L185.116 122.849H184.498V124.467H183.694V120.643H185.545C186.358 120.643 186.845 120.915 186.845 121.811C186.845 122.465 186.472 122.803 185.985 122.849L186.91 124.467ZM187.91 122.56C187.91 120.933 186.77 119.867 185.209 119.867C183.62 119.867 182.506 120.933 182.506 122.56C182.506 124.187 183.62 125.261 185.209 125.261C186.77 125.261 187.91 124.187 187.91 122.56ZM181.553 122.56C181.553 120.54 183.17 118.913 185.209 118.913C187.238 118.913 188.865 120.54 188.865 122.56C188.865 124.588 187.238 126.215 185.209 126.215C183.17 126.215 181.553 124.588 181.553 122.56Z" fill="#EC0089"/>
</svg>
