<?xml version="1.0" encoding="utf-8"?>
<!-- Generator: Adobe Illustrator 27.0.1, SVG Export Plug-In . SVG Version: 6.00 Build 0)  -->
<svg version="1.1" id="Layer_1" xmlns="http://www.w3.org/2000/svg" xmlns:xlink="http://www.w3.org/1999/xlink" x="0px" y="0px"
	 viewBox="0 0 30.5 31" style="enable-background:new 0 0 30.5 31;" xml:space="preserve">
<style type="text/css">
	.st0{fill:#FF00ED;}
</style>
<g>
	<g>
		<g>
			<g>
				<g>
					<g>
						<path class="st0" d="M29.2,19.1C29.2,19.1,29.2,19.1,29.2,19.1c0-2.9,0-5.8,0-8.8c0-0.1,0-0.2-0.2-0.2c-0.1,0-0.2,0-0.3,0
							c0,0,0,0-0.1,0c-0.2,0-0.4,0-0.6,0c0,0,0,0,0,0c0-0.2,0-0.5,0-0.7c0,0,0,0,0,0c0-0.2,0-0.4,0-0.7c0,0,0,0,0,0
							c0-0.2,0-0.4,0-0.7c0-0.1,0-0.1-0.1-0.1c-0.1,0-0.2,0-0.3,0c0,0,0,0,0,0c-0.2,0-0.4,0-0.6,0c-0.1,0-0.1,0-0.1-0.1
							c0-0.1,0-0.1,0-0.2c0,0,0,0,0-0.1c0-0.2,0-0.4,0-0.6c0-0.1,0-0.1-0.1-0.1c-0.1,0-0.2,0-0.3,0c0,0,0,0,0,0c-0.2,0-0.4,0-0.6,0
							c0,0,0,0,0,0c0,0,0-0.1,0-0.1c0,0,0-0.1,0-0.1c0,0,0,0,0,0c0-0.2,0-0.5,0-0.7c0-0.2,0-0.2-0.2-0.2c-0.1,0-0.2,0-0.3,0
							c0,0,0,0-0.1,0c-0.1,0-0.3,0-0.4,0c-0.1,0-0.1,0-0.2,0c0,0,0,0,0,0c0,0,0-0.1,0-0.1l0,0c0,0,0,0,0,0c0,0,0-0.1,0-0.1
							c0,0,0-0.1,0-0.1c0-0.2,0-0.4,0-0.6c0-0.1,0-0.2-0.2-0.2c-0.3,0-0.7,0-1,0c0-0.1,0-0.2,0-0.3c0,0,0-0.1,0-0.1
							c0-0.2,0-0.4,0-0.6c0-0.1,0-0.2-0.2-0.2c-0.1,0-0.2,0-0.3,0c0,0,0,0,0,0c-0.6,0-1.2,0-1.8,0c0-0.3,0-0.6,0-0.9
							c0-0.2,0-0.2-0.2-0.2c-0.1,0-0.2,0-0.3,0c0,0,0,0,0,0c-0.5,0-1,0-1.6,0c-0.1,0-0.2,0-0.2-0.1C19,2,19,2,19,1.9c0,0,0,0,0-0.1
							c0-0.2,0-0.4,0-0.6c0-0.1,0-0.2-0.1-0.2c-2.2,0-4.4,0-6.5,0c0,0,0,0,0,0c-0.1,0-0.2,0-0.4,0c-0.1,0-0.2,0.1-0.2,0.2
							c0,0.2,0,0.4,0,0.6c0,0,0,0,0,0.1c0,0.1,0,0.1,0,0.2c0,0.1-0.1,0.1-0.2,0.1c-0.5,0-1,0-1.6,0c0,0,0,0,0,0c-0.1,0-0.2,0-0.3,0
							c-0.1,0-0.2,0-0.2,0.2c0,0.2,0,0.4,0,0.6c0,0,0,0.1,0,0.1c0,0.1,0,0.1,0,0.2c0,0.1-0.1,0.1-0.2,0.1c-0.5,0-1.1,0-1.6,0
							c0,0,0,0,0,0c-0.1,0-0.2,0-0.3,0c-0.2,0-0.2,0-0.2,0.2c0,0.2,0,0.4,0,0.6c0,0,0,0.1,0,0.1c0,0.1,0,0.2,0,0.2
							c-0.1,0-0.2,0-0.4,0c-0.1,0-0.2,0-0.2,0c0,0,0,0,0,0c-0.1,0-0.2,0-0.3,0c-0.2,0-0.2,0-0.2,0.2c0,0.2,0,0.5,0,0.7c0,0,0,0,0,0
							c0,0,0,0.1,0,0.1c0,0,0,0.1,0,0.1l0,0c0,0,0,0,0,0c-0.1,0-0.2,0-0.3,0c-0.1,0-0.2,0-0.3,0c0,0,0,0,0,0c-0.1,0-0.2,0-0.3,0
							c-0.1,0-0.2,0-0.2,0.2c0,0.2,0,0.5,0,0.7c0,0,0,0,0,0c0,0,0,0,0,0c0,0.1,0,0.2,0,0.2c0,0,0,0,0,0s0,0,0,0c-0.1,0-0.2,0-0.3,0
							c-0.1,0-0.2,0-0.4,0c0,0,0,0,0,0c-0.1,0-0.2,0-0.3,0c-0.1,0-0.2,0-0.1,0.1c0,0.2,0,0.4,0,0.7c0,0,0,0,0,0.1c0,0.1,0,0.2,0,0.3
							c-0.1,0-0.2,0-0.3,0c-0.1,0-0.2,0-0.3,0c0,0,0,0,0,0c-0.1,0-0.2,0-0.3,0c-0.2,0-0.2,0-0.2,0.2c0,0.2,0,0.5,0,0.7c0,0,0,0,0,0
							c0,0.2,0,0.5,0,0.7c0,0,0,0,0,0c0,0.2,0,0.3,0,0.5c0,0.1-0.1,0.2-0.1,0.2c-0.1,0-0.3,0-0.4,0c0,0-0.1,0-0.1,0
							c-0.1,0-0.2,0-0.3,0c-0.2,0-0.2,0-0.2,0.2c0,0.2,0,0.5,0,0.7c0,0,0,0,0,0c0,0.2,0,0.5,0,0.7c0,0,0,0,0,0c0,1.3,0,2.7,0,4
							c0,1.1,0,2.1,0,3.2c0,0,0,0,0,0c0,0.2,0,0.5,0,0.7c0,0,0,0,0,0c0,0.2,0,0.5,0,0.7c0,0.2,0.1,0.2,0.2,0.2c0.1,0,0.2,0,0.2,0
							c0,0,0.1,0,0.1,0c0.1,0,0.3,0,0.4,0c0,0,0.1,0,0.1,0c0,0,0,0,0,0h0c0,0,0,0,0,0c0,0.1,0,0.2,0,0.3c0,0.1,0,0.2,0,0.4
							c0,0,0,0,0,0c0,0.2,0,0.4,0,0.7c0,0,0,0,0,0c0,0.2,0,0.4,0,0.7c0,0.2,0.1,0.2,0.2,0.2c0.1,0,0.2,0,0.2,0c0,0,0.1,0,0.1,0
							c0.1,0,0.3,0,0.4,0c0.1,0,0.1,0,0.1,0.1c0,0.1,0,0.1,0,0.2c0,0,0,0,0,0.1c0,0.2,0,0.4,0,0.7c0,0.1,0,0.1,0.1,0.1
							c0.1,0,0.2,0,0.3,0c0,0,0,0,0,0c0.2,0,0.4,0,0.6,0c0,0,0,0,0,0c0,0.1,0,0.2,0,0.3c0,0,0,0,0,0.1c0,0.2,0,0.4,0,0.6
							c0,0.1,0,0.2,0.1,0.1c0.1,0,0.2,0,0.3,0c0,0,0,0,0,0c0.2,0,0.4,0,0.6,0c0,0,0,0,0.1,0.1c0,0.1,0,0.2,0,0.2c0,0,0,0.1,0,0.1
							c0,0.2,0,0.4,0,0.6c0,0.1,0,0.1,0.1,0.1c0.1,0,0.2,0,0.3,0c0,0,0,0,0,0c0.2,0,0.4,0,0.5,0c0,0,0.1,0,0.1,0c0,0.3,0,0.7,0,1
							c0,0,0,0,0,0c0.7,0,1.5,0,2.2,0c0,0,0,0.1,0,0.1c0,0.1,0,0.1,0,0.2c0,0,0,0,0,0.1c0,0.2,0,0.4,0,0.6c0,0.1,0,0.1,0.1,0.1
							c0.1,0,0.2,0,0.3,0c0,0,0,0,0,0c0.5,0,1.1,0,1.6,0c0.1,0,0.1,0,0.2,0.1c0,0.1,0,0.1,0,0.2c0,0,0,0.1,0,0.1c0,0.2,0,0.4,0,0.6
							c0,0.1,0,0.2,0.2,0.2c0.1,0,0.2,0,0.3,0c0,0,0,0,0,0c0.6,0,1.2,0,1.8,0c1.6,0,3.2,0,4.8,0c0,0,0,0,0,0c0-0.3,0-0.7,0-1
							c0,0,0,0,0.1,0c0,0,0.1,0,0.1,0c0,0,0,0,0,0c0.5,0,1,0,1.5,0c0.5,0,0.5,0,0.5-0.5c0-0.2-0.1-0.4,0-0.6c0.7,0,1.4,0,2.2,0
							c0,0,0,0,0,0c0-0.2,0-0.5,0-0.7c0,0,0,0,0,0c0-0.1,0-0.2,0-0.3c0,0,0-0.1,0.1-0.1c0.2,0,0.4,0,0.6,0c0,0,0,0,0.1,0
							c0.1,0,0.2,0,0.3,0c0.1,0,0.2-0.1,0.2-0.2c0-0.2,0-0.5,0-0.7c0,0,0,0,0,0c0-0.1,0-0.2,0-0.2c0,0,0,0,0,0c0.2,0,0.4,0,0.6,0
							c0,0,0,0,0,0c0.1,0,0.2,0,0.3,0c0.1,0,0.1-0.1,0.1-0.2c0-0.2,0-0.4,0-0.6c0,0,0,0,0-0.1c0-0.1,0-0.1,0-0.2c0,0,0-0.1,0-0.1
							c0.2,0,0.4,0,0.6,0c0,0,0,0,0.1,0c0.1,0,0.2,0,0.3,0c0.1,0,0.1,0,0.1-0.1c0-0.2,0-0.4,0-0.6c0,0,0,0,0-0.1c0-0.1,0-0.2,0-0.2
							c0,0,0,0,0-0.1c0.2,0,0.4,0,0.6,0c0,0,0,0,0,0c0.1,0,0.2,0,0.3,0c0.1,0,0.2,0,0.2-0.1c0-0.2,0-0.5,0-0.7c0,0,0,0,0,0
							c0-0.2,0-0.5,0-0.7c0,0,0,0,0,0c0-0.2,0-0.5,0-0.7c0,0,0,0,0.1,0c0.2,0,0.4,0,0.6,0c0,0,0.1,0,0.1,0c0.1,0,0.2,0,0.3,0
							c0.1,0,0.2,0,0.2-0.2c0-0.2,0-0.5,0-0.7c0,0,0,0,0,0C29.2,19.5,29.2,19.3,29.2,19.1z M27.1,19.2c-0.1,0-0.1,0-0.1,0
							c-0.1,0-0.1,0-0.2,0c-0.2,0-0.3,0.1-0.2,0.2c0,0.2,0,0.4,0,0.6c0,0,0,0.1,0,0.1c0,0.2,0,0.4,0,0.6c0,0,0,0.1,0,0.1
							c0,0.1,0,0.2,0,0.3c0,0,0,0.1,0,0.1c0,0.1-0.1,0.2-0.2,0.2c-0.3,0-0.5,0-0.8,0c-0.1,0-0.2,0.1-0.2,0.2c0,0.2,0,0.4,0,0.6
							c0,0,0,0,0,0.1c0,0,0,0,0,0.1c0,0,0,0.1,0,0.1c0,0.1-0.1,0.1-0.2,0.1c-0.1,0-0.1,0-0.2,0c-1.2,0-2.4,0-3.5,0
							c-0.1,0-0.2,0-0.3-0.1c0,0,0-0.1,0-0.1c0-0.1,0-0.1,0-0.2c0,0,0,0,0,0c0-0.2,0.1-0.5,0-0.7c0,0-0.1,0-0.1,0
							c-0.1,0-0.1,0-0.2,0c0,0,0,0,0,0c0,0-0.1,0-0.1,0c-0.6,0-1.2,0-1.8,0c0-0.1,0-0.2,0-0.3c0,0,0,0,0,0c0-0.2,0-0.5,0-0.7
							c0-0.1,0-0.2-0.2-0.2c-0.2,0-0.3,0-0.5,0c-0.1,0-0.3,0-0.4,0c-0.1,0-0.1-0.1-0.1-0.1c0,0,0-0.1,0-0.1c0,0,0,0,0,0
							c0-0.2,0-0.4,0-0.7c0-0.1,0-0.2-0.2-0.2c-0.1,0-0.2,0-0.3,0c0,0,0,0,0,0c-0.2,0-0.3,0-0.5,0c-0.1,0-0.1,0-0.1-0.1
							c0,0,0-0.1,0-0.1c0,0,0-0.1,0-0.1c0-0.2,0-0.4,0-0.6c0-0.2,0-0.2-0.2-0.2c-0.1,0-0.2,0-0.3,0c0,0,0,0-0.1,0
							c-0.1,0-0.2,0-0.3,0c-0.1,0-0.2,0-0.3,0c0-0.7,0-1.5,0-2.2c0-0.1-0.1,0-0.1,0c-0.2,0-0.3,0-0.5,0c-0.1,0-0.2,0-0.3,0
							c-0.1,0-0.1-0.1-0.1-0.2c0-0.5,0-1,0-1.5c0-0.1,0-0.2,0-0.3c0,0,0.1,0,0.1,0c0,0,0.1,0,0.1,0c0.7,0,1.4,0,2.1,0
							c0.1,0,0.1,0,0.2,0c0,0,0.1,0,0.1,0c1,0,2.1,0,3.1,0c0,0,0.1,0,0.1,0c0.1,0,0.1,0,0.2,0c0,0,0,0,0,0c0.1,0,0.2,0,0.2,0
							c0,0,0.1,0,0.1,0c0,0.3,0,0.6,0,0.9c0,0.2,0,0.3,0.2,0.3c0.1,0,0.2,0,0.3,0c0,0,0,0,0,0c0.4,0,0.9,0,1.3,0c0.4,0,0.8,0,1.2,0
							c0,0,0,0,0.1,0c0.1,0,0.1,0,0.2,0c0.1,0,0.1,0.1,0.1,0.3c0,0,0,0,0,0c0,0,0,0,0,0c0,0.2,0,0.4,0,0.6c0,0.1,0,0.2,0,0.2
							c0.4,0,0.8,0,1.2,0c0.3,0,0.6,0,0.9,0c0.1,0,0.2,0,0.2,0.1c0,0.1,0,0.1,0,0.2c0,0,0,0.1,0,0.1c0,0,0,0,0,0c0,0.2,0,0.4,0,0.6
							c0,0.1,0,0.3,0.2,0.2c0.1,0,0.1,0,0.2,0c0,0,0.1,0.1,0.2,0c0.1,0,0.2,0,0.3,0c0.2,0,0.3,0.1,0.3,0.3c0,0.4,0,0.9,0,1.3
							c0,0.2-0.1,0.3-0.3,0.3c-0.1,0-0.1,0-0.2,0C27.2,19.2,27.2,19.2,27.1,19.2z M19.1,26C19.1,26,19,26,19.1,26
							c-0.2,0-0.3,0-0.4,0c-0.1,0-0.2,0-0.2,0.2c0,0.2,0,0.4,0,0.6c0,0,0,0,0,0v0c0,0.1,0,0.1,0,0.2c0,0.1-0.1,0.2-0.2,0.2
							c-0.5,0-1,0-1.6,0c-0.2,0-0.2-0.1-0.2-0.2c0-0.2,0-0.4,0-0.6c0-0.2,0-0.3-0.3-0.3c-0.1,0-0.2,0-0.3,0c0,0,0,0,0,0
							c-0.2,0-0.3,0-0.5,0c-0.2,0-0.4,0-0.7,0c-0.5,0-0.5,0-0.4-0.5c0-0.1,0-0.2,0-0.2c0-0.4,0-0.4-0.5-0.4c-0.1,0-0.2,0-0.3,0
							c0,0,0,0,0,0c0,0-0.1,0-0.1,0c-0.1,0-0.2,0-0.2-0.1c0-0.1,0-0.2,0-0.3c0,0,0,0,0,0c0,0,0,0,0-0.1c0-0.1,0-0.1,0-0.2
							c0,0,0,0,0-0.1c0-0.1,0-0.2,0-0.3c0-0.1,0-0.2,0-0.3c0,0,0-0.1,0-0.1c0-0.2,0-0.4,0-0.6c0-0.2,0-0.2-0.2-0.2
							c-0.1,0-0.2,0-0.3,0c0,0-0.1,0-0.1,0c-0.1,0-0.2,0-0.2,0c0,0-0.1,0-0.1,0c-0.1,0-0.2,0-0.2,0c0-0.3,0-0.7,0-1
							c0-0.2,0-0.4,0-0.6c0,0,0,0,0-0.1c0-0.1,0-0.2,0-0.3c0-0.1,0-0.3,0-0.4c0,0,0,0,0,0c0,0,0,0,0-0.1c0-0.3,0-0.5,0-0.8
							c0,0,0,0,0-0.1c0-0.1-0.1-0.1-0.1-0.1c-0.1,0-0.2,0-0.3,0c0,0,0,0,0,0c-0.1,0-0.2,0-0.2,0c-0.1,0-0.2,0-0.3,0
							C11,19.2,11,19.1,11,19c0-1.7,0-3.4,0-5c0,0,0,0,0,0c0,0,0,0,0,0c0,0,0,0,0,0c0,0,0,0,0,0c0,0,0,0,0,0h0c0,0,0,0,0,0
							c0.1,0,0.1,0,0.2,0c0.4,0,0.8,0,1.2,0c0.1,0,0.2,0,0.3,0c0,0,0,0,0,0c0,0,0.1,0,0.1,0c0,0.1,0,0.2,0,0.3c0,0.1,0,0.2,0,0.3
							c0,0.1,0,0.3,0,0.4c0,0.5,0,0.9,0,1.4c0,0,0,0.1,0,0.1c0,0,0,0,0,0c0,0.1,0,0.2,0,0.3c0,0.1,0,0.2,0,0.4
							c0,0.1,0.1,0.1,0.2,0.1c0,0,0.1,0,0.1,0c0,0,0.1,0,0.1,0c0,0,0.1,0,0.1,0c0,0,0,0,0.1,0c0,0,0,0,0.1,0c0,0,0.1,0,0.1,0
							c0,0,0,0,0.1,0c0,0,0,0,0.1,0c0,0,0.1,0,0.1,0c0,0,0.1,0,0.1,0c0,0,0.1,0,0.1,0.1c0,0,0,0.1,0,0.1c0,0,0,0.1,0,0.1
							c0,0.1,0,0.2,0,0.3c0,0.1,0,0.3,0,0.4c0,0,0,0,0,0c0,0.1,0,0.1,0,0.2c0,0,0,0,0,0c0,0,0,0.1,0,0.1c0,0,0,0,0,0
							c0,0.1,0,0.1,0,0.2c0,0.2,0,0.4,0,0.7c0,0,0,0,0,0c0,0,0,0,0,0c0.4,0,0.7,0,1.1,0c0,0.1,0,0.1,0,0.2c0,0,0,0,0,0.1
							c0,0,0,0,0,0c0,0.2,0,0.5,0,0.7c0,0.2,0,0.2,0.2,0.2c0.1,0,0.2,0,0.3,0c0,0,0,0,0,0c0.1,0,0.3,0,0.4,0c0.1,0,0.1,0.1,0.1,0.2
							c0,0,0,0.1,0,0.1c0,0,0,0,0,0c0,0.2,0,0.4,0,0.7c0,0.1,0,0.2,0.2,0.2c0.1,0,0.2,0,0.3,0c0,0,0,0,0,0c0.2,0,0.3,0,0.5,0
							c0.1,0,0.1,0,0.1,0.1c0,0.1,0,0.1,0,0.2c0,0,0,0,0,0.1c0,0.2,0,0.4,0,0.6c0,0.1,0,0.2,0.2,0.2c0.1,0,0.2,0,0.3,0c0,0,0,0,0,0
							c0.2,0,0.4,0,0.6,0c0,0.4,0,0.7,0,1.1c0.1,0,0.1,0,0.2,0c0.1,0,0.1,0,0.2,0c0,0,0,0,0,0c0.1,0,0.1,0,0.2,0c0,0,0,0,0,0l0,0
							c0,0,0,0,0,0c0.4,0,0.7,0,1.1,0c0,0,0,0,0.1,0c0.1,0,0.1,0,0.2,0c0.1,0,0.1,0,0.2,0c0,0,0,0,0,0c0,0,0,0,0,0c0,0,0,0,0,0
							c0,0,0.1,0,0.1,0c0,0.1,0,0.1,0,0.2c0,0.1,0,0.1,0,0.1c0,0.2,0,0.4,0,0.6c0,0,0,0.1,0,0.1c0,0,0,0.1,0,0.1c0,0.2,0,0.4,0,0.6
							c0,0,0,0.1,0,0.1c0,0,0,0,0,0.1c0,0.1,0,0.2-0.2,0.2c-0.2,0-0.5,0-0.7,0C19.7,26,19.4,26,19.1,26z M11.6,26
							C11.6,26,11.6,26,11.6,26c-0.5,0-1.1,0-1.6,0c-0.2,0-0.2,0-0.2-0.3c0,0,0-0.1,0-0.1c0,0,0,0,0,0c0,0,0,0,0,0c0,0,0,0,0,0
							c0,0,0-0.1,0-0.1c0,0-0.1-0.1-0.1-0.1c0,0,0,0.1,0.1,0.1c0-0.1,0-0.2,0-0.2c0,0,0-0.1,0-0.1c0,0,0,0,0,0c0,0,0,0,0,0
							c0,0,0,0,0-0.1c0,0,0-0.1,0-0.1h0c0.1-0.2-0.1-0.2-0.2-0.2c-0.3,0-0.7,0-1,0c-0.3,0-0.5,0-0.8,0c-0.1,0-0.2,0-0.2-0.1
							c0,0,0,0,0-0.1c0,0,0-0.1,0-0.1c0-0.2,0-0.4,0-0.6c0-0.2-0.1-0.2-0.2-0.2c-0.1,0-0.2,0-0.3,0c0,0,0,0,0,0c-0.1,0-0.2,0-0.3,0
							c-0.2,0-0.2-0.1-0.2-0.2c0,0,0-0.1,0-0.1c0,0,0,0,0,0c0,0,0-0.1,0-0.1c0,0,0,0,0,0c0,0,0-0.1,0-0.1c0,0,0,0,0,0c0,0,0,0,0,0
							c0-0.1,0-0.2,0-0.3c0,0,0-0.1,0-0.1h0c0,0,0.1-0.1,0-0.1c0-0.1-0.1-0.1-0.1-0.2c0,0,0,0,0,0c0,0,0-0.1,0-0.1
							c0-0.2,0-0.4,0-0.5c0,0,0,0,0,0c0,0,0-0.1,0-0.1h0c0-0.1,0-0.2,0-0.3c0,0,0,0,0-0.1c0-0.1,0-0.2,0-0.3c0,0,0,0,0,0
							c0,0,0-0.1,0-0.1h0c0-0.1,0-0.2,0-0.3c0,0,0,0,0,0c0-0.1,0-0.2,0-0.3c0,0,0,0,0,0c0,0,0-0.1,0-0.1c0-0.2,0-0.4,0-0.6
							c0-0.1,0.1-0.2,0.2-0.2c0.1,0,0.2,0,0.3,0c0.2,0,0.4,0,0.6,0c0,0,0,0,0,0c0,0,0,0,0,0c0,0,0,0,0,0c0.1,0,0-0.1,0-0.2
							c0-0.2,0-0.4,0-0.6c0,0,0,0,0-0.1c0,0,0-0.1,0-0.1c0-0.2,0-0.4,0-0.6c0,0,0-0.1,0-0.1c0-0.2,0-0.3,0-0.5c0-0.1,0-0.2,0.1-0.2
							c0.1,0,0.2,0,0.3,0c0.2,0,0.4,0,0.6,0c0.1,0,0.1,0,0.1-0.1c0,0,0-0.1,0-0.1c0-0.1,0-0.1,0-0.2c0,0,0-0.1,0-0.1
							c0,0,0-0.1,0-0.1c0-0.9,0-1.7,0-2.6c0,0,0,0,0,0c0,0,0-0.1,0-0.1c0,0,0,0,0-0.1c0,0,0-0.1,0.1-0.1c0.1,0,0.1,0,0.2,0
							c0,0,0,0,0.1,0c0.1,0,0.1,0,0.2,0c0.1,0,0.1,0,0.2,0c0,0,0,0,0,0.1c0,0.1,0,0.1,0,0.2c0,0.1,0,0.1,0,0.2c0,0.1,0,0.2,0,0.4
							c0,0.1,0,0.2,0,0.2c0,0.2,0,0.3,0,0.5c0,0,0,0,0,0c0,0.1,0,0.1,0,0.2c0,0,0,0,0,0c0,0.2,0,0.3,0,0.5c0,0.1,0,0.1,0,0.2
							c0,1,0,1.9,0,2.9c0,0,0,0,0,0c0,0.2,0,0.5,0,0.7c0,0,0,0,0,0c0,0.2,0,0.5,0,0.7c0,0.1,0.1,0.2,0.2,0.2c0.1,0,0.3,0,0.4,0
							c0.1,0,0.3,0,0.4,0c0.1,0,0.1,0.1,0.1,0.2c0,0.5,0,1,0,1.6c0,0,0,0,0,0c0,0.2,0,0.5,0,0.7c0,0,0,0,0,0c0,0.2,0,0.5,0,0.7
							c0,0.2,0.1,0.3,0.2,0.2c0.1,0,0.2,0,0.3,0c0,0,0.1,0,0.1,0c0.1,0,0.2,0,0.2,0c0,0,0.1,0,0.1,0c0.1,0,0.1,0,0.2,0.1
							c0,0,0,0.1,0,0.1c0,0.1,0,0.1,0,0.2c0,0.1,0,0.2,0,0.3c0,0,0,0,0,0c0,0.1,0,0.1-0.1,0.1c0,0,0.1,0,0.1,0c0,0.2,0,0.4,0,0.5
							c0,0,0,0,0,0c0,0,0,0.1,0,0.1c0,0,0,0,0,0c0,0,0,0,0,0c0,0,0.1,0,0.1,0c0,0.1,0,0.3,0,0.4C11.7,26,11.7,26,11.6,26z M5.5,18.1
							c-0.1,0-0.3,0-0.4,0c-0.1,0-0.2,0-0.2,0.2c0,0.2,0,0.4,0,0.6c0,0,0,0,0,0.1c0,0,0,0,0,0.1c0,0,0,0,0,0.1c0,0.1,0,0.1,0,0.2
							l0,0c0,0,0,0,0,0c-0.1,0-0.2,0-0.3,0c-0.2,0-0.3,0-0.5,0c-0.2,0-0.4,0-0.6,0c-0.1,0-0.2,0-0.3,0c-0.1,0-0.1,0-0.2,0
							c0-0.7,0-1.3,0-2c0,0,0,0,0,0c0-0.2,0-0.4,0-0.7c0,0,0,0,0,0c0-0.1,0-0.2,0-0.3c0-0.1,0.1-0.1,0.2-0.1c0.3,0,0.6,0,0.9,0
							c0.1,0,0.1-0.1,0.1-0.1c0-0.2,0-0.4,0-0.6c0,0,0-0.1,0-0.1c0-0.1,0-0.2,0-0.3c0.6,0,1.1,0,1.7,0c0,0,0.1,0,0.1,0
							c0.1,0,0.2,0,0.3,0c0.3,0,0.3,0,0.3-0.3c0-0.1,0-0.3,0-0.4c0,0,0-0.1,0-0.3c0,0,0,0,0,0c0,0,0,0,0.1,0c0.2,0,0.4,0,0.6,0
							c0.1,0,0.1,0.1,0.1,0.2c0,0.5,0,1.1,0,1.6c0,0.1-0.1,0.2-0.2,0.2c0,0,0,0-0.1,0c-0.1,0-0.2,0-0.3,0c0,0-0.1,0-0.1,0
							c-0.1,0-0.2,0-0.3,0c-0.2,0-0.3,0-0.3,0.3c0,0.2,0,0.4,0,0.7c0,0,0,0,0,0c0,0.2,0,0.4,0,0.7c0,0,0,0,0,0c0,0.2,0,0.3,0,0.5
							c0,0.1,0,0.1-0.1,0.2C5.8,18.1,5.7,18.1,5.5,18.1z M3.6,11.6C3.6,11.6,3.7,11.6,3.6,11.6c0.2,0,0.3,0,0.4,0
							c0.2,0,0.2-0.1,0.2-0.2c0-0.2,0-0.5,0-0.7c0,0,0,0,0,0c0-0.2,0-0.5,0-0.7c0,0,0,0,0,0c0-0.2,0-0.4,0-0.7c0,0,0,0,0,0
							c0,0,0,0,0,0c0,0,0,0,0,0c0,0,0,0,0,0c0,0,0,0,0,0c0,0,0,0,0,0c0.3,0,0.5,0,0.8,0c0,0,0,0,0,0c0,0,0.1,0,0.1,0c0,0,0,0,0,0
							c0.1,0,0.2,0,0.3,0c0,0,0,0,0,0c0,0,0.1,0,0.1,0c0-0.1,0-0.1-0.1-0.1c0-0.2,0-0.4,0-0.6c0,0,0,0,0.1,0c0-0.1,0-0.1-0.1-0.1
							c0-0.1,0-0.1,0-0.2c0.1,0,0.2,0,0.4,0c0.1,0,0.2,0,0.2,0C6,8.2,6,8.2,6,8.2c0,0.1,0,0.2,0,0.3c0,0,0,0,0,0C6.1,8.8,6,9,6,9.3
							c0,0,0.1,0,0.1,0v0c0.3,0,0.6,0,0.9,0c0,0,0,0,0,0c0,0,0,0,0,0c0,0,0.1,0,0.1,0c0,0.6,0,1.2,0,1.8c0,0.1-0.1,0.1-0.2,0.1
							c-0.2,0-0.4,0-0.6,0c0,0,0,0,0,0c-0.1,0-0.2,0-0.4,0c0,0.3,0,0.6,0,0.9c0,0.2,0,0.3-0.2,0.3c-0.5,0-1,0-1.5,0c0,0,0,0,0,0
							c-0.1,0-0.2,0-0.3,0c-0.2,0-0.2,0-0.2,0.2c0,0.2,0,0.4,0,0.6c0,0,0,0.1,0,0.1c0,0.1,0,0.2,0,0.3c0,0,0,0,0,0
							c-0.2,0-0.4,0-0.6,0c-0.1,0-0.2,0-0.2-0.2c0-0.6,0-1.1,0-1.7c0-0.1,0.1-0.2,0.2-0.2C3.3,11.5,3.5,11.5,3.6,11.6z M9.4,5.9
							L9.4,5.9c0.1,0,0.2,0,0.4,0c0.1-0.2,0.1-0.4,0.1-0.6c0-0.6,0-0.6,0.5-0.6c0.4,0,0.8,0,1.2,0c0,0,0,0,0,0c0.1,0,0.1,0,0.2,0
							c0,0.2,0,0.5,0,0.7c0,0,0,0,0,0c0,0.1,0,0.1,0,0.2c0,0,0,0,0,0c0,0-0.1,0-0.1,0c0,0-0.1,0-0.1,0c-0.1,0-0.1,0-0.2,0
							c-0.1,0-0.1,0-0.2,0c-0.1,0-0.1,0-0.1,0c-0.1,0-0.1,0-0.2,0c-0.2,0-0.3,0-0.3,0.3c0,0.2,0,0.4,0,0.7c0,0,0,0,0,0
							c0,0.2,0,0.4,0,0.7c0,0,0,0,0,0c0,0.4,0,0.7,0,1.1c0,0.1,0,0.1,0,0.2c0,0,0,0.1,0,0.1c0,0.1,0,0.2,0,0.4c-0.2,0-0.4,0-0.6,0
							c-0.1,0-0.1-0.1-0.1,0C9.8,9,9.7,9,9.7,9c-0.1,0-0.1-0.1-0.1,0c0,0.1,0,0.1,0,0.2c0,0.2,0,0.4,0,0.7c0,0,0,0,0,0
							c0,0.2,0,0.4,0,0.7c0,0,0,0,0,0c0,0.1,0,0.3,0,0.4c0,0.1,0,0.2-0.1,0.2c-0.1,0-0.2,0-0.3,0c-0.1,0-0.2,0-0.3,0
							c-0.1,0-0.1-0.1-0.1-0.2c0-0.5,0-1,0-1.6c0,0,0,0,0,0c0-0.2,0-0.5,0-0.7c0,0,0,0,0,0c0-0.2,0-0.5,0-0.7c0-0.2,0-0.2-0.2-0.2
							c-0.1,0-0.2,0-0.3,0c0,0,0,0,0,0c-0.1,0-0.1,0-0.2,0c-0.1,0-0.2,0-0.3,0c0-0.1,0-0.3,0-0.4c0,0,0,0,0,0c0-0.2,0-0.4,0-0.5
							c0,0,0-0.1,0-0.1c0,0,0,0,0-0.1c0,0,0,0,0,0c0-0.3,0-0.6,0-0.9C8.3,5.9,8.8,5.9,9.4,5.9z M12.3,7c0.2,0,0.4,0,0.6,0
							c0.4,0,0.4,0,0.4-0.4c0-0.2,0-0.4,0-0.6c0,0,0-0.1,0-0.1c0-0.2,0-0.3,0-0.5c0-0.1,0-0.2,0-0.4c0,0,0-0.1,0-0.1
							c0,0,0-0.1,0-0.1c0,0,0,0,0,0c0,0,0,0,0-0.1c0.2,0,0.4,0,0.6,0c0,0,0,0,0,0c0.1,0,0.2,0,0.3,0c0.2,0,0.2-0.1,0.2-0.2
							c0-0.2,0-0.4,0-0.7c0,0,0,0,0,0c0,0,0,0,0-0.1c0-0.1,0-0.2,0.2-0.2c1.3,0,2.6,0,3.9,0c0.1,0,0.2,0,0.2,0.1c0,0,0,0,0,0.1
							c0,0,0,0.1,0,0.1c0,0.2,0,0.4,0,0.6c0,0,0,0.1,0,0.1c0,0,0,0,0,0.1c0,0.2,0,0.4,0,0.6c0,0,0,0,0,0.1c0,0.1,0,0.2,0,0.2
							c0,0,0,0-0.1,0c0,0,0,0,0,0c0,0,0,0-0.1,0c0,0-0.1,0-0.1,0c0,0,0,0,0,0c0,0-0.1,0-0.1,0c0,0,0,0,0,0c-0.2,0-0.5,0-0.7,0
							c-0.3,0-0.6,0-0.9,0c-0.1,0-0.1,0-0.2,0c-0.1,0.3,0,0.6,0,0.9c0,0.1,0,0.1,0,0.2c0,0,0,0-0.1,0c-0.2,0-0.3,0-0.5,0
							c0,0-0.1,0-0.1,0c-0.1,0-0.1,0-0.2,0c-0.1,0-0.2,0-0.2,0.1c0,0,0,0.1,0,0.1c0,0.2,0,0.4,0,0.7c0,0.4,0,0.3-0.3,0.3
							c0,0-0.1,0-0.1,0c-0.1,0-0.1,0-0.2,0c0,0-0.1,0-0.1,0c-0.1,0-0.2,0-0.2,0c-0.2,0-0.2,0.1-0.2,0.2c0,0.2,0,0.4,0,0.6
							c0,0,0,0,0,0.1c0,0.2,0,0.4,0,0.6c0,0,0,0,0,0.1c0,0.2,0,0.3,0,0.5c0,0.2,0,0.2-0.3,0.2c-0.2,0-0.4,0-0.7,0
							c-0.1,0-0.2,0-0.1,0.2l0,0c0,0,0,0.1,0,0.1c0,0.1,0,0.2,0,0.3c0,0.2,0,0.4,0,0.6c-0.1,0-0.1,0-0.2,0c0,0,0,0,0,0
							c-0.6,0-1.1,0-1.7,0c0,0,0,0,0,0c0-0.2,0-0.4,0-0.6c0,0,0,0,0,0c0-0.1,0-0.1,0-0.2c0,0,0.1,0,0.2,0c0.2,0,0.3,0,0.5,0
							c0.2,0,0.4,0,0.5-0.1c0-0.9,0-1.9,0-2.8c0-0.1,0.1-0.1,0-0.2c0,0,0-0.1,0-0.1c0,0,0,0,0,0c0,0,0,0,0-0.1c0,0,0-0.1,0-0.1
							C12.2,7,12.2,7,12.3,7C12.3,7,12.3,7,12.3,7z M19,7C19,7,19,7,19,7C19.1,7,19.1,7,19,7c0.6,0,1.2,0,1.8,0c0,0,0,0,0,0
							c0,0,0.1,0,0.1,0c0,0,0,0,0,0c0.1,0,0.2,0,0.3,0h0c0,0,0.1,0,0.1,0c0.1-0.1,0-0.1,0-0.2c0-0.2,0-0.3,0-0.5c0,0,0,0,0,0
							c0-0.1,0-0.1,0-0.2c0,0,0,0,0,0c0-0.1,0-0.1,0-0.2c0.2,0,0.5,0,0.7,0c0.1,0,0.1,0,0.2,0c0.1,0,0.1,0,0.2,0c0.3,0,0.5,0,0.8,0
							c0,0.1,0,0.1,0,0.2c0,0,0,0,0,0.1c0,0,0,0,0,0.1c0,0,0,0,0,0.1c0,0,0,0,0,0c0,0.2,0,0.4,0,0.6c0,0.1,0,0.1,0,0.2
							c0.1,0,0.2,0,0.4,0c0,0,0,0,0.1,0c0.1,0,0.2,0,0.3,0C23.9,7,24,7,24,7c0.2,0,0.2,0,0.3,0.2c0,0,0,0,0,0c0,0,0,0,0,0.1
							c0,0,0,0,0,0c0,0,0,0.1,0,0.1c0,0,0,0,0,0.1c0,0.2,0,0.3,0,0.5c0,0,0,0,0,0.1c0,0,0,0.1,0,0.1c0,0,0,0,0,0c0,0,0,0,0,0
							c0,0,0,0,0,0c0.2,0.1,0.4,0,0.6,0c0.1,0,0.2,0,0.3,0c0.1,0,0.1,0,0.2,0.1c0,0,0,0,0,0.1c0,0,0,0.1,0,0.1c0,0,0,0,0,0
							c0,0,0,0.1,0,0.1c0,0,0,0,0,0c0,0.2,0,0.3,0,0.5c0,0.3,0,0.3,0.3,0.2c0,0,0.1,0,0.1,0c0,0,0,0,0,0c0,0,0.1,0,0.2,0
							c0,0,0,0,0,0c0,0,0.1,0,0.1,0c0,0,0,0,0,0c0,0,0,0,0,0c0,0,0.1,0,0.1,0c0.1,0,0.2,0.1,0.2,0.3c0,0.1,0,0.1,0,0.2
							c0,0.1,0,0.1,0,0.2c0,0.1,0,0.1,0,0.2c0,0,0,0,0,0c0,0.2,0,0.3,0,0.5c0,0,0,0.1,0,0.1c0,0,0,0,0,0.1c0,0,0,0,0,0
							c0,0.2,0,0.4,0,0.5c0,0.2,0.1,0.3,0.3,0.3c0.1,0,0.2,0,0.3,0c0,0,0.1,0,0.1,0c0.1,0,0.1,0,0.2,0c0,0,0.1,0,0.1,0
							c0.2,0,0.2,0.1,0.2,0.2c0,0.9,0,1.8,0,2.7c0,0.1,0,0.1-0.1,0.2h0c-0.2,0-0.4,0-0.6,0c0-0.1,0-0.1,0-0.2c0-0.1,0-0.2,0-0.2
							c0-0.2,0-0.3,0-0.5c0-0.3,0-0.3-0.3-0.3c-0.1,0-0.2,0-0.3,0c0,0,0,0,0,0c-0.5,0-1,0-1.4,0c-0.1,0-0.2,0-0.2-0.1
							c0-0.1,0-0.1,0-0.2c0-0.3,0-0.6,0-0.8c0,0-0.1,0-0.1,0h0c0,0-0.1,0-0.1,0c-0.2,0-0.3,0-0.5,0c-0.1,0-0.2,0-0.3,0
							c-0.3,0-0.7,0-1,0c-0.4,0-0.7,0-1.1,0c-0.2,0-0.2-0.1-0.2-0.2c0,0,0,0,0,0c0,0,0-0.1,0-0.1c0-0.2,0-0.4,0-0.6
							c0-0.2,0-0.2-0.2-0.2c-0.1,0-0.2,0-0.3,0c0,0,0,0,0,0c-0.6,0-1.1,0-1.7,0c-1.2,0-2.3,0-3.5,0c0-0.1,0-0.2,0-0.3
							c0-0.1,0-0.1,0-0.2c0,0,0,0,0,0c0,0,0,0,0-0.1c0-0.1,0-0.3,0-0.4c0,0,0,0,0,0c0-0.1,0-0.1,0-0.2c0,0,0-0.1,0-0.1
							c0-0.1,0-0.2,0-0.4c0.1-0.3,0.1-0.3,0.5-0.3c0.1,0,0.1,0,0.2,0c0.1,0,0.1,0,0.1,0c0,0,0,0,0,0c0.4,0.1,0.4,0,0.3-0.3
							c0-0.1,0-0.3,0-0.4c0-0.1,0-0.1,0-0.3c0,0,0-0.1,0-0.1c0.6,0,1.2,0,1.7,0c0,0,0,0,0,0c0.1,0,0.2,0,0.3,0C18.9,8.1,19,8.1,19,8
							c0-0.2,0-0.4,0-0.6c0,0,0-0.1,0-0.1c0,0,0,0,0,0C19,7.2,19,7.1,19,7C19,7,19,7,19,7C19,7,19,7,19,7z M15.5,18.1
							C15.5,18.1,15.5,18.1,15.5,18.1C15.5,18.1,15.5,18.1,15.5,18.1C15.5,18.1,15.5,18.1,15.5,18.1C15.5,18.1,15.5,18.1,15.5,18.1z
							 M18.9,7C19,7,19,7,18.9,7C19,7,19,7,18.9,7C18.9,7,18.9,7,18.9,7z M19,7C19,7,19,7,19,7C19,7,19,7,19,7C19,7,19,7,19,7z
							 M12.3,27.1c-0.1,0-0.1-0.1-0.1-0.2c0,0,0,0,0,0c0,0,0,0,0,0c0-0.2,0-0.4,0-0.5c0,0,0.1,0,0.1,0c0.1,0,0.2,0,0.3,0
							c0.3,0,0.3,0.1,0.3,0.5c0,0.1,0,0.2,0,0.4C12.7,27.2,12.5,27.2,12.3,27.1z"/>
					</g>
				</g>
			</g>
		</g>
	</g>
</g>
</svg>
