<svg width="2112" height="279" viewBox="0 0 2112 279" fill="none" xmlns="http://www.w3.org/2000/svg">
<path d="M522.225 106.07V41.8016H501.077V20.5736H457.969V0.000235862H393.825V21.0829H351.129V64.2056H330.395V214.192H351.799V257.275H394.535V277.795H480.132V256.451H501.749V235.207H522.073V128.776H416.465V171.295H458.1V213.23H395.015V64.2962H458.916V106.07H522.225Z" fill="#EC0089"/>
<path d="M139.129 162.7H69.1852V254.762H46.1825V277.444H-0.00012207V0.000480002H68.4119V91.5925H138.352V0.228507H207.74V277.795H139.129V162.7Z" fill="#EC0089"/>
<path d="M691.704 162.878H621.684V255.039H598.656V277.747H552.423V0.000342097H620.911V91.6937H690.927V0.228329H760.39V278.098H691.704V162.878Z" fill="#EC0089"/>
<path d="M305.192 91.7092V-8.51673e-05H258.215V19.8852H236.693V277.796H282.933V255.084H305.967V162.907L305.192 91.7092Z" fill="#EC0089"/>
<path d="M1050.8 232.099H1028.62V254.682H1005.2V277.795H889.138V255.175H866.021V208.887H981.152V162.583H912.328V139.15H866.39V22.6632H888.336V0.000480002H1028.09V21.9978H1050.74V45.4111H1028.73V68.0445H1005.32V46.2605H936.162V92.0058H981.501V115.046H1028.2V138.442H1050.8V232.099Z" fill="#EC0089"/>
<path d="M1270.47 193.835V218.214H1251.18V258.204H1231.43V277.795H1111.4V258.874H1091.29V238.836H1071.88V39.5122H1090.87V19.7922H1130.98V0.000235862H1210.68V19.3269H1230.8V39.0189H1250.91V59.0576H1270.3V94.8282H1211.23V79.4989H1191.47V60.0802H1131.79V218.246H1150.58V237.896H1170.69V219.128H1210.37V193.978L1270.47 193.835Z" fill="#EC0089"/>
<path d="M1797.69 118.875H1892.98V158.509H1877.88V178.583H1797.65V218.219H1893.37V238.264H1908.99V277.796H1749.46V19.8239H1765V-8.51673e-05H1893.24V19.3159H1909.2V58.9532H1797.69V118.875Z" fill="#EC0089"/>
<path d="M2089.27 115.044H2042.57V92.0058H1997.23V46.2591H2066.39V68.0432H2089.81H2111.81V45.4125V36.5205V21.9992H2089.17V0.000480002H1949.41V22.6618H1927.46V139.15H1973.4V162.583H2042.22V208.887H1927.09V255.175H1950.21V277.795H2066.27V254.683H2089.69V232.1H2111.87V138.442H2089.27V115.044Z" fill="#EC0089"/>
<path d="M1453.08 185.537H1431.22V208.043H1384.48V185.983H1361.57V69.3868H1383.62V46.4615H1430.35V68.5241H1453.08V185.537ZM1500.1 22.0508H1477.05V0.000158973H1337.18V22.6575H1313.77V92.6842H1291.68V185.996H1314.59V232.3H1338.04V255.733H1360.64V277.796H1454.37V255.144H1477.8V231.709H1500.81V161.672H1523.27V92.0722H1500.1V22.0508Z" fill="#EC0089"/>
<path d="M1664.48 100.281H1644.92V125.292H1608.19V50.5734H1664.48V100.281ZM1707.99 176.431H1688.98V150.9H1708.81V125.793H1727.84V24.0574H1708.25V3.69029e-05H1545V277.795H1608.04V177.896H1625.13V202.648H1645.36V253.599H1665.29V277.519H1728.05V227.851H1707.99V176.431Z" fill="#EC0089"/>
</svg>
