<?xml version="1.0" encoding="UTF-8"?><svg id="Layer_1" xmlns="http://www.w3.org/2000/svg" viewBox="0 0 307.43 169.65"><defs><style>.cls-1{fill:#ff00ed;}</style></defs><path class="cls-1" d="M100.48,44.08h-18.9v24.87h-6.22v6.13h-12.48V.12h18.48V24.87h18.9V.18h18.75V75.18h-18.54v-31.1Z"/><path class="cls-1" d="M56.07,169.65h-18.56v-31.04H18.72v24.75h-6.32v6.27H0V94.62H18.5v24.68h18.9v-24.73h18.67v75.08Z"/><path class="cls-1" d="M181.83,100.61h-6.21v-5.99h-37.81v6.19h-5.93v56.54h6.17v6.2h6.32v5.99h25.14v-6.12h6.32v-6.31h6.2v-6.2h6.04v-37.71h-6.24v-12.6Zm-12.7,50.11h-18.53v-18.51h-6.22v-6.31h6.03v-18.67h12.59v5.9h6.12v37.59Z"/><path class="cls-1" d="M144.3,75.1v-5.95h-6.1v-6.32h-6.32v-12.49h-6.18V25.18h5.96V6.29h6.31V.18h37.73V6.13h6.22V25.01h6.25v18.77h-6.06v18.89h-6.21v6.32h-6.32v6.11h-25.28Zm24.93-24.88V18.66h-6.13v-5.95h-12.6v6.18h-5.95v31.45h6.18v5.95h12.6v-6.07h5.9Z"/><path class="cls-1" d="M75.07,94.53h37.72v6.09h6.22v18.89h6.24v18.77h-6.1v18.89h-6.21v6.32h-6.32v6.1h-25.17v-5.99h-6.21v-6.32h-6.32v-12.49h-6.17v-25.17h5.99v-18.89h6.31v-6.2Zm25.1,18.82v-6.22h-12.49v6.24h-6v31.44h6.13v6h12.49v-6.24h6.11v-31.22h-6.24Z"/><path class="cls-1" d="M207.21,75.17v-6.04h-6.2v-6.2h-6.19V6.29h5.98V.18h37.7V6.11h6.21v12.59h6.26v31.43h-5.99v12.6h-6.31v6.2h-6.31v6.25h-25.15Zm.21-50.11v25.28h6.13v5.95h12.6v-6.18h5.95V18.66h-6.18v-5.95h-12.6v12.35h-5.9Z"/><path class="cls-1" d="M250.83,132.18h-5.98v6.1h-31.45v31.37h-12.49v-6.1h-6.24V94.64h50.07v5.98h6.1v31.57Zm-18.78-6.49v-18.53h-18.47v18.53h18.47Z"/><path class="cls-1" d="M49.89,62.85h-5.99v6.1h-6.32v6.24H6.24v-6.11H0v-12.5H31.08v-12.5H12.5v-6.33H.1V6.3H6.02V.19H43.76V6.12h6.11v6.32h-5.94v6.11h-6.32v-5.88H18.94v12.35h12.24v6.22h12.61v6.32h6.1v25.29Z"/><path class="cls-1" d="M301.38,94.63v5.98h5.98v6.32h-5.98v6.1h-6.32v-5.9h-18.66v12.38h18.55v6.21h6.32v6.32h6.1v25.17h-5.99v6.21h-6.32v6.24h-31.33v-6.1h-6.25v-12.49h37.35v-6.32h-5.98v-6.32h-18.89v-6.21h-6.32v-6.32h-6.1v-25.17h5.98v-6.1h37.84Z"/><path class="cls-1" d="M251.35,0h56.08V12.41h-18.54v62.76h-18.72V12.64h-18.82V0Z"/></svg>